STARTFONT 2.2
FONT -FontForge-IPAGothic-Book-R-Normal--31-300-75-75-P-297-ISO10646-1
SIZE 30 75 75
FONTBOUNDINGBOX 45 38 -14 -9
METRICSSET 2
SWIDTH 1000 0
DWIDTH 31 0
SWIDTH1 1000 0
DWIDTH1 31 0
VVECTOR 15,27
COMMENT "Generated by fontforge, http://fontforge.sourceforge.net"
COMMENT "Copyright(c) Information-technology Promotion Agency, Japan (IPA), 2003-2011. You must accept "http://ipafont.ipa.go.jp/ipa_font_license_v1.html" to use this product."
STARTPROPERTIES 40
FOUNDRY "FontForge"
FAMILY_NAME "IPAGothic"
WEIGHT_NAME "Book"
SLANT "R"
SETWIDTH_NAME "Normal"
ADD_STYLE_NAME ""
PIXEL_SIZE 31
POINT_SIZE 300
RESOLUTION_X 75
RESOLUTION_Y 75
SPACING "P"
AVERAGE_WIDTH 297
CHARSET_REGISTRY "ISO10646"
CHARSET_ENCODING "1"
FONTNAME_REGISTRY ""
CHARSET_COLLECTIONS "ISO8859-5 JISX0208.1997 BIG5 ISO10646-1"
FONT_NAME "IPAGothic"
FACE_NAME "IPAGothic"
COPYRIGHT "Copyright(c) Information-technology Promotion Agency, Japan (IPA), 2003-2011. You must accept "http://ipafont.ipa.go.jp/ipa_font_license_v1.html" to use this product."
FONT_VERSION "003.03"
FONT_ASCENT 27
FONT_DESCENT 4
UNDERLINE_POSITION -5
UNDERLINE_THICKNESS 2
X_HEIGHT 15
CAP_HEIGHT 22
RAW_ASCENT 879
RAW_DESCENT 120
NORM_SPACE 16
RELATIVE_WEIGHT 40
RELATIVE_SETWIDTH 50
SUPERSCRIPT_X 0
SUPERSCRIPT_Y 0
SUPERSCRIPT_SIZE 23
SUBSCRIPT_X 0
SUBSCRIPT_Y 4
SUBSCRIPT_SIZE 23
FIGURE_WIDTH 16
AVG_LOWERCASE_WIDTH 213
AVG_UPPERCASE_WIDTH 230
ENDPROPERTIES
CHARS 12740
STARTCHAR aj231.dup1
ENCODING 32
SWIDTH 500 0
DWIDTH 16 0
BBX 1 1 0 0
BITMAP
00
ENDCHAR
STARTCHAR aj232
ENCODING 33
SWIDTH 500 0
DWIDTH 16 0
BBX 4 25 6 0
BITMAP
F0
F0
F0
F0
F0
F0
F0
F0
F0
F0
F0
F0
F0
F0
F0
70
60
60
60
00
00
00
F0
F0
F0
ENDCHAR
STARTCHAR aj233
ENCODING 34
SWIDTH 500 0
DWIDTH 16 0
BBX 11 8 2 18
BITMAP
F1E0
F1E0
F1E0
3060
70E0
60C0
C180
C180
ENDCHAR
STARTCHAR aj234
ENCODING 35
SWIDTH 500 0
DWIDTH 16 0
BBX 13 26 1 -1
BITMAP
0C60
0C60
0C60
0C60
1C60
1860
7FF8
7FF8
1860
18E0
18C0
18C0
18C0
18C0
18C0
30C0
30C0
30C0
FFF0
FFF0
3180
3180
3180
3180
7180
6180
ENDCHAR
STARTCHAR aj235
ENCODING 36
SWIDTH 500 0
DWIDTH 16 0
BBX 12 27 2 -1
BITMAP
0600
0600
1F00
3FC0
76E0
E660
C660
C670
C600
E600
7600
3E00
1E00
0780
07C0
06E0
0660
0630
C630
C630
C630
E670
7FE0
3FC0
0600
0600
0600
ENDCHAR
STARTCHAR aj236
ENCODING 37
SWIDTH 500 0
DWIDTH 16 0
BBX 14 28 1 -2
BITMAP
000C
3818
7C18
6C30
C630
C660
C660
C660
C6C0
C6C0
6D80
7D80
3B00
0300
0300
0670
06F8
0CD8
0D8C
198C
198C
318C
318C
318C
60D8
60F8
C070
C000
ENDCHAR
STARTCHAR aj237
ENCODING 38
SWIDTH 500 0
DWIDTH 16 0
BBX 13 21 1 2
BITMAP
0F80
1FC0
38E0
3060
3060
3060
30E0
19C0
1F80
0E00
1E00
3F18
6318
E398
C1D8
C0F0
C0F0
C070
60F0
3FF8
1F98
ENDCHAR
STARTCHAR aj238
ENCODING 39
SWIDTH 500 0
DWIDTH 16 0
BBX 4 8 2 18
BITMAP
F0
F0
F0
30
70
60
C0
C0
ENDCHAR
STARTCHAR aj239
ENCODING 40
SWIDTH 500 0
DWIDTH 16 0
BBX 8 28 5 -2
BITMAP
07
0E
0C
18
38
30
70
60
60
E0
C0
C0
C0
C0
C0
C0
C0
C0
C0
60
60
70
30
38
18
0C
0E
07
ENDCHAR
STARTCHAR aj240
ENCODING 41
SWIDTH 500 0
DWIDTH 16 0
BBX 8 28 3 -2
BITMAP
C0
60
30
38
18
0C
0C
06
06
06
03
03
03
03
03
03
03
03
06
06
06
0C
0C
18
18
30
60
C0
ENDCHAR
STARTCHAR aj241
ENCODING 42
SWIDTH 500 0
DWIDTH 16 0
BBX 13 15 1 4
BITMAP
0700
0700
0700
E318
F338
7A70
0EC0
0300
0E80
3AE0
F378
E738
4718
0700
0700
ENDCHAR
STARTCHAR aj242
ENCODING 43
SWIDTH 500 0
DWIDTH 16 0
BBX 12 19 2 2
BITMAP
0600
0600
0600
0600
0600
0600
0600
0600
FFF0
FFF0
0600
0600
0600
0600
0600
0600
0600
0600
0600
ENDCHAR
STARTCHAR aj243
ENCODING 44
SWIDTH 500 0
DWIDTH 16 0
BBX 5 9 2 -4
BITMAP
78
78
78
70
70
60
E0
E0
C0
ENDCHAR
STARTCHAR aj244.dup2
ENCODING 45
SWIDTH 500 0
DWIDTH 16 0
BBX 12 2 2 11
BITMAP
FFF0
FFF0
ENDCHAR
STARTCHAR aj245
ENCODING 46
SWIDTH 500 0
DWIDTH 16 0
BBX 4 4 3 0
BITMAP
F0
F0
F0
F0
ENDCHAR
STARTCHAR aj246
ENCODING 47
SWIDTH 500 0
DWIDTH 16 0
BBX 13 27 1 -2
BITMAP
0008
0018
0010
0030
0030
0020
0060
0040
00C0
0080
0180
0100
0300
0200
0600
0400
0C00
0C00
0800
1800
1000
3000
2000
6000
4000
C000
8000
ENDCHAR
STARTCHAR aj247
ENCODING 48
SWIDTH 500 0
DWIDTH 16 0
BBX 12 21 2 2
BITMAP
0F00
3FC0
31C0
60E0
60E0
C1F0
C170
C330
C230
C230
C430
C430
CC30
C830
D830
F070
7060
6060
30C0
3FC0
0F00
ENDCHAR
STARTCHAR aj248
ENCODING 49
SWIDTH 500 0
DWIDTH 16 0
BBX 5 21 4 2
BITMAP
18
38
F8
D8
18
18
18
18
18
18
18
18
18
18
18
18
18
18
18
18
18
ENDCHAR
STARTCHAR aj249
ENCODING 50
SWIDTH 500 0
DWIDTH 16 0
BBX 13 21 1 2
BITMAP
0FC0
1FE0
3870
7018
6018
6018
0018
0038
0030
0070
01E0
03C0
0780
0E00
1C00
3800
3000
7000
7000
FFF8
FFF8
ENDCHAR
STARTCHAR aj250
ENCODING 51
SWIDTH 500 0
DWIDTH 16 0
BBX 13 21 1 2
BITMAP
1F80
3FC0
7060
E030
0030
0030
0030
0070
00E0
0FC0
0FC0
0060
0030
0018
0018
0018
E018
E038
7070
3FE0
1F80
ENDCHAR
STARTCHAR aj251
ENCODING 52
SWIDTH 500 0
DWIDTH 16 0
BBX 14 21 1 2
BITMAP
00E0
00E0
01E0
03E0
0360
0760
0660
0C60
1C60
1860
3860
7060
6060
E060
FFFC
FFFC
0060
0060
0060
0060
0060
ENDCHAR
STARTCHAR aj252
ENCODING 53
SWIDTH 500 0
DWIDTH 16 0
BBX 12 21 2 2
BITMAP
7FE0
7FE0
6000
6000
E000
E000
E000
EF80
FFC0
F0E0
E060
C070
0030
0030
0030
0030
C030
E060
70E0
7FC0
1F00
ENDCHAR
STARTCHAR aj253
ENCODING 54
SWIDTH 500 0
DWIDTH 16 0
BBX 12 21 2 2
BITMAP
0F80
1FC0
38E0
7060
6070
6000
C000
C000
CF80
DFC0
F0E0
E060
C030
C030
C030
C030
4030
6060
30E0
3FC0
0F00
ENDCHAR
STARTCHAR aj254
ENCODING 55
SWIDTH 500 0
DWIDTH 16 0
BBX 12 21 2 2
BITMAP
FFF0
FFF0
0070
0060
00E0
00C0
00C0
01C0
0180
0180
0380
0300
0300
0700
0600
0600
0E00
0E00
0C00
1C00
1C00
ENDCHAR
STARTCHAR aj255
ENCODING 56
SWIDTH 500 0
DWIDTH 16 0
BBX 13 21 1 2
BITMAP
0FC0
1FE0
3870
7038
6018
6018
6018
3030
3870
0FC0
3FE0
7070
6030
C018
C018
C018
C018
E038
7070
3FE0
0F80
ENDCHAR
STARTCHAR aj256
ENCODING 57
SWIDTH 500 0
DWIDTH 16 0
BBX 12 21 2 2
BITMAP
1F00
3FC0
70C0
6060
C020
C030
C030
C030
C030
E070
70F0
3FB0
1F30
0030
0070
0060
C060
E0E0
71C0
3F80
1F00
ENDCHAR
STARTCHAR aj257
ENCODING 58
SWIDTH 500 0
DWIDTH 16 0
BBX 4 14 6 2
BITMAP
F0
F0
F0
00
00
00
00
00
00
00
00
F0
F0
F0
ENDCHAR
STARTCHAR aj258
ENCODING 59
SWIDTH 500 0
DWIDTH 16 0
BBX 5 19 5 -3
BITMAP
78
78
78
00
00
00
00
00
00
00
00
78
70
70
70
60
E0
E0
C0
ENDCHAR
STARTCHAR aj259
ENCODING 60
SWIDTH 500 0
DWIDTH 16 0
BBX 13 24 1 0
BITMAP
0008
0018
0038
0070
00E0
01C0
0380
0700
0E00
1C00
3800
7000
E000
7000
3800
1C00
0E00
0700
0380
00C0
0060
0030
0018
0008
ENDCHAR
STARTCHAR aj260
ENCODING 61
SWIDTH 500 0
DWIDTH 16 0
BBX 12 8 2 8
BITMAP
FFF0
FFF0
0000
0000
0000
0000
FFF0
FFF0
ENDCHAR
STARTCHAR aj261
ENCODING 62
SWIDTH 500 0
DWIDTH 16 0
BBX 13 24 2 0
BITMAP
8000
C000
E000
7000
3800
1C00
0E00
0700
0380
01C0
00E0
0070
0038
0070
00E0
01C0
0380
0700
0E00
1800
3000
6000
C000
8000
ENDCHAR
STARTCHAR aj262
ENCODING 63
SWIDTH 500 0
DWIDTH 16 0
BBX 12 25 2 0
BITMAP
1F80
3FC0
70E0
6070
E030
C030
C030
C070
0060
00E0
01C0
0380
0300
0600
0600
0600
0E00
0E00
0E00
0000
0000
0000
0E00
0E00
0E00
ENDCHAR
STARTCHAR aj263
ENCODING 64
SWIDTH 500 0
DWIDTH 16 0
BBX 14 23 1 0
BITMAP
07C0
1FE0
3870
3018
6018
6758
67CC
CCCC
CCCC
D8CC
D8CC
D8CC
D8CC
D8CC
D9D8
D9F8
EF70
6E00
6000
7018
3870
1FE0
0FC0
ENDCHAR
STARTCHAR aj264
ENCODING 65
SWIDTH 500 0
DWIDTH 16 0
BBX 14 21 1 2
BITMAP
0700
0780
0780
0D80
0D80
0CC0
1CC0
1CC0
18E0
18E0
3860
3860
3FF0
3FF0
7030
7030
6038
6038
E018
E018
C01C
ENDCHAR
STARTCHAR aj265
ENCODING 66
SWIDTH 500 0
DWIDTH 16 0
BBX 12 21 2 2
BITMAP
FF00
FF80
C1C0
C060
C060
C060
C060
C0C0
C1C0
FF00
FF80
C0C0
C060
C030
C030
C030
C030
C070
C0E0
FFC0
FF00
ENDCHAR
STARTCHAR aj266
ENCODING 67
SWIDTH 500 0
DWIDTH 16 0
BBX 13 21 1 2
BITMAP
0F80
1FE0
38F0
6070
6030
6038
C000
C000
C000
C000
C000
C000
C000
C000
C038
6038
6038
6070
30F0
1FE0
0F80
ENDCHAR
STARTCHAR aj267
ENCODING 68
SWIDTH 500 0
DWIDTH 16 0
BBX 13 21 1 2
BITMAP
FF00
FFC0
30E0
3070
3030
3030
3018
3018
3018
3018
3018
3018
3018
3018
3018
3030
3030
3070
30E0
FFC0
FF00
ENDCHAR
STARTCHAR aj268
ENCODING 69
SWIDTH 500 0
DWIDTH 16 0
BBX 12 21 2 2
BITMAP
FFE0
FFE0
C000
C000
C000
C000
C000
C000
C000
FFC0
FFC0
C000
C000
C000
C000
C000
C000
C000
C000
FFF0
FFF0
ENDCHAR
STARTCHAR aj269
ENCODING 70
SWIDTH 500 0
DWIDTH 16 0
BBX 11 21 2 2
BITMAP
FFE0
FFE0
C000
C000
C000
C000
C000
C000
C000
FFC0
FFC0
C000
C000
C000
C000
C000
C000
C000
C000
C000
C000
ENDCHAR
STARTCHAR aj270
ENCODING 71
SWIDTH 500 0
DWIDTH 16 0
BBX 12 21 2 2
BITMAP
0F00
1FC0
30E0
60E0
6060
4070
C000
C000
C000
C000
C000
C1F0
C1F0
C030
C070
C070
6070
60F0
31F0
3FB0
0F30
ENDCHAR
STARTCHAR aj271
ENCODING 72
SWIDTH 500 0
DWIDTH 16 0
BBX 12 21 2 2
BITMAP
C030
C030
C030
C030
C030
C030
C030
C030
C030
FFF0
FFF0
C030
C030
C030
C030
C030
C030
C030
C030
C030
C030
ENDCHAR
STARTCHAR aj272
ENCODING 73
SWIDTH 500 0
DWIDTH 16 0
BBX 9 21 3 2
BITMAP
FF80
FF80
1800
1800
1800
1800
1800
1800
1800
1800
1800
1800
1800
1800
1800
1800
1800
1800
1800
FF80
FF80
ENDCHAR
STARTCHAR aj273
ENCODING 74
SWIDTH 500 0
DWIDTH 16 0
BBX 10 21 2 2
BITMAP
00C0
00C0
00C0
00C0
00C0
00C0
00C0
00C0
00C0
00C0
00C0
00C0
00C0
00C0
00C0
C0C0
C0C0
E0C0
E180
7F80
3E00
ENDCHAR
STARTCHAR aj274
ENCODING 75
SWIDTH 500 0
DWIDTH 16 0
BBX 12 21 2 2
BITMAP
C0E0
C1C0
C1C0
C380
C700
C700
CE00
CE00
DC00
FE00
F600
F700
E300
C380
C380
C1C0
C1C0
C0C0
C0E0
C0E0
C070
ENDCHAR
STARTCHAR aj275
ENCODING 76
SWIDTH 500 0
DWIDTH 16 0
BBX 12 21 2 2
BITMAP
C000
C000
C000
C000
C000
C000
C000
C000
C000
C000
C000
C000
C000
C000
C000
C000
C000
C000
C000
FFF0
FFF0
ENDCHAR
STARTCHAR aj276
ENCODING 77
SWIDTH 500 0
DWIDTH 16 0
BBX 13 21 1 2
BITMAP
E038
E038
E078
F078
F078
F078
F078
D0D8
D8D8
D8D8
D8D8
D8D8
C998
CD98
CD98
CD98
CD98
CF18
C718
C718
C718
ENDCHAR
STARTCHAR aj277
ENCODING 78
SWIDTH 500 0
DWIDTH 16 0
BBX 12 21 2 2
BITMAP
E030
E030
F030
F030
F830
D830
DC30
CC30
CC30
CE30
C630
C730
C330
C3B0
C1B0
C1B0
C1F0
C0F0
C0F0
C070
C070
ENDCHAR
STARTCHAR aj278
ENCODING 79
SWIDTH 500 0
DWIDTH 16 0
BBX 13 21 1 2
BITMAP
0F80
1FC0
38E0
7070
6030
6030
C018
C018
C018
C018
C018
C018
C018
C018
C018
6030
6030
7070
38E0
1FC0
0F80
ENDCHAR
STARTCHAR aj279
ENCODING 80
SWIDTH 500 0
DWIDTH 16 0
BBX 11 21 2 2
BITMAP
FF00
FF80
C1C0
C0E0
C060
C060
C060
C060
C0E0
C1C0
FF80
FF00
C000
C000
C000
C000
C000
C000
C000
C000
C000
ENDCHAR
STARTCHAR aj280
ENCODING 81
SWIDTH 500 0
DWIDTH 16 0
BBX 13 23 1 0
BITMAP
0F80
1FC0
38E0
7070
6030
6030
C018
C018
C018
C018
C018
C018
C018
C018
C018
6338
63B0
61B0
38E0
1FE0
0FE0
0060
0060
ENDCHAR
STARTCHAR aj281
ENCODING 82
SWIDTH 500 0
DWIDTH 16 0
BBX 12 21 2 2
BITMAP
FF00
FF80
C1C0
C0E0
C060
C060
C060
C0E0
C1C0
FF80
FF00
C700
C700
C380
C380
C180
C1C0
C0C0
C0E0
C0E0
C070
ENDCHAR
STARTCHAR aj282
ENCODING 83
SWIDTH 500 0
DWIDTH 16 0
BBX 13 21 1 2
BITMAP
0FC0
1FE0
30F0
6030
6038
6000
6000
3000
1C00
0E00
0780
01C0
0070
0030
0018
E018
6018
7018
3878
3FF0
0FC0
ENDCHAR
STARTCHAR aj283
ENCODING 84
SWIDTH 500 0
DWIDTH 16 0
BBX 13 21 1 2
BITMAP
FFF8
FFF8
0600
0600
0600
0600
0600
0600
0600
0600
0600
0600
0600
0600
0600
0600
0600
0600
0600
0600
0600
ENDCHAR
STARTCHAR aj284
ENCODING 85
SWIDTH 500 0
DWIDTH 16 0
BBX 12 21 2 2
BITMAP
C030
C030
C030
C030
C030
C030
C030
C030
C030
C030
C030
C030
C030
C030
C030
C030
C030
E070
70E0
3FC0
1F80
ENDCHAR
STARTCHAR aj285
ENCODING 86
SWIDTH 500 0
DWIDTH 16 0
BBX 13 21 1 2
BITMAP
E018
E038
6038
7038
7030
7070
3070
3070
3860
3860
18E0
18E0
1CC0
1CC0
0CC0
0DC0
0D80
0F80
0780
0780
0780
ENDCHAR
STARTCHAR aj286
ENCODING 87
SWIDTH 500 0
DWIDTH 16 0
BBX 14 21 1 2
BITMAP
C31C
C71C
C718
C718
E718
E798
E598
6598
6D98
6D98
6CB8
6CB0
6CF0
6CF0
68F0
28F0
38F0
38F0
3870
3870
3860
ENDCHAR
STARTCHAR aj287
ENCODING 88
SWIDTH 500 0
DWIDTH 16 0
BBX 13 21 1 2
BITMAP
7030
3070
3870
38E0
18E0
1CC0
0DC0
0F80
0780
0700
0700
0780
0F80
0DC0
1CC0
18E0
3860
3870
7070
7038
E038
ENDCHAR
STARTCHAR aj288
ENCODING 89
SWIDTH 500 0
DWIDTH 16 0
BBX 12 21 2 2
BITMAP
C030
E070
6060
70E0
70E0
30C0
39C0
1980
1980
0F00
0F00
0F00
0600
0600
0600
0600
0600
0600
0600
0600
0600
ENDCHAR
STARTCHAR aj289
ENCODING 90
SWIDTH 500 0
DWIDTH 16 0
BBX 12 21 2 2
BITMAP
FFE0
FFE0
00E0
01C0
01C0
0380
0380
0300
0700
0600
0E00
0C00
1C00
1800
3800
3000
7000
6000
E000
FFF0
FFF0
ENDCHAR
STARTCHAR aj290
ENCODING 91
SWIDTH 500 0
DWIDTH 16 0
BBX 10 28 3 -2
BITMAP
FFC0
FFC0
C000
C000
C000
C000
C000
C000
C000
C000
C000
C000
C000
C000
C000
C000
C000
C000
C000
C000
C000
C000
C000
C000
C000
C000
FFC0
FFC0
ENDCHAR
STARTCHAR aj291
ENCODING 92
SWIDTH 500 0
DWIDTH 16 0
BBX 12 21 2 2
BITMAP
C030
E070
6060
70E0
30C0
1980
1980
0F00
0F00
FFF0
FFF0
0600
0600
FFF0
FFF0
0600
0600
0600
0600
0600
0600
ENDCHAR
STARTCHAR aj292
ENCODING 93
SWIDTH 500 0
DWIDTH 16 0
BBX 9 28 3 -2
BITMAP
FF80
FF80
0180
0180
0180
0180
0180
0180
0180
0180
0180
0180
0180
0180
0180
0180
0180
0180
0180
0180
0180
0180
0180
0180
0180
0180
FF80
FF80
ENDCHAR
STARTCHAR aj293
ENCODING 94
SWIDTH 500 0
DWIDTH 16 0
BBX 10 4 3 20
BITMAP
1E00
3F00
6380
C0C0
ENDCHAR
STARTCHAR aj294
ENCODING 95
SWIDTH 500 0
DWIDTH 16 0
BBX 16 1 0 -4
BITMAP
FFFF
ENDCHAR
STARTCHAR aj390
ENCODING 96
SWIDTH 500 0
DWIDTH 16 0
BBX 7 4 4 20
BITMAP
F0
38
1C
0E
ENDCHAR
STARTCHAR aj296
ENCODING 97
SWIDTH 500 0
DWIDTH 16 0
BBX 12 14 2 2
BITMAP
1F80
3FC0
70E0
6060
0060
03E0
1FE0
7860
E060
C060
C0E0
E1E0
7FF0
3E70
ENDCHAR
STARTCHAR aj297
ENCODING 98
SWIDTH 500 0
DWIDTH 16 0
BBX 11 21 2 2
BITMAP
C000
C000
C000
C000
C000
C000
C000
CF00
FF80
F1C0
E0C0
C060
C060
C060
C060
C060
C060
E0C0
F1C0
FF80
CF00
ENDCHAR
STARTCHAR aj298
ENCODING 99
SWIDTH 500 0
DWIDTH 16 0
BBX 12 14 2 2
BITMAP
1F00
3FC0
70E0
6060
C000
C000
C000
C000
C000
C070
6060
70E0
3FC0
1F00
ENDCHAR
STARTCHAR aj299
ENCODING 100
SWIDTH 500 0
DWIDTH 16 0
BBX 11 21 2 2
BITMAP
0060
0060
0060
0060
0060
0060
0060
1E60
3FE0
71E0
60E0
C060
C060
C060
C060
C060
C060
E0E0
71E0
7FE0
1E60
ENDCHAR
STARTCHAR aj300
ENCODING 101
SWIDTH 500 0
DWIDTH 16 0
BBX 12 14 2 2
BITMAP
1F00
3FC0
71C0
60E0
E060
C060
FFF0
FFF0
C000
C000
6060
70E0
3FC0
1F80
ENDCHAR
STARTCHAR aj301
ENCODING 102
SWIDTH 500 0
DWIDTH 16 0
BBX 11 21 2 2
BITMAP
07E0
0FE0
0C00
0C00
0C00
0C00
0C00
FFE0
FFE0
0C00
0C00
0C00
0C00
0C00
0C00
0C00
0C00
0C00
0C00
0C00
0C00
ENDCHAR
STARTCHAR aj302
ENCODING 103
SWIDTH 500 0
DWIDTH 16 0
BBX 11 19 2 -3
BITMAP
1F60
3FE0
70E0
E0E0
C060
C060
C060
C060
E0E0
71E0
3FE0
1F60
0060
0060
C060
E0E0
70C0
7FC0
1F00
ENDCHAR
STARTCHAR aj303
ENCODING 104
SWIDTH 500 0
DWIDTH 16 0
BBX 11 21 2 2
BITMAP
C000
C000
C000
C000
C000
C000
C000
CF80
FFC0
F0E0
E060
C060
C060
C060
C060
C060
C060
C060
C060
C060
C060
ENDCHAR
STARTCHAR aj304
ENCODING 105
SWIDTH 500 0
DWIDTH 16 0
BBX 3 21 6 2
BITMAP
E0
E0
E0
00
00
00
00
60
60
60
60
60
60
60
60
60
60
60
60
60
60
ENDCHAR
STARTCHAR aj305
ENCODING 106
SWIDTH 500 0
DWIDTH 16 0
BBX 7 26 3 -3
BITMAP
0E
0E
0E
00
00
00
00
06
06
06
06
06
06
06
06
06
06
06
06
06
06
06
06
06
FE
FC
ENDCHAR
STARTCHAR aj306
ENCODING 107
SWIDTH 500 0
DWIDTH 16 0
BBX 11 21 2 2
BITMAP
C000
C000
C000
C000
C000
C000
C000
C1C0
C380
C700
CE00
DC00
FC00
FE00
E600
C700
C380
C180
C1C0
C0E0
C0E0
ENDCHAR
STARTCHAR aj307
ENCODING 108
SWIDTH 500 0
DWIDTH 16 0
BBX 6 21 7 2
BITMAP
C0
C0
C0
C0
C0
C0
C0
C0
C0
C0
C0
C0
C0
C0
C0
C0
C0
C0
C0
FC
7C
ENDCHAR
STARTCHAR aj308
ENCODING 109
SWIDTH 500 0
DWIDTH 16 0
BBX 13 14 1 2
BITMAP
DEF0
FFF8
E398
C318
C318
C318
C318
C318
C318
C318
C318
C318
C318
C318
ENDCHAR
STARTCHAR aj309
ENCODING 110
SWIDTH 500 0
DWIDTH 16 0
BBX 11 14 2 2
BITMAP
CF80
FFC0
F0E0
E060
C060
C060
C060
C060
C060
C060
C060
C060
C060
C060
ENDCHAR
STARTCHAR aj310
ENCODING 111
SWIDTH 500 0
DWIDTH 16 0
BBX 12 14 2 2
BITMAP
0F00
3FC0
70E0
6060
C070
C030
C030
C030
C030
C030
6060
70E0
3FC0
1F80
ENDCHAR
STARTCHAR aj311
ENCODING 112
SWIDTH 500 0
DWIDTH 16 0
BBX 11 19 2 -3
BITMAP
CF00
FF80
F1C0
E0C0
C060
C060
C060
C060
C060
C060
E0C0
F1C0
FF80
CF00
C000
C000
C000
C000
C000
ENDCHAR
STARTCHAR aj312
ENCODING 113
SWIDTH 500 0
DWIDTH 16 0
BBX 11 19 2 -3
BITMAP
1E60
3FE0
71E0
60E0
C060
C060
C060
C060
C060
C060
60E0
71E0
3FE0
1E60
0060
0060
0060
0060
0060
ENDCHAR
STARTCHAR aj313
ENCODING 114
SWIDTH 500 0
DWIDTH 16 0
BBX 8 14 5 2
BITMAP
C7
CF
FC
F0
E0
C0
C0
C0
C0
C0
C0
C0
C0
C0
ENDCHAR
STARTCHAR aj314
ENCODING 115
SWIDTH 500 0
DWIDTH 16 0
BBX 12 14 2 2
BITMAP
1F80
7FC0
E0E0
C000
C000
7800
1F00
03C0
0060
0030
C030
F070
7FE0
1F80
ENDCHAR
STARTCHAR aj315
ENCODING 116
SWIDTH 500 0
DWIDTH 16 0
BBX 9 18 3 2
BITMAP
1800
1800
1800
1800
FF80
FF80
1800
1800
1800
1800
1800
1800
1800
1800
1800
1800
1F80
0F80
ENDCHAR
STARTCHAR aj316
ENCODING 117
SWIDTH 500 0
DWIDTH 16 0
BBX 11 14 2 2
BITMAP
C060
C060
C060
C060
C060
C060
C060
C060
C060
C060
C0E0
E1E0
7FE0
3E60
ENDCHAR
STARTCHAR aj317
ENCODING 118
SWIDTH 500 0
DWIDTH 16 0
BBX 12 14 2 2
BITMAP
C070
E060
E060
60E0
70C0
30C0
31C0
3980
1980
1B80
1B00
0F00
0F00
0E00
ENDCHAR
STARTCHAR aj318
ENCODING 119
SWIDTH 500 0
DWIDTH 16 0
BBX 13 14 1 2
BITMAP
C718
C718
C718
E798
6598
6D98
6D98
6CB0
6CF0
68F0
38F0
38F0
3870
3860
ENDCHAR
STARTCHAR aj319
ENCODING 120
SWIDTH 500 0
DWIDTH 16 0
BBX 12 14 2 2
BITMAP
60E0
70C0
39C0
1B80
1F00
0F00
0E00
0F00
1F80
3980
31C0
70E0
E0E0
E070
ENDCHAR
STARTCHAR aj320
ENCODING 121
SWIDTH 500 0
DWIDTH 16 0
BBX 12 19 2 -3
BITMAP
E030
6070
7070
3060
30E0
38E0
18C0
19C0
1D80
0D80
0F80
0700
0700
0700
0600
0600
0E00
7C00
7800
ENDCHAR
STARTCHAR aj321
ENCODING 122
SWIDTH 500 0
DWIDTH 16 0
BBX 11 14 2 2
BITMAP
7FE0
7FE0
00C0
01C0
0380
0700
0E00
0E00
1C00
3800
7000
F000
FFE0
FFE0
ENDCHAR
STARTCHAR aj322
ENCODING 123
SWIDTH 500 0
DWIDTH 16 0
BBX 8 28 5 -2
BITMAP
01
0F
0E
18
18
18
18
18
18
18
18
18
38
F0
E0
70
18
18
18
18
18
18
18
18
18
1C
0F
07
ENDCHAR
STARTCHAR aj323
ENCODING 124
SWIDTH 500 0
DWIDTH 16 0
BBX 2 31 7 -4
BITMAP
C0
C0
C0
C0
C0
C0
C0
C0
C0
C0
C0
C0
C0
C0
C0
C0
C0
C0
C0
C0
C0
C0
C0
C0
C0
C0
C0
C0
C0
C0
C0
ENDCHAR
STARTCHAR aj324
ENCODING 125
SWIDTH 500 0
DWIDTH 16 0
BBX 7 28 3 -2
BITMAP
80
E0
70
30
30
30
30
30
30
30
30
30
38
1E
1E
1C
38
30
30
30
30
30
30
30
30
70
E0
C0
ENDCHAR
STARTCHAR aj631.dup3
ENCODING 126
SWIDTH 500 0
DWIDTH 16 0
BBX 10 3 3 20
BITMAP
7800
FFC0
0780
ENDCHAR
STARTCHAR aj231
ENCODING 160
SWIDTH 500 0
DWIDTH 16 0
BBX 1 1 0 0
BITMAP
00
ENDCHAR
STARTCHAR aj612
ENCODING 161
SWIDTH 500 0
DWIDTH 16 0
BBX 4 25 6 0
BITMAP
F0
F0
F0
00
00
00
00
60
60
60
E0
F0
F0
F0
F0
F0
F0
F0
F0
F0
F0
F0
F0
F0
F0
ENDCHAR
STARTCHAR aj713.dup4
ENCODING 162
BBX 15 23 8 1
BITMAP
0030
0030
0070
0060
0FE0
1FF8
38F8
70DC
E1CC
C180
C180
C300
C300
C700
E60E
661C
7E3C
3FF8
0FE0
1800
1800
3800
3000
ENDCHAR
STARTCHAR aj714.dup5
ENCODING 163
BBX 21 23 5 1
BITMAP
007C00
00FE00
018700
030380
030380
030180
030000
030000
038000
3FFF00
3FFF00
00C000
00C000
006000
006000
3E6000
7FE000
E3E018
C0E038
C1F030
E3B870
7F1FE0
3E0780
ENDCHAR
STARTCHAR aj107.hw
ENCODING 164
SWIDTH 500 0
DWIDTH 16 0
BBX 10 11 3 7
BITMAP
0040
80C0
7F80
6300
8080
8080
8080
4080
6100
DE80
8040
ENDCHAR
STARTCHAR aj711.dup6
ENCODING 165
BBX 18 21 7 2
BITMAP
E001C0
700380
700700
380E00
1C1E00
0E1C00
0E3800
077000
FFFFC0
FFFFC0
01C000
01C000
01C000
FFFFC0
FFFFC0
01C000
01C000
01C000
01C000
01C000
01C000
ENDCHAR
STARTCHAR aj93.hw
ENCODING 166
SWIDTH 500 0
DWIDTH 16 0
BBX 2 28 7 -2
BITMAP
C0
C0
C0
C0
C0
C0
C0
C0
C0
C0
C0
C0
C0
00
00
00
C0
C0
C0
C0
C0
C0
C0
C0
C0
C0
C0
C0
ENDCHAR
STARTCHAR aj720
ENCODING 167
BBX 13 28 9 -2
BITMAP
0F80
1FE0
30F0
6070
6030
6038
6000
7000
3C00
3F00
77C0
61E0
C070
C038
C018
7018
3838
1F70
07E0
01E0
0060
0030
E030
E030
6030
7060
3FE0
1F80
ENDCHAR
STARTCHAR aj647
ENCODING 168
BBX 11 3 10 20
BITMAP
E0E0
E0E0
E0E0
ENDCHAR
STARTCHAR aj152.hw
ENCODING 169
SWIDTH 500 0
DWIDTH 16 0
BBX 14 14 1 5
BITMAP
0F80
1860
3010
4F88
D8C4
B044
B004
B004
B064
98C8
4F98
2030
1060
0F80
ENDCHAR
STARTCHAR aj20320.hw
ENCODING 170
SWIDTH 500 0
DWIDTH 16 0
BBX 9 12 2 11
BITMAP
7C00
C600
0600
3E00
E600
C600
C600
CE00
7780
0000
0000
FF80
ENDCHAR
STARTCHAR aj508
ENCODING 171
SWIDTH 500 0
DWIDTH 16 0
BBX 10 13 3 2
BITMAP
0CC0
18C0
1980
3300
6300
6600
CC00
6600
6300
3300
1980
18C0
0C40
ENDCHAR
STARTCHAR aj751.dup7
ENCODING 172
BBX 26 13 2 5
BITMAP
FFFFFFC0
FFFFFFC0
000000C0
000000C0
000000C0
000000C0
000000C0
000000C0
000000C0
000000C0
000000C0
000000C0
000000C0
ENDCHAR
STARTCHAR aj244
ENCODING 173
SWIDTH 500 0
DWIDTH 16 0
BBX 12 2 2 11
BITMAP
FFF0
FFF0
ENDCHAR
STARTCHAR aj154.hw
ENCODING 174
SWIDTH 500 0
DWIDTH 16 0
BBX 14 15 1 4
BITMAP
0F80
1860
3010
5FC8
5868
9864
9FC4
9984
9884
98C4
5868
5878
2030
1060
07C0
ENDCHAR
STARTCHAR aj325
ENCODING 175
SWIDTH 500 0
DWIDTH 16 0
BBX 11 1 2 22
BITMAP
FFE0
ENDCHAR
STARTCHAR aj707
ENCODING 176
BBX 7 7 2 19
BITMAP
38
44
82
82
82
44
38
ENDCHAR
STARTCHAR aj694
ENCODING 177
BBX 21 22 5 1
BITMAP
006000
006000
006000
006000
006000
006000
006000
FFFFF8
FFFFF8
006000
006000
006000
006000
006000
006000
006000
006000
000000
000000
000000
FFFFF8
FFFFF8
ENDCHAR
STARTCHAR aj157.hw
ENCODING 178
SWIDTH 500 0
DWIDTH 16 0
BBX 8 11 1 16
BITMAP
3C
63
63
43
07
0E
1C
38
70
60
FF
ENDCHAR
STARTCHAR aj158.hw
ENCODING 179
SWIDTH 500 0
DWIDTH 16 0
BBX 7 12 2 15
BITMAP
3C
C6
C6
06
0C
38
3C
06
06
86
CC
78
ENDCHAR
STARTCHAR aj645
ENCODING 180
BBX 7 4 12 20
BITMAP
1E
3C
70
E0
ENDCHAR
STARTCHAR aj778
ENCODING 182
BBX 12 28 8 -2
BITMAP
1FF0
3E30
7E30
FE30
FE30
FE30
FE30
FE30
7E30
3E30
0E30
0630
0630
0630
0630
0630
0630
0630
0630
0630
0630
0630
0630
0630
0630
0630
0630
0630
ENDCHAR
STARTCHAR aj331.dup8
ENCODING 183
SWIDTH 500 0
DWIDTH 16 0
BBX 4 4 6 10
BITMAP
F0
F0
F0
F0
ENDCHAR
STARTCHAR aj134.hw
ENCODING 184
SWIDTH 500 0
DWIDTH 16 0
BBX 7 6 4 -1
BITMAP
60
40
FC
06
06
FC
ENDCHAR
STARTCHAR aj160.hw
ENCODING 185
SWIDTH 500 0
DWIDTH 16 0
BBX 4 10 3 16
BITMAP
30
F0
B0
30
30
30
30
30
30
30
ENDCHAR
STARTCHAR aj20319.hw
ENCODING 186
SWIDTH 500 0
DWIDTH 16 0
BBX 9 12 2 11
BITMAP
3E00
7F00
6300
C180
C180
C180
C180
6300
7F00
3E00
0000
FF80
ENDCHAR
STARTCHAR aj509
ENCODING 187
SWIDTH 500 0
DWIDTH 16 0
BBX 11 13 2 2
BITMAP
CC00
6600
6300
3100
1980
08C0
0C60
0CC0
1980
3300
6300
6600
CC00
ENDCHAR
STARTCHAR aj161.hw
ENCODING 188
SWIDTH 500 0
DWIDTH 16 0
BBX 15 28 0 -2
BITMAP
0C0C
7C0C
6C18
0C18
0C10
0C30
0C20
0C60
0C40
0CC0
0CC0
0D80
0D80
0D00
0338
0238
0678
0678
0C58
0CD8
1898
1998
1118
3318
33FE
6018
6018
C018
ENDCHAR
STARTCHAR aj162.hw
ENCODING 189
SWIDTH 500 0
DWIDTH 16 0
BBX 15 28 0 -2
BITMAP
0C0C
7C08
6C18
0C18
0C10
0C30
0C20
0C60
0C40
0CC0
0CC0
0D80
0D80
0D00
0338
027C
06C6
06C6
0CC6
0C06
080C
181C
1038
3070
2060
60E0
60C0
C0FE
ENDCHAR
STARTCHAR aj163.hw
ENCODING 190
SWIDTH 500 0
DWIDTH 16 0
BBX 14 28 1 -2
BITMAP
3800
7C08
C618
C618
0630
0C30
3820
0C60
0640
06C0
C680
C780
7D80
3D00
0370
0270
06F0
04F0
0CB0
0DB0
0930
1B30
1230
3630
27FC
6030
6030
4030
ENDCHAR
STARTCHAR aj613
ENCODING 191
SWIDTH 500 0
DWIDTH 16 0
BBX 12 25 1 0
BITMAP
0700
0700
0700
0000
0000
0000
0000
0700
0700
0700
0600
0600
0E00
0C00
1800
3000
6000
E000
C030
C030
C070
E070
70E0
3FC0
1F80
ENDCHAR
STARTCHAR aj164.hw
ENCODING 192
SWIDTH 500 0
DWIDTH 16 0
BBX 14 25 1 2
BITMAP
0E00
0700
0300
0000
0700
0780
0780
0D80
0D80
0CC0
1CC0
1CC0
18E0
18E0
3860
3860
3FF0
3FF0
7030
7030
6038
6038
E018
E018
C01C
ENDCHAR
STARTCHAR aj165.hw
ENCODING 193
SWIDTH 500 0
DWIDTH 16 0
BBX 14 25 1 2
BITMAP
0180
0300
0600
0000
0700
0780
0780
0D80
0D80
0CC0
1CC0
1CC0
18E0
18E0
3860
3860
3FF0
3FF0
7030
7030
6038
6038
E018
E018
C01C
ENDCHAR
STARTCHAR aj166.hw
ENCODING 194
SWIDTH 500 0
DWIDTH 16 0
BBX 14 25 1 2
BITMAP
0700
0D80
1840
0000
0700
0780
0780
0D80
0D80
0CC0
1CC0
1CC0
18E0
18E0
3860
3860
3FF0
3FF0
7030
7030
6038
6038
E018
E018
C01C
ENDCHAR
STARTCHAR aj167.hw
ENCODING 195
SWIDTH 500 0
DWIDTH 16 0
BBX 13 25 1 2
BITMAP
0C00
1240
01C0
0000
0700
0700
0D80
0D80
0D80
1D80
1CC0
18C0
18C0
38E0
38E0
3060
3FE0
7FF0
7070
6030
6030
E038
E038
C018
C018
ENDCHAR
STARTCHAR aj599
ENCODING 196
SWIDTH 500 0
DWIDTH 16 0
BBX 15 25 0 2
BITMAP
1C70
1C70
0000
0000
0380
0380
06C0
06C0
06C0
06C0
0EE0
0C60
0C60
1C70
1C70
1830
1FF0
3FF8
3838
3018
3018
701C
701C
600C
E00E
ENDCHAR
STARTCHAR aj169.hw
ENCODING 197
SWIDTH 500 0
DWIDTH 16 0
BBX 14 25 1 2
BITMAP
0300
0C80
0880
0880
0700
0780
0780
0D80
0D80
0DC0
0CC0
1CC0
18E0
18E0
3860
3860
3FF0
3FF0
7030
7030
6038
6038
E018
E018
C01C
ENDCHAR
STARTCHAR aj139.hw
ENCODING 198
SWIDTH 500 0
DWIDTH 16 0
BBX 14 21 1 2
BITMAP
07F8
07F8
0780
0780
0D80
0D80
0D80
1D80
1980
19F8
19F8
3980
3F80
3F80
3180
7180
6180
6180
6180
E1FC
E1FC
ENDCHAR
STARTCHAR aj605
ENCODING 199
SWIDTH 500 0
DWIDTH 16 0
BBX 13 27 1 -4
BITMAP
0F80
1FE0
30E0
6070
6030
6030
C000
C000
C000
C000
C000
C000
C000
C000
C038
C030
6030
6070
7070
3FE0
1FC0
0700
0400
0F00
0180
0180
0F00
ENDCHAR
STARTCHAR aj171.hw
ENCODING 200
SWIDTH 500 0
DWIDTH 16 0
BBX 12 25 2 2
BITMAP
1800
0C00
0600
0000
FFE0
FFE0
C000
C000
C000
C000
C000
C000
C000
FFC0
FFC0
C000
C000
C000
C000
C000
C000
C000
C000
FFF0
FFF0
ENDCHAR
STARTCHAR aj172.hw
ENCODING 201
SWIDTH 500 0
DWIDTH 16 0
BBX 12 25 2 2
BITMAP
0700
0E00
0C00
0000
FFE0
FFE0
C000
C000
C000
C000
C000
C000
C000
FFC0
FFC0
C000
C000
C000
C000
C000
C000
C000
C000
FFF0
FFF0
ENDCHAR
STARTCHAR aj173.hw
ENCODING 202
SWIDTH 500 0
DWIDTH 16 0
BBX 12 25 2 2
BITMAP
0E00
1B00
2180
0000
FFE0
FFE0
C000
C000
C000
C000
C000
C000
C000
FFC0
FFC0
C000
C000
C000
C000
C000
C000
C000
C000
FFF0
FFF0
ENDCHAR
STARTCHAR aj174.hw
ENCODING 203
SWIDTH 500 0
DWIDTH 16 0
BBX 12 25 2 2
BITMAP
71C0
71C0
0000
0000
FFE0
FFE0
C000
C000
C000
C000
C000
C000
C000
FFC0
FFC0
C000
C000
C000
C000
C000
C000
C000
C000
FFF0
FFF0
ENDCHAR
STARTCHAR aj175.hw
ENCODING 204
SWIDTH 500 0
DWIDTH 16 0
BBX 3 25 5 2
BITMAP
C0
60
20
00
60
60
60
60
60
60
60
60
60
60
60
60
60
60
60
60
60
60
60
60
60
ENDCHAR
STARTCHAR aj176.hw
ENCODING 205
SWIDTH 500 0
DWIDTH 16 0
BBX 3 25 6 2
BITMAP
60
C0
80
00
C0
C0
C0
C0
C0
C0
C0
C0
C0
C0
C0
C0
C0
C0
C0
C0
C0
C0
C0
C0
C0
ENDCHAR
STARTCHAR aj177.hw
ENCODING 206
SWIDTH 500 0
DWIDTH 16 0
BBX 6 25 4 2
BITMAP
30
78
84
00
30
30
30
30
30
30
30
30
30
30
30
30
30
30
30
30
30
30
30
30
30
ENDCHAR
STARTCHAR aj178.hw
ENCODING 207
SWIDTH 500 0
DWIDTH 16 0
BBX 9 25 3 2
BITMAP
E380
E380
0000
0000
1800
1800
1800
1800
1800
1800
1800
1800
1800
1800
1800
1800
1800
1800
1800
1800
1800
1800
1800
1800
1800
ENDCHAR
STARTCHAR aj179.hw
ENCODING 208
SWIDTH 500 0
DWIDTH 16 0
BBX 13 21 1 2
BITMAP
7F00
7FC0
61E0
6060
6030
6030
6018
6018
6018
FE18
6018
6018
6018
6018
6038
6030
6030
6060
61E0
7FC0
7F00
ENDCHAR
STARTCHAR aj606
ENCODING 209
SWIDTH 500 0
DWIDTH 16 0
BBX 12 25 2 2
BITMAP
1800
2480
0380
0000
E030
E030
F030
F030
F830
D830
DC30
DC30
CC30
CE30
C630
C730
C730
C3B0
C3B0
C3B0
C1F0
C1F0
C0F0
C0F0
C0F0
ENDCHAR
STARTCHAR aj181.hw
ENCODING 210
SWIDTH 500 0
DWIDTH 16 0
BBX 13 25 1 2
BITMAP
0E00
0700
0300
0000
0F80
1FC0
38E0
7070
6030
6030
C018
C018
C018
C018
C018
C018
C018
C018
C018
6030
6030
7070
38E0
1FC0
0F80
ENDCHAR
STARTCHAR aj182.hw
ENCODING 211
SWIDTH 500 0
DWIDTH 16 0
BBX 13 25 1 2
BITMAP
0180
0300
0600
0000
0F80
1FC0
38E0
7070
6030
6030
C018
C018
C018
C018
C018
C018
C018
C018
C018
6030
6030
7070
38E0
1FC0
0F80
ENDCHAR
STARTCHAR aj183.hw
ENCODING 212
SWIDTH 500 0
DWIDTH 16 0
BBX 13 25 1 2
BITMAP
0700
0D80
1840
0000
0F80
1FC0
38E0
7070
6030
6030
C018
C018
C018
C018
C018
C018
C018
C018
C018
6030
6030
7070
38E0
1FC0
0F80
ENDCHAR
STARTCHAR aj184.hw
ENCODING 213
SWIDTH 500 0
DWIDTH 16 0
BBX 13 25 1 2
BITMAP
0C00
1240
01C0
0000
0F80
1FC0
38E0
7070
6030
6030
C018
C018
C018
C018
C018
C018
C018
C018
C018
6030
6030
7070
38E0
1FC0
0F80
ENDCHAR
STARTCHAR aj615
ENCODING 214
SWIDTH 500 0
DWIDTH 16 0
BBX 13 25 1 2
BITMAP
38E0
38E0
0000
0000
0F80
1FC0
38E0
7070
6030
6030
C018
C018
C018
C018
C018
C018
C018
C018
C018
6030
6030
7070
38E0
1FC0
0F80
ENDCHAR
STARTCHAR aj695
ENCODING 215
BBX 19 19 6 2
BITMAP
E00060
E000E0
7001C0
380380
1C0700
0E0E00
071C00
03B800
01F000
01F000
03F800
07BC00
0F1E00
1E0F00
3C0780
7803C0
F001E0
E000E0
400040
ENDCHAR
STARTCHAR aj632
ENCODING 216
SWIDTH 500 0
DWIDTH 16 0
BBX 13 25 1 0
BITMAP
0008
0018
0F90
1FF0
38E0
6070
6070
60F8
C098
C198
C118
C318
C218
C218
C418
C418
EC18
6830
7830
7030
3860
3FC0
6F80
4000
4000
ENDCHAR
STARTCHAR aj187.hw
ENCODING 217
SWIDTH 500 0
DWIDTH 16 0
BBX 12 25 2 2
BITMAP
1C00
0E00
0300
0000
C030
C030
C030
C030
C030
C030
C030
C030
C030
C030
C030
C030
C030
C030
C030
C030
C030
E070
70E0
3FC0
1F80
ENDCHAR
STARTCHAR aj188.hw
ENCODING 218
SWIDTH 500 0
DWIDTH 16 0
BBX 12 25 2 2
BITMAP
0380
0700
0C00
0000
C030
C030
C030
C030
C030
C030
C030
C030
C030
C030
C030
C030
C030
C030
C030
C030
C030
E070
70E0
3FC0
1F80
ENDCHAR
STARTCHAR aj189.hw
ENCODING 219
SWIDTH 500 0
DWIDTH 16 0
BBX 12 25 2 2
BITMAP
0F00
1980
30C0
0000
C030
C030
C030
C030
C030
C030
C030
C030
C030
C030
C030
C030
C030
C030
C030
C030
C030
E070
70E0
3FC0
1F80
ENDCHAR
STARTCHAR aj616
ENCODING 220
SWIDTH 500 0
DWIDTH 16 0
BBX 12 25 2 2
BITMAP
71C0
71C0
0000
0000
C030
C030
C030
C030
C030
C030
C030
C030
C030
C030
C030
C030
C030
C030
C030
C030
C030
E070
70E0
3FC0
1F80
ENDCHAR
STARTCHAR aj191.hw
ENCODING 221
SWIDTH 500 0
DWIDTH 16 0
BBX 12 25 2 2
BITMAP
0300
0600
0400
0000
C030
E070
6060
70E0
70E0
30C0
39C0
1980
1980
0F00
0F00
0F00
0600
0600
0600
0600
0600
0600
0600
0600
0600
ENDCHAR
STARTCHAR aj192.hw
ENCODING 222
SWIDTH 500 0
DWIDTH 16 0
BBX 11 21 2 2
BITMAP
C000
C000
C000
C000
FF00
FF80
C1C0
C0E0
C060
C060
C060
C060
C0E0
C1C0
FF80
FF00
C000
C000
C000
C000
C000
ENDCHAR
STARTCHAR aj603
ENCODING 223
SWIDTH 500 0
DWIDTH 16 0
BBX 12 21 2 2
BITMAP
1F00
7FC0
60C0
C060
C060
C060
C0E0
C1C0
CF00
CF80
C1C0
C060
C030
C030
C030
C030
C030
C070
C0E0
CFC0
CF80
ENDCHAR
STARTCHAR aj627
ENCODING 224
SWIDTH 500 0
DWIDTH 16 0
BBX 12 19 2 2
BITMAP
0C00
0300
0000
0000
0000
1F80
3FC0
70E0
6060
0060
03E0
1FE0
7860
E060
C060
C0E0
E1E0
7FF0
3E70
ENDCHAR
STARTCHAR aj630
ENCODING 225
SWIDTH 500 0
DWIDTH 16 0
BBX 12 19 2 2
BITMAP
0300
0600
0000
0000
0000
1F80
3FC0
70E0
6060
0060
03E0
1FE0
7860
E060
C060
C0E0
E1E0
7FF0
3E70
ENDCHAR
STARTCHAR aj622
ENCODING 226
SWIDTH 500 0
DWIDTH 16 0
BBX 12 19 2 2
BITMAP
0F00
18C0
0000
0000
0000
1F80
3FC0
70E0
6060
0060
03E0
1FE0
7860
E060
C060
C0E0
E1E0
7FF0
3E70
ENDCHAR
STARTCHAR aj196.hw
ENCODING 227
SWIDTH 500 0
DWIDTH 16 0
BBX 12 19 2 2
BITMAP
3C00
2680
0300
0000
0000
1F80
7FC0
E0E0
E060
0060
03E0
1FE0
7860
E060
C060
C0E0
E1E0
7FF0
3E70
ENDCHAR
STARTCHAR aj617
ENCODING 228
SWIDTH 500 0
DWIDTH 16 0
BBX 12 19 2 2
BITMAP
71C0
71C0
0000
0000
0000
1F80
7FC0
E0E0
E060
0060
03E0
1FE0
7860
E060
C060
C0E0
E1E0
7FF0
3E70
ENDCHAR
STARTCHAR aj198.hw
ENCODING 229
SWIDTH 500 0
DWIDTH 16 0
BBX 12 21 2 2
BITMAP
0600
0900
0900
0900
0600
0000
0000
1F80
3FC0
70E0
6060
0060
03E0
1FE0
7860
E060
C060
C0E0
E1E0
7FF0
3E70
ENDCHAR
STARTCHAR aj145.hw
ENCODING 230
SWIDTH 500 0
DWIDTH 16 0
BBX 13 14 2 2
BITMAP
39E0
7FF0
C730
C630
0638
0618
0FF8
3600
6600
C618
C618
C730
FFF0
7DE0
ENDCHAR
STARTCHAR aj604
ENCODING 231
SWIDTH 500 0
DWIDTH 16 0
BBX 12 20 2 -4
BITMAP
0F80
3FC0
70E0
6070
C000
C000
C000
C000
C000
C070
E070
70E0
7FE0
3FC0
0600
0400
0F00
0180
0180
0F00
ENDCHAR
STARTCHAR aj628
ENCODING 232
SWIDTH 500 0
DWIDTH 16 0
BBX 12 19 2 2
BITMAP
1C00
0600
0000
0000
0000
1F00
3FC0
71C0
60E0
E060
C060
FFF0
FFF0
C000
C000
6060
70E0
3FC0
1F80
ENDCHAR
STARTCHAR aj601
ENCODING 233
SWIDTH 500 0
DWIDTH 16 0
BBX 12 19 2 2
BITMAP
0300
0C00
0000
0000
0000
1F00
3FC0
71C0
60E0
E060
C060
FFF0
FFF0
C000
C000
6060
70E0
3FC0
1F80
ENDCHAR
STARTCHAR aj623
ENCODING 234
SWIDTH 500 0
DWIDTH 16 0
BBX 12 19 2 2
BITMAP
0F00
3180
0000
0000
0000
1F00
3FC0
71C0
60E0
E060
C060
FFF0
FFF0
C000
C000
6060
70E0
3FC0
1F80
ENDCHAR
STARTCHAR aj618
ENCODING 235
SWIDTH 500 0
DWIDTH 16 0
BBX 11 19 2 2
BITMAP
71C0
71C0
0000
0000
0000
1F00
3F80
71C0
60E0
C060
C060
FFE0
FFE0
C000
C000
6060
70E0
3FC0
1F00
ENDCHAR
STARTCHAR aj205.hw
ENCODING 236
SWIDTH 500 0
DWIDTH 16 0
BBX 4 19 5 2
BITMAP
E0
30
00
00
00
30
30
30
30
30
30
30
30
30
30
30
30
30
30
ENDCHAR
STARTCHAR aj602
ENCODING 237
SWIDTH 500 0
DWIDTH 16 0
BBX 4 19 7 2
BITMAP
70
C0
00
00
00
C0
C0
C0
C0
C0
C0
C0
C0
C0
C0
C0
C0
C0
C0
ENDCHAR
STARTCHAR aj624
ENCODING 238
SWIDTH 500 0
DWIDTH 16 0
BBX 6 19 5 2
BITMAP
78
CC
00
00
00
30
30
30
30
30
30
30
30
30
30
30
30
30
30
ENDCHAR
STARTCHAR aj619
ENCODING 239
SWIDTH 500 0
DWIDTH 16 0
BBX 9 19 3 2
BITMAP
E380
E380
0000
0000
0000
0C00
0C00
0C00
0C00
0C00
0C00
0C00
0C00
0C00
0C00
0C00
0C00
0C00
0C00
ENDCHAR
STARTCHAR aj208.hw
ENCODING 240
SWIDTH 500 0
DWIDTH 16 0
BBX 12 24 2 1
BITMAP
1000
1880
1D80
0F00
0F00
1B80
11C0
00C0
00E0
0F60
3FE0
70F0
6070
E070
C030
C030
C030
C030
C070
C060
60E0
71E0
3FC0
0F00
ENDCHAR
STARTCHAR aj607
ENCODING 241
SWIDTH 500 0
DWIDTH 16 0
BBX 11 19 2 2
BITMAP
3C00
2680
0300
0000
0000
CF80
FFC0
F0E0
E060
C060
C060
C060
C060
C060
C060
C060
C060
C060
C060
ENDCHAR
STARTCHAR aj210.hw
ENCODING 242
SWIDTH 500 0
DWIDTH 16 0
BBX 12 19 2 2
BITMAP
1C00
0600
0000
0000
0000
0F00
3FC0
70E0
6060
C070
C030
C030
C030
C030
C030
6060
70E0
3FC0
1F80
ENDCHAR
STARTCHAR aj610
ENCODING 243
SWIDTH 500 0
DWIDTH 16 0
BBX 12 19 2 2
BITMAP
0300
0C00
0000
0000
0000
0F00
3FC0
70E0
6060
C070
C030
C030
C030
C030
C030
6060
70E0
3FC0
1F80
ENDCHAR
STARTCHAR aj625
ENCODING 244
SWIDTH 500 0
DWIDTH 16 0
BBX 12 19 2 2
BITMAP
0F00
3180
0000
0000
0000
0F00
3FC0
70E0
6060
C070
C030
C030
C030
C030
C030
6060
70E0
3FC0
1F80
ENDCHAR
STARTCHAR aj213.hw
ENCODING 245
SWIDTH 500 0
DWIDTH 16 0
BBX 11 19 2 2
BITMAP
3C00
2680
0300
0000
0000
1F00
3F80
71C0
60C0
C060
C060
C060
C060
C060
C060
60C0
71C0
3F80
1F00
ENDCHAR
STARTCHAR aj620
ENCODING 246
SWIDTH 500 0
DWIDTH 16 0
BBX 11 19 2 2
BITMAP
71C0
71C0
0000
0000
0000
1F00
3F80
71C0
60C0
C060
C060
C060
C060
C060
C060
60C0
71C0
3F80
1F00
ENDCHAR
STARTCHAR aj696
ENCODING 247
BBX 21 17 5 4
BITMAP
007800
007800
007800
007000
000000
000000
000000
000000
FFFFF8
FFFFF8
000000
000000
000000
007800
007800
007800
007000
ENDCHAR
STARTCHAR aj148.hw
ENCODING 248
SWIDTH 500 0
DWIDTH 16 0
BBX 12 18 2 0
BITMAP
0030
0020
1FC0
3FC0
70E0
61E0
C170
C230
C630
C430
C830
D830
F060
70E0
7FC0
7F00
C000
8000
ENDCHAR
STARTCHAR aj600
ENCODING 249
SWIDTH 500 0
DWIDTH 16 0
BBX 11 19 2 2
BITMAP
1C00
0600
0000
0000
0000
C060
C060
C060
C060
C060
C060
C060
C060
C060
C060
C0E0
E1E0
7FE0
3E60
ENDCHAR
STARTCHAR aj611
ENCODING 250
SWIDTH 500 0
DWIDTH 16 0
BBX 11 19 2 2
BITMAP
0700
0C00
0000
0000
0000
C060
C060
C060
C060
C060
C060
C060
C060
C060
C060
C0E0
E1E0
7FE0
3E60
ENDCHAR
STARTCHAR aj626
ENCODING 251
SWIDTH 500 0
DWIDTH 16 0
BBX 11 19 2 2
BITMAP
1E00
3180
0000
0000
0000
C060
C060
C060
C060
C060
C060
C060
C060
C060
C060
C0E0
E1E0
7FE0
3E60
ENDCHAR
STARTCHAR aj621
ENCODING 252
SWIDTH 500 0
DWIDTH 16 0
BBX 11 19 2 2
BITMAP
71C0
71C0
0000
0000
0000
C060
C060
C060
C060
C060
C060
C060
C060
C060
C060
C0E0
E1E0
7FE0
3E60
ENDCHAR
STARTCHAR aj220.hw
ENCODING 253
SWIDTH 500 0
DWIDTH 16 0
BBX 12 24 2 -3
BITMAP
0180
0600
0000
0000
0000
E030
6070
7070
3060
30E0
38C0
18C0
19C0
1D80
0D80
0F80
0700
0700
0700
0600
0600
0E00
7C00
7800
ENDCHAR
STARTCHAR aj221.hw
ENCODING 254
SWIDTH 500 0
DWIDTH 16 0
BBX 11 26 2 -3
BITMAP
C000
C000
C000
C000
C000
C000
C000
CF00
FF80
F1C0
E0C0
C060
C060
C060
C060
C060
C060
E0C0
F1C0
FF80
CF00
C000
C000
C000
C000
C000
ENDCHAR
STARTCHAR aj222.hw
ENCODING 255
SWIDTH 500 0
DWIDTH 16 0
BBX 12 24 2 -3
BITMAP
38E0
38E0
0000
0000
0000
E030
6070
7070
3060
30E0
38E0
18C0
1CC0
0DC0
0D80
0F80
0700
0700
0300
0600
0600
0E00
7C00
7800
ENDCHAR
STARTCHAR aj9366.hw
ENCODING 256
SWIDTH 500 0
DWIDTH 16 0
BBX 14 25 1 2
BITMAP
1FE0
0000
0000
0000
0780
0780
0780
07C0
0CC0
0CC0
0CC0
1CE0
1CE0
1860
1860
3870
3FF0
3FF0
3030
7038
7038
6018
6018
E01C
E01C
ENDCHAR
STARTCHAR aj9361.hw
ENCODING 257
SWIDTH 500 0
DWIDTH 16 0
BBX 12 19 2 2
BITMAP
3FC0
0000
0000
0000
0000
1F80
7FC0
70E0
E060
0060
03E0
1FE0
7860
E060
C060
C0E0
E1E0
7FF0
3E70
ENDCHAR
STARTCHAR aj15756.hw
ENCODING 258
SWIDTH 500 0
DWIDTH 16 0
BBX 14 25 1 2
BITMAP
1860
18C0
0780
0000
0700
0780
0780
0D80
0D80
0CC0
1CC0
1CC0
18E0
18E0
3860
3860
3FF0
3FF0
7030
7030
6038
6038
E018
E018
C01C
ENDCHAR
STARTCHAR aj15769.hw
ENCODING 259
SWIDTH 500 0
DWIDTH 16 0
BBX 12 19 2 2
BITMAP
3040
18C0
0F00
0000
0000
1F80
3FC0
70E0
6060
0060
03E0
1FE0
7860
E060
C060
C0E0
E1E0
7FF0
3E70
ENDCHAR
STARTCHAR aj15737.hw
ENCODING 260
SWIDTH 500 0
DWIDTH 16 0
BBX 14 27 1 -4
BITMAP
0700
0780
0F80
0D80
0D80
0DC0
1CC0
18C0
18C0
18E0
3860
3860
3FE0
3FF0
7030
7030
6038
E038
E038
E018
C01C
0010
0030
0060
0060
0064
0038
ENDCHAR
STARTCHAR aj15745.hw
ENCODING 261
SWIDTH 500 0
DWIDTH 16 0
BBX 12 20 2 -4
BITMAP
1F80
3FC0
70E0
6060
0060
03E0
1FE0
7860
E060
C060
C0E0
E1E0
7FF0
3E70
0060
0040
00C0
00C0
00D0
00E0
ENDCHAR
STARTCHAR aj15758.hw
ENCODING 262
SWIDTH 500 0
DWIDTH 16 0
BBX 13 25 1 2
BITMAP
0180
0300
0600
0000
0F80
1FE0
38F0
6070
6030
6038
C000
C000
C000
C000
C000
C000
C000
C000
C038
6038
6038
6070
30F0
1FE0
0F80
ENDCHAR
STARTCHAR aj15771.hw
ENCODING 263
SWIDTH 500 0
DWIDTH 16 0
BBX 12 19 2 2
BITMAP
0300
0C00
0000
0000
0000
1F00
3FC0
70E0
6060
C000
C000
C000
C000
C000
C070
6060
70E0
3FC0
1F00
ENDCHAR
STARTCHAR aj15783.hw
ENCODING 264
SWIDTH 500 0
DWIDTH 16 0
BBX 13 25 1 2
BITMAP
0700
0D80
1840
0000
0F80
1FE0
38F0
6070
6030
6038
C000
C000
C000
C000
C000
C000
C000
C000
C038
6038
6038
6070
30F0
1FE0
0F80
ENDCHAR
STARTCHAR aj15789.hw
ENCODING 265
SWIDTH 500 0
DWIDTH 16 0
BBX 12 19 2 2
BITMAP
0F00
3180
0000
0000
0000
1F00
3FC0
70E0
6060
C000
C000
C000
C000
C000
C070
6060
70E0
3FC0
1F00
ENDCHAR
STARTCHAR aj15759.hw
ENCODING 268
SWIDTH 500 0
DWIDTH 16 0
BBX 13 25 1 2
BITMAP
1840
0D80
0700
0000
0F80
1FE0
38F0
6070
6030
6038
C000
C000
C000
C000
C000
C000
C000
C000
C038
6038
6038
6070
30F0
1FE0
0F80
ENDCHAR
STARTCHAR aj15772.hw
ENCODING 269
SWIDTH 500 0
DWIDTH 16 0
BBX 12 19 2 2
BITMAP
3180
0F00
0000
0000
0000
1F00
3FC0
70E0
6060
C000
C000
C000
C000
C000
C070
6060
70E0
3FC0
1F00
ENDCHAR
STARTCHAR aj15761.hw
ENCODING 270
SWIDTH 500 0
DWIDTH 16 0
BBX 11 25 2 2
BITMAP
6300
3600
1C00
0000
FC00
FF00
C380
C180
C0C0
C0C0
C060
C060
C060
C060
C060
C060
C060
C060
C060
C0C0
C0C0
C180
C380
FF00
FC00
ENDCHAR
STARTCHAR aj15774.hw
ENCODING 271
SWIDTH 500 0
DWIDTH 16 0
BBX 14 23 1 2
BITMAP
001C
001C
00DC
00CC
00C8
00D8
00C0
00C0
00C0
1EC0
3FC0
63C0
E1C0
C0C0
C0C0
C0C0
C0C0
C0C0
C0C0
61C0
63C0
3FC0
1EC0
ENDCHAR
STARTCHAR aj15775.hw
ENCODING 273
SWIDTH 500 0
DWIDTH 16 0
BBX 14 21 1 2
BITMAP
0030
0030
0030
03FC
0030
0030
0030
1F30
3FF0
70F0
6070
C030
C030
C030
C030
C030
C030
E070
70F0
3FF0
1F30
ENDCHAR
STARTCHAR aj9369.hw
ENCODING 274
SWIDTH 500 0
DWIDTH 16 0
BBX 12 25 2 2
BITMAP
3FC0
0000
0000
0000
FFE0
FFE0
C000
C000
C000
C000
C000
C000
C000
FFC0
FFC0
C000
C000
C000
C000
C000
C000
C000
C000
FFF0
FFF0
ENDCHAR
STARTCHAR aj9364.hw
ENCODING 275
SWIDTH 500 0
DWIDTH 16 0
BBX 12 19 2 2
BITMAP
3FC0
0000
0000
0000
0000
1F00
3FC0
70E0
6060
E060
E070
FFF0
FFF0
C000
E000
6070
70E0
3FC0
1F80
ENDCHAR
STARTCHAR aj15760.hw
ENCODING 280
SWIDTH 500 0
DWIDTH 16 0
BBX 12 27 2 -4
BITMAP
FFE0
FFE0
C000
C000
C000
C000
C000
C000
C000
FFC0
FFC0
C000
C000
C000
C000
C000
C000
C000
C000
FFF0
FFF0
0C00
0C00
1800
1800
1900
0E00
ENDCHAR
STARTCHAR aj15773.hw
ENCODING 281
SWIDTH 500 0
DWIDTH 16 0
BBX 12 20 2 -4
BITMAP
1F00
3F80
71C0
60E0
C060
C060
FFE0
FFF0
C000
C000
C060
60E0
70E0
3FC0
1F80
0C00
1800
1800
1900
0E00
ENDCHAR
STARTCHAR aj9395.hw
ENCODING 282
SWIDTH 500 0
DWIDTH 16 0
BBX 12 25 2 2
BITMAP
2180
1B00
0E00
0000
FFE0
FFE0
C000
C000
C000
C000
C000
C000
C000
FFC0
FFC0
C000
C000
C000
C000
C000
C000
C000
C000
FFF0
FFF0
ENDCHAR
STARTCHAR aj9407.hw
ENCODING 283
SWIDTH 500 0
DWIDTH 16 0
BBX 12 19 2 2
BITMAP
3180
0F00
0000
0000
0000
1F00
3FC0
71C0
60E0
E060
C060
FFF0
FFF0
C000
C000
6060
70E0
3FC0
1F80
ENDCHAR
STARTCHAR aj15784.hw
ENCODING 284
SWIDTH 500 0
DWIDTH 16 0
BBX 12 25 2 2
BITMAP
0700
0D80
1080
0000
0F00
1FC0
30E0
60E0
6060
4070
C000
C000
C000
C000
C000
C1F0
C1F0
C030
C070
C070
6070
60F0
31F0
3FB0
0F30
ENDCHAR
STARTCHAR aj15790.hw
ENCODING 285
SWIDTH 500 0
DWIDTH 16 0
BBX 11 24 2 -3
BITMAP
1E00
3180
0000
0000
0000
1F60
3FE0
70E0
E0E0
C060
C060
C060
C060
E0E0
71E0
3FE0
1F60
0060
0060
C060
E0E0
70C0
7FC0
1F00
ENDCHAR
STARTCHAR aj15785.hw
ENCODING 292
SWIDTH 500 0
DWIDTH 16 0
BBX 12 25 2 2
BITMAP
0F00
1980
30C0
0000
C030
C030
C030
C030
C030
C030
C030
C030
C030
FFF0
FFF0
C030
C030
C030
C030
C030
C030
C030
C030
C030
C030
ENDCHAR
STARTCHAR aj15791.hw
ENCODING 293
SWIDTH 500 0
DWIDTH 16 0
BBX 11 25 2 2
BITMAP
0E00
1B00
2180
0000
C000
C000
C000
C000
C000
C000
C000
CF80
FFC0
F0E0
E060
C060
C060
C060
C060
C060
C060
C060
C060
C060
C060
ENDCHAR
STARTCHAR aj15816.hw
ENCODING 295
SWIDTH 500 0
DWIDTH 16 0
BBX 12 21 1 2
BITMAP
3000
3000
3000
FE00
3000
3000
3000
33C0
3FE0
3C70
3830
3030
3030
3030
3030
3030
3030
3030
3030
3030
3030
ENDCHAR
STARTCHAR aj9367.hw
ENCODING 298
SWIDTH 500 0
DWIDTH 16 0
BBX 8 25 4 2
BITMAP
FF
00
00
00
30
30
30
30
30
30
30
30
30
30
30
30
30
30
30
30
30
30
30
30
30
ENDCHAR
STARTCHAR aj9362.hw
ENCODING 299
SWIDTH 500 0
DWIDTH 16 0
BBX 8 19 4 2
BITMAP
FF
00
00
00
00
18
18
18
18
18
18
18
18
18
18
18
18
18
18
ENDCHAR
STARTCHAR aj15786.hw
ENCODING 308
SWIDTH 500 0
DWIDTH 16 0
BBX 12 25 2 2
BITMAP
01C0
0360
0630
0000
00C0
00C0
00C0
00C0
00C0
00C0
00C0
00C0
00C0
00C0
00C0
00C0
00C0
00C0
00C0
C0C0
C0C0
E0C0
E180
7F80
3E00
ENDCHAR
STARTCHAR aj15792.hw
ENCODING 309
SWIDTH 500 0
DWIDTH 16 0
BBX 8 24 3 -3
BITMAP
1E
33
00
00
00
0C
0C
0C
0C
0C
0C
0C
0C
0C
0C
0C
0C
0C
0C
0C
0C
0C
FC
F8
ENDCHAR
STARTCHAR aj15757.hw
ENCODING 313
SWIDTH 500 0
DWIDTH 16 0
BBX 12 25 2 2
BITMAP
0700
0E00
1C00
0000
C000
C000
C000
C000
C000
C000
C000
C000
C000
C000
C000
C000
C000
C000
C000
C000
C000
C000
C000
FFF0
FFF0
ENDCHAR
STARTCHAR aj15770.hw
ENCODING 314
SWIDTH 500 0
DWIDTH 16 0
BBX 3 25 7 2
BITMAP
60
C0
80
00
C0
C0
C0
C0
C0
C0
C0
C0
C0
C0
C0
C0
C0
C0
C0
C0
C0
C0
C0
C0
C0
ENDCHAR
STARTCHAR aj15739.hw
ENCODING 317
SWIDTH 500 0
DWIDTH 16 0
BBX 12 23 2 2
BITMAP
0380
0380
C380
C180
C100
C300
C000
C000
C000
C000
C000
C000
C000
C000
C000
C000
C000
C000
C000
C000
C000
FFF0
FFF0
ENDCHAR
STARTCHAR aj15747.hw
ENCODING 318
SWIDTH 500 0
DWIDTH 16 0
BBX 7 23 7 2
BITMAP
0E
0E
CE
C6
C4
CC
C0
C0
C0
C0
C0
C0
C0
C0
C0
C0
C0
C0
C0
C0
C0
C0
C0
ENDCHAR
STARTCHAR aj141.hw
ENCODING 321
SWIDTH 500 0
DWIDTH 16 0
BBX 13 21 1 2
BITMAP
3000
3000
3000
3000
3000
3000
3300
3600
3C00
3800
3000
7000
F000
B000
3000
3000
3000
3000
3000
3FF8
3FF8
ENDCHAR
STARTCHAR aj147.hw
ENCODING 322
SWIDTH 500 0
DWIDTH 16 0
BBX 9 21 3 2
BITMAP
0C00
0C00
0C00
0C00
0C00
0C00
0C80
0D00
0E00
0C00
0C00
1C00
2C00
CC00
0C00
0C00
0C00
0C00
0C00
0C00
0C00
ENDCHAR
STARTCHAR aj15762.hw
ENCODING 323
SWIDTH 500 0
DWIDTH 16 0
BBX 12 25 2 2
BITMAP
0380
0700
0C00
0000
E030
E030
F030
F030
F830
D830
DC30
CC30
CC30
CE30
C630
C730
C330
C3B0
C1B0
C1B0
C1F0
C0F0
C0F0
C070
C070
ENDCHAR
STARTCHAR aj15776.hw
ENCODING 324
SWIDTH 500 0
DWIDTH 16 0
BBX 11 19 2 2
BITMAP
0700
0C00
0000
0000
0000
CF80
FFC0
F0E0
E060
C060
C060
C060
C060
C060
C060
C060
C060
C060
C060
ENDCHAR
STARTCHAR aj15763.hw
ENCODING 327
SWIDTH 500 0
DWIDTH 16 0
BBX 12 25 2 2
BITMAP
30C0
1980
0F00
0000
E030
E030
F030
F030
F830
D830
DC30
CC30
CC30
CE30
C630
C730
C330
C3B0
C1B0
C1B0
C1F0
C0F0
C0F0
C070
C070
ENDCHAR
STARTCHAR aj15777.hw
ENCODING 328
SWIDTH 500 0
DWIDTH 16 0
BBX 11 19 2 2
BITMAP
3180
1E00
0000
0000
0000
CF80
FFC0
F0E0
E060
C060
C060
C060
C060
C060
C060
C060
C060
C060
C060
ENDCHAR
STARTCHAR aj9436.hw
ENCODING 331
SWIDTH 500 0
DWIDTH 16 0
BBX 11 18 2 -2
BITMAP
CF80
FFC0
F0E0
E060
C060
C060
C060
C060
C060
C060
C060
C060
C060
C060
0060
0060
07E0
07C0
ENDCHAR
STARTCHAR aj9370.hw
ENCODING 332
SWIDTH 500 0
DWIDTH 16 0
BBX 12 25 2 2
BITMAP
3FC0
0000
0000
0000
0F00
1F80
30C0
6060
6060
6060
C030
C030
C030
C030
C030
C030
C030
C030
C030
6060
6060
6060
30C0
1F80
0F00
ENDCHAR
STARTCHAR aj9365.hw
ENCODING 333
SWIDTH 500 0
DWIDTH 16 0
BBX 12 19 2 2
BITMAP
3FC0
0000
0000
0000
0000
0F00
3FC0
70E0
6060
C030
C030
C030
C030
C030
C030
6060
70E0
3FC0
1F80
ENDCHAR
STARTCHAR aj15764.hw
ENCODING 336
SWIDTH 500 0
DWIDTH 16 0
BBX 13 25 1 2
BITMAP
0760
0EC0
0D80
0000
0F80
1FC0
38E0
7070
6030
6030
C018
C018
C018
C018
C018
C018
C018
C018
C018
6030
6030
7070
38E0
1FC0
0F80
ENDCHAR
STARTCHAR aj15778.hw
ENCODING 337
SWIDTH 500 0
DWIDTH 16 0
BBX 12 19 2 2
BITMAP
0EE0
1980
0000
0000
0000
0F00
3FC0
70E0
6060
C070
C030
C030
C030
C030
C030
6060
70E0
3FC0
1F80
ENDCHAR
STARTCHAR aj143.hw
ENCODING 338
SWIDTH 500 0
DWIDTH 16 0
BBX 14 21 1 2
BITMAP
0FF8
1FF8
3180
6180
6180
6180
C180
C180
C180
C1F8
C1F8
C180
C180
C180
C180
E180
6180
7180
3180
3FFC
0FFC
ENDCHAR
STARTCHAR aj149.hw
ENCODING 339
SWIDTH 500 0
DWIDTH 16 0
BBX 13 15 1 1
BITMAP
3CE0
7FF0
6798
C318
C318
C318
C3F8
C300
C300
C318
C318
C318
6798
7DF0
38E0
ENDCHAR
STARTCHAR aj15755.hw
ENCODING 340
SWIDTH 500 0
DWIDTH 16 0
BBX 12 25 2 2
BITMAP
0700
0E00
0800
0000
FF00
FF80
C1C0
C0E0
C060
C060
C060
C0E0
C1C0
FF80
FF00
C700
C700
C380
C380
C180
C1C0
C0C0
C0E0
C0E0
C070
ENDCHAR
STARTCHAR aj15768.hw
ENCODING 341
SWIDTH 500 0
DWIDTH 16 0
BBX 8 19 5 2
BITMAP
18
30
00
00
01
C7
CF
FC
F0
E0
C0
C0
C0
C0
C0
C0
C0
C0
C0
ENDCHAR
STARTCHAR aj15765.hw
ENCODING 344
SWIDTH 500 0
DWIDTH 16 0
BBX 12 25 2 2
BITMAP
6300
3600
1C00
0000
FF00
FF80
C1C0
C0E0
C060
C060
C060
C0E0
C1C0
FF80
FF00
C700
C700
C380
C380
C180
C1C0
C0C0
C0E0
C0E0
C070
ENDCHAR
STARTCHAR aj15779.hw
ENCODING 345
SWIDTH 500 0
DWIDTH 16 0
BBX 8 19 5 2
BITMAP
84
78
00
00
01
C7
CF
FC
F0
E0
C0
C0
C0
C0
C0
C0
C0
C0
C0
ENDCHAR
STARTCHAR aj15740.hw
ENCODING 346
SWIDTH 500 0
DWIDTH 16 0
BBX 13 25 1 2
BITMAP
0180
0300
0600
0000
0FC0
1FE0
3870
6030
6038
6000
7000
3000
1C00
0F00
0780
01E0
0070
0038
0018
E018
6018
7018
3870
3FE0
0FC0
ENDCHAR
STARTCHAR aj15748.hw
ENCODING 347
SWIDTH 500 0
DWIDTH 16 0
BBX 12 19 2 2
BITMAP
0300
0C00
0000
0000
0000
1F80
7FC0
E0E0
C000
C000
7800
1F00
03C0
0060
0030
C030
F070
7FE0
1F80
ENDCHAR
STARTCHAR aj15787.hw
ENCODING 348
SWIDTH 500 0
DWIDTH 16 0
BBX 13 25 1 2
BITMAP
0700
0D80
1840
0000
0FC0
1FE0
30F0
6030
6038
6000
6000
3000
1C00
0E00
0780
01C0
0070
0030
0018
E018
6018
7018
3878
3FF0
0FC0
ENDCHAR
STARTCHAR aj15793.hw
ENCODING 349
SWIDTH 500 0
DWIDTH 16 0
BBX 12 19 2 2
BITMAP
0F00
3180
0000
0000
0000
1F80
7FC0
E0E0
C000
C000
7800
1F00
03C0
0060
0030
C030
F070
7FE0
1F80
ENDCHAR
STARTCHAR aj15741.hw
ENCODING 350
SWIDTH 500 0
DWIDTH 16 0
BBX 12 27 1 -4
BITMAP
0F80
3FC0
30E0
6070
6070
6000
7000
3800
1C00
0F00
0380
00E0
0060
0030
E030
E030
6030
7060
3FE0
0F80
0000
0700
0700
0700
0300
0200
0600
ENDCHAR
STARTCHAR aj15750.hw
ENCODING 351
SWIDTH 500 0
DWIDTH 16 0
BBX 11 20 2 -4
BITMAP
3F00
7FC0
E0C0
C000
6000
3800
0F00
01C0
0060
C060
E0E0
7FC0
3F80
0000
0E00
0E00
0E00
0600
0400
0C00
ENDCHAR
STARTCHAR aj223.hw
ENCODING 352
SWIDTH 500 0
DWIDTH 16 0
BBX 13 25 1 2
BITMAP
1840
0D80
0700
0000
0FC0
1FE0
3870
6030
6038
6000
7000
3000
1C00
0F00
0780
01E0
0070
0038
0018
E018
6018
7018
3870
3FE0
0FC0
ENDCHAR
STARTCHAR aj227.hw
ENCODING 353
SWIDTH 500 0
DWIDTH 16 0
BBX 12 19 2 2
BITMAP
3180
0F00
0000
0000
0000
1F80
7FC0
E0E0
C000
C000
7800
1F00
03C0
0060
0030
C030
F070
7FE0
1F80
ENDCHAR
STARTCHAR aj15767.hw
ENCODING 354
SWIDTH 500 0
DWIDTH 16 0
BBX 13 27 1 -4
BITMAP
FFF8
FFF8
0600
0600
0600
0600
0600
0600
0600
0600
0600
0600
0600
0600
0600
0600
0600
0600
0600
0600
0000
0700
0700
0700
0300
0600
0400
ENDCHAR
STARTCHAR aj15781.hw
ENCODING 355
SWIDTH 500 0
DWIDTH 16 0
BBX 9 24 3 -4
BITMAP
1800
1800
1800
1800
FF80
FF80
1800
1800
1800
1800
1800
1800
1800
1800
1800
1F80
0F80
0000
0E00
0E00
0E00
0600
0C00
0800
ENDCHAR
STARTCHAR aj15742.hw
ENCODING 356
SWIDTH 500 0
DWIDTH 16 0
BBX 13 25 1 2
BITMAP
10C0
0D80
0700
0000
FFF8
FFF8
0600
0600
0600
0600
0600
0600
0600
0600
0600
0600
0600
0600
0600
0600
0600
0600
0600
0600
0600
ENDCHAR
STARTCHAR aj15751.hw
ENCODING 357
SWIDTH 500 0
DWIDTH 16 0
BBX 11 23 3 2
BITMAP
00E0
00E0
00E0
0060
00C0
1880
1800
1800
1800
FF80
FF80
1800
1800
1800
1800
1800
1800
1800
1800
1800
1800
1F80
0F80
ENDCHAR
STARTCHAR aj9368.hw
ENCODING 362
SWIDTH 500 0
DWIDTH 16 0
BBX 12 25 2 2
BITMAP
3FC0
0000
0000
0000
C030
C030
C030
C030
C030
C030
C030
C030
C030
C030
C030
C030
C030
C030
C030
C030
C030
E070
70E0
3FC0
1F80
ENDCHAR
STARTCHAR aj9363.hw
ENCODING 363
SWIDTH 500 0
DWIDTH 16 0
BBX 11 19 2 2
BITMAP
3FC0
0000
0000
0000
0000
C060
C060
C060
C060
C060
C060
C060
C060
C060
C060
C0E0
E1E0
7FE0
3E20
ENDCHAR
STARTCHAR aj15788.hw
ENCODING 364
SWIDTH 500 0
DWIDTH 16 0
BBX 12 25 2 2
BITMAP
2040
30C0
0F00
0000
C030
C030
C030
C030
C030
C030
C030
C030
C030
C030
C030
C030
C030
C030
C030
C030
C030
E070
70E0
3FC0
1F80
ENDCHAR
STARTCHAR aj15794.hw
ENCODING 365
SWIDTH 500 0
DWIDTH 16 0
BBX 11 19 2 2
BITMAP
60C0
3180
1F00
0000
0000
C060
C060
C060
C060
C060
C060
C060
C060
C060
C060
C0E0
E1E0
7FE0
3E60
ENDCHAR
STARTCHAR aj9404.hw
ENCODING 366
SWIDTH 500 0
DWIDTH 16 0
BBX 12 25 2 2
BITMAP
0F00
1080
1080
1F00
C030
C030
C030
C030
C030
C030
C030
C030
C030
C030
C030
C030
C030
C030
C030
C030
C030
E070
70E0
3FC0
1F80
ENDCHAR
STARTCHAR aj9416.hw
ENCODING 367
SWIDTH 500 0
DWIDTH 16 0
BBX 11 21 2 2
BITMAP
0E00
1100
1100
1100
0E00
0000
0000
C060
C060
C060
C060
C060
C060
C060
C060
C060
C060
C0E0
E1E0
7FE0
3E60
ENDCHAR
STARTCHAR aj15766.hw
ENCODING 368
SWIDTH 500 0
DWIDTH 16 0
BBX 12 25 2 2
BITMAP
0E60
1CC0
3980
0000
C030
C030
C030
C030
C030
C030
C030
C030
C030
C030
C030
C030
C030
C030
C030
C030
C030
E070
70E0
3FC0
1F80
ENDCHAR
STARTCHAR aj15780.hw
ENCODING 369
SWIDTH 500 0
DWIDTH 16 0
BBX 11 19 2 2
BITMAP
0CC0
1980
0000
0000
0000
C060
C060
C060
C060
C060
C060
C060
C060
C060
C060
C0E0
E1E0
7FE0
3E60
ENDCHAR
STARTCHAR aj15743.hw
ENCODING 377
SWIDTH 500 0
DWIDTH 16 0
BBX 12 25 2 2
BITMAP
0700
0600
0C00
0000
FFE0
FFE0
00E0
01C0
01C0
0380
0380
0300
0700
0600
0E00
0C00
1C00
1800
3800
3000
7000
6000
E000
FFF0
FFF0
ENDCHAR
STARTCHAR aj15752.hw
ENCODING 378
SWIDTH 500 0
DWIDTH 16 0
BBX 11 19 2 2
BITMAP
0300
0C00
0000
0000
0000
7FE0
7FE0
00C0
01C0
0380
0700
0E00
0E00
1C00
3800
7000
F000
FFE0
FFE0
ENDCHAR
STARTCHAR aj15744.hw
ENCODING 379
SWIDTH 500 0
DWIDTH 16 0
BBX 12 25 2 2
BITMAP
0E00
0E00
0000
0000
FFE0
FFE0
00E0
00C0
01C0
0180
0380
0300
0700
0600
0E00
0C00
1C00
1800
3800
3000
7000
6000
E000
FFF0
FFF0
ENDCHAR
STARTCHAR aj15754.hw
ENCODING 380
SWIDTH 500 0
DWIDTH 16 0
BBX 11 19 2 2
BITMAP
0E00
0E00
0000
0000
0000
7FE0
7FE0
01C0
01C0
0380
0700
0E00
0C00
1C00
3800
7000
E000
FFE0
FFE0
ENDCHAR
STARTCHAR aj225.hw
ENCODING 381
SWIDTH 500 0
DWIDTH 16 0
BBX 12 25 2 2
BITMAP
3180
1B00
0E00
0000
FFE0
FFE0
00E0
01C0
01C0
0380
0380
0300
0700
0600
0E00
0C00
1C00
1800
3800
3000
7000
6000
E000
FFF0
FFF0
ENDCHAR
STARTCHAR aj229.hw
ENCODING 382
SWIDTH 500 0
DWIDTH 16 0
BBX 11 19 2 2
BITMAP
3180
0F00
0000
0000
0000
7FE0
7FE0
00C0
01C0
0380
0700
0E00
0E00
1C00
3800
7000
F000
FFE0
FFE0
ENDCHAR
STARTCHAR aj15826.hw
ENCODING 403
SWIDTH 500 0
DWIDTH 16 0
BBX 14 24 1 2
BITMAP
003C
003C
0064
0FE0
1FE0
30E0
6060
6060
4060
C000
C000
C000
C000
C000
C1F0
C1F0
C030
C030
C070
6070
60F0
31F0
3FB0
0F30
ENDCHAR
STARTCHAR aj15821.hw
ENCODING 450
SWIDTH 500 0
DWIDTH 16 0
BBX 10 26 3 -3
BITMAP
0C00
0C00
0C00
0C00
0C00
0C00
FFC0
FFC0
0C00
0C00
0C00
0C00
0C00
0C00
0C00
0C00
0C00
FFC0
FFC0
0C00
0C00
0C00
0C00
0C00
0C00
0C00
ENDCHAR
STARTCHAR aj9394.fw
ENCODING 461
BBX 19 25 6 2
BITMAP
071C00
01F000
000000
000000
01F000
01F000
01B000
03B800
03B800
071C00
071C00
060C00
0E0E00
0E0E00
1C0700
1C0700
1FFF00
3FFF80
380380
7001C0
7001C0
7001C0
E000E0
E000E0
C00060
ENDCHAR
STARTCHAR aj9406.fw
ENCODING 462
BBX 16 19 8 2
BITMAP
1870
07C0
0000
0000
0FC0
3FF0
7878
7038
601C
001C
03FC
1FFC
7C1C
F01C
E01C
E03C
F0FC
7FFF
7F0F
ENDCHAR
STARTCHAR aj9410.fw
ENCODING 464
BBX 9 19 11 2
BITMAP
E380
3E00
0000
0000
0000
1C00
1C00
1C00
1C00
1C00
1C00
1C00
1C00
1C00
1C00
1C00
1C00
1C00
1C00
ENDCHAR
STARTCHAR aj9401.fw
ENCODING 465
BBX 21 25 5 2
BITMAP
038E00
00F800
000000
01FC00
07FF00
0F0780
1C01C0
3800E0
700070
700070
F00070
E00038
E00038
E00038
E00038
E00038
E00038
E00078
700070
700070
3800E0
1C01C0
0F0780
07FF00
01FC00
ENDCHAR
STARTCHAR aj9413.fw
ENCODING 466
BBX 15 19 8 2
BITMAP
1C70
07C0
0000
0000
07C0
1FF0
3C78
701C
701C
E00E
E00E
E00E
E00E
E00E
F01C
701C
7878
3FF0
0FC0
ENDCHAR
STARTCHAR aj9415.fw
ENCODING 468
BBX 13 19 9 2
BITMAP
38C0
0F80
0000
0000
0000
E038
E038
E038
E038
E038
E038
E038
E038
E038
E078
E078
F0F8
7FF8
3F38
ENDCHAR
STARTCHAR aj15733.fw
ENCODING 470
BBX 13 22 9 2
BITMAP
7FF0
7FF0
0000
7070
7070
0000
0000
0000
E038
E038
E038
E038
E038
E038
E038
E038
E038
E078
E078
F0F8
7FF8
3F18
ENDCHAR
STARTCHAR aj15734.fw
ENCODING 472
BBX 13 21 9 2
BITMAP
01C0
0300
7070
7070
0000
0000
0000
E038
E038
E038
E038
E038
E038
E038
E038
E038
E078
E078
F0F8
7FF8
3F18
ENDCHAR
STARTCHAR aj15735.fw
ENCODING 474
BBX 13 21 9 2
BITMAP
0CC0
0780
3870
3870
0000
0000
0000
E038
E038
E038
E038
E038
E038
E038
E038
E038
E078
E078
F0F8
7FF8
3F18
ENDCHAR
STARTCHAR aj15736.fw
ENCODING 476
BBX 13 21 9 2
BITMAP
1C00
0600
7070
7070
0000
0000
0000
E038
E038
E038
E038
E038
E038
E038
E038
E038
E078
E078
F0F8
7FF8
3F18
ENDCHAR
STARTCHAR aj15731.hw
ENCODING 504
SWIDTH 500 0
DWIDTH 16 0
BBX 12 25 2 2
BITMAP
1C00
0E00
0300
0000
E030
E030
F030
F030
F830
D830
DC30
CC30
CC30
CE30
C630
C730
C330
C3B0
C1B0
C1B0
C1F0
C0F0
C0F0
C070
C070
ENDCHAR
STARTCHAR aj15732.hw
ENCODING 505
SWIDTH 500 0
DWIDTH 16 0
BBX 11 19 2 2
BITMAP
1800
0E00
0000
0000
0000
CF80
FFC0
F0E0
E060
C060
C060
C060
C060
C060
C060
C060
C060
C060
C060
ENDCHAR
STARTCHAR aj9421.hw
ENCODING 509
SWIDTH 500 0
DWIDTH 16 0
BBX 13 19 2 2
BITMAP
0380
0600
0000
0000
0000
39E0
7FF0
C730
C630
0638
0618
0FF8
3600
6600
C618
C618
C730
FFF0
7DE0
ENDCHAR
STARTCHAR aj15832.hw
ENCODING 592
SWIDTH 500 0
DWIDTH 16 0
BBX 13 14 1 2
BITMAP
E3E0
FFF0
3C38
3818
3018
3038
30F0
3FE0
3E00
3000
3030
3870
1FE0
0FC0
ENDCHAR
STARTCHAR aj9418.hw
ENCODING 593
SWIDTH 500 0
DWIDTH 16 0
BBX 13 14 2 2
BITMAP
1F60
3FE0
70E0
60E0
C060
C060
C060
C060
C060
C060
60E0
71E0
3FF8
1F38
ENDCHAR
STARTCHAR aj15836.hw
ENCODING 594
SWIDTH 500 0
DWIDTH 16 0
BBX 12 14 1 2
BITMAP
CF80
FFC0
70E0
7060
6030
6030
6030
6030
6030
6030
6060
70E0
7FC0
6F80
ENDCHAR
STARTCHAR aj15822.hw
ENCODING 595
SWIDTH 500 0
DWIDTH 16 0
BBX 11 21 2 2
BITMAP
1F00
7FC0
60C0
C0E0
C000
C000
C000
CF00
FF80
F1C0
E0C0
C060
C060
C060
C060
C060
C060
E0C0
F1C0
FF80
DF00
ENDCHAR
STARTCHAR aj9423.hw
ENCODING 596
SWIDTH 500 0
DWIDTH 16 0
BBX 12 14 2 2
BITMAP
1F00
3FC0
70E0
E060
0030
0030
0030
0030
0030
C030
E060
70E0
3FC0
1F00
ENDCHAR
STARTCHAR aj15841.hw
ENCODING 597
SWIDTH 500 0
DWIDTH 16 0
BBX 11 16 2 0
BITMAP
1F00
3FC0
70E0
6060
C000
C000
C000
C3E0
C7E0
CE60
F860
78C0
7FC0
FF00
C000
8000
ENDCHAR
STARTCHAR aj15802.hw
ENCODING 598
SWIDTH 500 0
DWIDTH 16 0
BBX 14 26 1 -3
BITMAP
0060
0060
0060
0060
0060
0060
0060
1F60
3FE0
71E0
60E0
C060
C060
C060
C060
C060
C060
60E0
71E0
3FE0
1F60
0060
0060
0064
007C
003C
ENDCHAR
STARTCHAR aj15823.hw
ENCODING 599
SWIDTH 500 0
DWIDTH 16 0
BBX 14 21 1 2
BITMAP
003C
007C
0060
0060
0060
0060
0060
1F60
3FE0
71E0
60E0
C060
C060
C060
C060
C060
C060
60E0
71E0
3FE0
1F60
ENDCHAR
STARTCHAR aj15829.hw
ENCODING 600
SWIDTH 500 0
DWIDTH 16 0
BBX 12 14 2 2
BITMAP
1F00
3FC0
71E0
60E0
E070
C070
FFF0
FFF0
0070
0070
C060
60E0
7FC0
1F00
ENDCHAR
STARTCHAR aj9426.hw
ENCODING 601
SWIDTH 500 0
DWIDTH 16 0
BBX 12 14 2 2
BITMAP
1F00
7FC0
61E0
E0E0
0070
0070
0070
FFF0
FFF0
C070
E060
70E0
3FC0
1F00
ENDCHAR
STARTCHAR aj9429.hw
ENCODING 602
SWIDTH 500 0
DWIDTH 16 0
BBX 14 14 1 2
BITMAP
1E00
7F00
6380
C1E0
01E0
03F4
0FDC
3CDC
F0C0
E1C0
6180
7380
3F00
1E00
ENDCHAR
STARTCHAR aj15830.hw
ENCODING 604
SWIDTH 500 0
DWIDTH 16 0
BBX 12 14 2 2
BITMAP
1F80
7FC0
70E0
0060
0060
00E0
0FC0
0FC0
0060
0030
0030
F070
7FE0
1F80
ENDCHAR
STARTCHAR aj15831.hw
ENCODING 606
SWIDTH 500 0
DWIDTH 16 0
BBX 12 14 2 2
BITMAP
0FC0
3FE0
7070
6030
C030
C070
C7E0
C7E0
C070
C030
6030
7070
3FE0
0FC0
ENDCHAR
STARTCHAR aj15809.hw
ENCODING 607
SWIDTH 500 0
DWIDTH 16 0
BBX 10 19 3 -3
BITMAP
0C00
0C00
0C00
0C00
0C00
0C00
0C00
0C00
0C00
0C00
FFC0
FFC0
0C00
0C00
0C00
0C00
0C00
FC00
F800
ENDCHAR
STARTCHAR aj15825.hw
ENCODING 608
SWIDTH 500 0
DWIDTH 16 0
BBX 14 26 1 -3
BITMAP
003C
007C
0060
0060
0060
0060
0060
1F60
3FE0
71E0
E0E0
C060
C060
C060
C060
E0E0
71E0
3FE0
1F60
0060
0060
6060
60E0
70C0
3FC0
1F00
ENDCHAR
STARTCHAR aj15813.hw
ENCODING 609
SWIDTH 500 0
DWIDTH 16 0
BBX 11 19 2 -3
BITMAP
1F60
3FE0
70E0
E0E0
C060
C060
C060
C060
E0E0
71E0
3FE0
1F60
0060
0060
C060
E0E0
70C0
7FC0
1F00
ENDCHAR
STARTCHAR aj15835.hw
ENCODING 612
SWIDTH 500 0
DWIDTH 16 0
BBX 13 14 1 2
BITMAP
F038
F878
1CC0
0DC0
0780
0700
0700
0780
0780
0CC0
0CC0
0CC0
0FC0
0780
ENDCHAR
STARTCHAR aj15838.hw
ENCODING 613
SWIDTH 500 0
DWIDTH 16 0
BBX 11 19 2 -3
BITMAP
C060
C060
C060
C060
C060
C060
C060
C060
C060
C060
C0E0
E1E0
7FE0
3E60
0060
0060
0060
0060
0060
ENDCHAR
STARTCHAR aj15819.hw
ENCODING 614
SWIDTH 500 0
DWIDTH 16 0
BBX 11 21 2 2
BITMAP
1F00
3FC0
70E0
E060
C000
C000
C000
CF80
FFC0
F0E0
E060
C060
C060
C060
C060
C060
C060
C060
C060
C060
C060
ENDCHAR
STARTCHAR aj15844.hw
ENCODING 615
SWIDTH 500 0
DWIDTH 16 0
BBX 11 25 2 -2
BITMAP
1F00
3FC0
70E0
E060
C000
C000
C000
CF80
FFC0
F0E0
E060
C060
C060
C060
C060
C060
C060
C060
C060
C060
C060
0060
0060
07E0
07C0
ENDCHAR
STARTCHAR aj15827.hw
ENCODING 616
SWIDTH 500 0
DWIDTH 16 0
BBX 8 21 4 2
BITMAP
38
38
38
00
00
00
00
18
18
18
18
18
FF
18
18
18
18
18
18
18
18
ENDCHAR
STARTCHAR aj15798.hw
ENCODING 620
SWIDTH 500 0
DWIDTH 16 0
BBX 9 21 3 2
BITMAP
0C00
0C00
0C00
0C00
0C00
0C00
0C00
7C00
CC00
CC00
EC00
3F80
0C00
0C00
0C00
0C00
0C00
0C00
0C00
0C00
0C00
ENDCHAR
STARTCHAR aj15808.hw
ENCODING 621
SWIDTH 500 0
DWIDTH 16 0
BBX 6 26 7 -3
BITMAP
C0
C0
C0
C0
C0
C0
C0
C0
C0
C0
C0
C0
C0
C0
C0
C0
C0
C0
C0
C0
C0
C0
C0
C0
FC
7C
ENDCHAR
STARTCHAR aj15799.hw
ENCODING 622
SWIDTH 500 0
DWIDTH 16 0
BBX 12 25 2 -2
BITMAP
C000
C000
C000
C000
C000
C000
C000
FFE0
FFE0
C0E0
C3C0
C700
CE00
DF80
DFC0
C0E0
C070
C030
C030
C030
C030
0070
30E0
3FC0
1F80
ENDCHAR
STARTCHAR aj15833.hw
ENCODING 623
SWIDTH 500 0
DWIDTH 16 0
BBX 13 14 1 2
BITMAP
C318
C318
C318
C318
C318
C318
C318
C318
C318
C318
C318
C738
FFF8
79D8
ENDCHAR
STARTCHAR aj15814.hw
ENCODING 624
SWIDTH 500 0
DWIDTH 16 0
BBX 13 19 1 -3
BITMAP
C318
C318
C318
C318
C318
C318
C318
C318
C318
C318
C318
C738
FFF8
79F8
0018
0018
0018
0018
0018
ENDCHAR
STARTCHAR aj15795.hw
ENCODING 625
SWIDTH 500 0
DWIDTH 16 0
BBX 13 18 1 -2
BITMAP
DCF0
FFF8
E398
C318
C318
C318
C318
C318
C318
C318
C318
C318
C318
C318
0018
0018
01F8
01F0
ENDCHAR
STARTCHAR aj15810.hw
ENCODING 626
SWIDTH 500 0
DWIDTH 16 0
BBX 14 18 0 -2
BITMAP
0CF0
0FF8
0F1C
0E0C
0C0C
0C0C
0C0C
0C0C
0C0C
0C0C
0C0C
0C0C
0C0C
0C0C
0C00
0C00
FC00
F800
ENDCHAR
STARTCHAR aj15803.hw
ENCODING 627
SWIDTH 500 0
DWIDTH 16 0
BBX 13 18 2 -2
BITMAP
CF00
FF80
F1C0
E0C0
C0C0
C0C0
C0C0
C0C0
C0C0
C0C0
C0C0
C0C0
C0C0
C0C0
00C0
00C0
00F8
0078
ENDCHAR
STARTCHAR aj9437.hw
ENCODING 629
SWIDTH 500 0
DWIDTH 16 0
BBX 12 14 2 2
BITMAP
0F00
3FC0
70E0
6060
E070
C070
FFF0
FFF0
C070
E070
6060
70E0
3FC0
1F80
ENDCHAR
STARTCHAR aj15800.hw
ENCODING 633
SWIDTH 500 0
DWIDTH 16 0
BBX 8 14 3 2
BITMAP
03
03
03
03
03
03
03
03
03
07
0F
3F
F3
E3
ENDCHAR
STARTCHAR aj15843.hw
ENCODING 634
SWIDTH 500 0
DWIDTH 16 0
BBX 8 21 3 2
BITMAP
03
03
03
03
03
03
03
03
03
03
03
03
03
03
03
03
07
1F
3B
F3
E3
ENDCHAR
STARTCHAR aj15807.hw
ENCODING 635
SWIDTH 500 0
DWIDTH 16 0
BBX 12 19 3 -3
BITMAP
0300
0300
0300
0300
0300
0300
0300
0300
0300
0700
0F00
1F00
FB00
F300
C300
0300
0300
03F0
01F0
ENDCHAR
STARTCHAR aj15804.hw
ENCODING 637
SWIDTH 500 0
DWIDTH 16 0
BBX 8 19 5 -3
BITMAP
C7
CF
DE
F8
E0
C0
C0
C0
C0
C0
C0
C0
C0
C0
C0
C0
C0
FC
7C
ENDCHAR
STARTCHAR aj15797.hw
ENCODING 638
SWIDTH 500 0
DWIDTH 16 0
BBX 7 14 5 2
BITMAP
7E
FE
C0
C0
C0
C0
C0
C0
C0
C0
C0
C0
C0
C0
ENDCHAR
STARTCHAR aj15815.hw
ENCODING 641
SWIDTH 500 0
DWIDTH 16 0
BBX 12 14 2 2
BITMAP
C070
C060
C0E0
C1C0
C180
C300
FF00
FFC0
C0E0
C060
C060
C0E0
FFC0
FF80
ENDCHAR
STARTCHAR aj15805.hw
ENCODING 642
SWIDTH 500 0
DWIDTH 16 0
BBX 12 19 2 -3
BITMAP
1F80
7FC0
E0E0
C000
C000
7800
1F00
03C0
0060
0030
C030
F070
FFE0
FF80
C000
C000
C000
F800
7800
ENDCHAR
STARTCHAR aj9442.hw
ENCODING 643
SWIDTH 500 0
DWIDTH 16 0
BBX 10 26 3 -3
BITMAP
07C0
0FC0
0C00
0C00
0C00
0C00
0C00
0C00
0C00
0C00
0C00
0C00
0C00
0C00
0C00
0C00
0C00
0C00
0C00
0C00
0C00
0C00
0C00
0C00
FC00
F800
ENDCHAR
STARTCHAR aj15824.hw
ENCODING 644
SWIDTH 500 0
DWIDTH 16 0
BBX 10 26 3 -3
BITMAP
07C0
0FC0
0C00
0C00
0C00
0C00
0C00
0C00
0C00
0C00
0C00
0C00
0C00
0C00
0C00
0C00
0C00
FFC0
FFC0
0C00
0C00
0C00
0C00
0C00
FC00
F800
ENDCHAR
STARTCHAR aj15801.hw
ENCODING 648
SWIDTH 500 0
DWIDTH 16 0
BBX 9 23 3 -3
BITMAP
1800
1800
1800
1800
FF80
FF80
1800
1800
1800
1800
1800
1800
1800
1800
1800
1800
1800
1800
1800
1800
1800
1F80
0F80
ENDCHAR
STARTCHAR aj15828.hw
ENCODING 649
SWIDTH 500 0
DWIDTH 16 0
BBX 14 14 1 2
BITMAP
6030
6030
6030
6030
6030
FFFC
6030
6030
6030
6030
6070
70F0
3FF0
1F30
ENDCHAR
STARTCHAR aj15834.hw
ENCODING 650
SWIDTH 500 0
DWIDTH 16 0
BBX 13 14 1 2
BITMAP
F8F8
F8F8
18C0
3060
3060
6030
6030
6030
6030
6030
7030
7860
3FC0
1F80
ENDCHAR
STARTCHAR aj15796.hw
ENCODING 651
SWIDTH 500 0
DWIDTH 16 0
BBX 11 15 2 2
BITMAP
0080
C1C0
C0C0
C0E0
C060
C060
C060
C060
C060
C060
C0C0
C1C0
E380
7F00
3E00
ENDCHAR
STARTCHAR aj9438.hw
ENCODING 652
SWIDTH 500 0
DWIDTH 16 0
BBX 12 14 2 2
BITMAP
0E00
0F00
0F00
1B00
1B80
1980
3980
31C0
70C0
70C0
60E0
E060
E060
C070
ENDCHAR
STARTCHAR aj15837.hw
ENCODING 653
SWIDTH 500 0
DWIDTH 16 0
BBX 13 14 1 2
BITMAP
3860
3870
38F0
38F0
68F0
6CF0
6CB0
6D98
6D98
6598
E798
C718
C718
C718
ENDCHAR
STARTCHAR aj15812.hw
ENCODING 654
SWIDTH 500 0
DWIDTH 16 0
BBX 12 21 1 2
BITMAP
00F0
01F0
0380
0300
0300
0700
0600
0600
0E00
0F00
0F00
1F00
1B80
1980
39C0
30C0
70C0
70E0
6060
E070
E070
ENDCHAR
STARTCHAR aj15806.hw
ENCODING 656
SWIDTH 500 0
DWIDTH 16 0
BBX 13 19 2 -3
BITMAP
7FE0
7FE0
00C0
01C0
0380
0700
0E00
0E00
1C00
3800
7000
F000
FFE0
FFE0
0060
0060
0060
0078
0038
ENDCHAR
STARTCHAR aj15842.hw
ENCODING 657
SWIDTH 500 0
DWIDTH 16 0
BBX 13 17 2 -1
BITMAP
7FE0
7FE0
00C0
01C0
0380
0700
0E00
0E00
1CF0
39F8
7398
E318
FFF8
FFE0
0C00
1800
1800
ENDCHAR
STARTCHAR aj9441.hw
ENCODING 658
SWIDTH 500 0
DWIDTH 16 0
BBX 12 19 2 -3
BITMAP
7FC0
7FE0
01C0
0380
0F00
1C00
3F80
7FC0
30E0
0060
0030
0030
0030
0030
C030
E060
70E0
3FC0
1F00
ENDCHAR
STARTCHAR aj15818.hw
ENCODING 660
SWIDTH 500 0
DWIDTH 16 0
BBX 12 21 1 2
BITMAP
1F00
3FC0
70E0
E060
0070
0030
0030
0030
0030
0030
0070
0060
00E0
03C0
0F80
0C00
0C00
0C00
0C00
0C00
0C00
ENDCHAR
STARTCHAR aj15817.hw
ENCODING 661
SWIDTH 500 0
DWIDTH 16 0
BBX 12 21 2 2
BITMAP
0F80
3FC0
70E0
6070
E000
C000
C000
C000
C000
C000
E000
6000
7000
3C00
0F00
0300
0300
0300
0300
0300
0300
ENDCHAR
STARTCHAR aj15820.hw
ENCODING 664
SWIDTH 500 0
DWIDTH 16 0
BBX 12 14 2 2
BITMAP
1F00
3FC0
70E0
E060
E070
C630
CF30
CF30
C630
C070
4060
61E0
3FC0
0F00
ENDCHAR
STARTCHAR aj15811.hw
ENCODING 669
SWIDTH 500 0
DWIDTH 16 0
BBX 12 26 1 -3
BITMAP
0380
0380
0380
0000
0000
0000
0000
0300
0300
0300
0300
0300
0300
0300
0300
0300
0300
0300
0300
7F00
FF00
C780
C3C0
E7F0
7E70
3C10
ENDCHAR
STARTCHAR aj15840.hw
ENCODING 673
SWIDTH 500 0
DWIDTH 16 0
BBX 12 21 2 2
BITMAP
1F00
7F80
E1C0
C060
0060
0030
0030
0030
0030
0030
0070
0060
00E0
03C0
1F80
1C00
1800
FF80
1800
1800
1800
ENDCHAR
STARTCHAR aj15839.hw
ENCODING 674
SWIDTH 500 0
DWIDTH 16 0
BBX 12 21 2 2
BITMAP
0FC0
3FE0
70F0
6070
E000
C000
C000
C000
C000
C000
E000
6000
7000
3800
1F00
0700
0300
1FF0
0300
0300
0300
ENDCHAR
STARTCHAR aj15749.hw
ENCODING 711
SWIDTH 500 0
DWIDTH 16 0
BBX 10 4 3 20
BITMAP
C1C0
6380
3F00
1E00
ENDCHAR
STARTCHAR aj15846.hw
ENCODING 712
SWIDTH 500 0
DWIDTH 16 0
BBX 2 3 7 24
BITMAP
C0
C0
C0
ENDCHAR
STARTCHAR aj15847.hw
ENCODING 716
SWIDTH 500 0
DWIDTH 16 0
BBX 2 3 7 -3
BITMAP
C0
C0
C0
ENDCHAR
STARTCHAR aj9443.hw
ENCODING 720
SWIDTH 500 0
DWIDTH 16 0
BBX 5 14 5 2
BITMAP
F8
78
30
20
00
00
00
00
00
00
20
30
78
F8
ENDCHAR
STARTCHAR aj15848.hw
ENCODING 721
SWIDTH 500 0
DWIDTH 16 0
BBX 5 5 5 11
BITMAP
F8
78
70
30
20
ENDCHAR
STARTCHAR aj15738.hw
ENCODING 728
SWIDTH 500 0
DWIDTH 16 0
BBX 11 4 2 20
BITMAP
E060
70C0
3FC0
1F00
ENDCHAR
STARTCHAR aj15782.hw
ENCODING 729
SWIDTH 500 0
DWIDTH 16 0
BBX 3 3 6 20
BITMAP
E0
E0
E0
ENDCHAR
STARTCHAR aj15746.hw
ENCODING 731
SWIDTH 500 0
DWIDTH 16 0
BBX 7 6 4 -1
BITMAP
38
60
E0
C0
C2
7C
ENDCHAR
STARTCHAR aj631
ENCODING 732
SWIDTH 500 0
DWIDTH 16 0
BBX 10 3 3 20
BITMAP
7800
FFC0
0780
ENDCHAR
STARTCHAR aj15753.hw
ENCODING 733
SWIDTH 500 0
DWIDTH 16 0
BBX 10 4 3 20
BITMAP
39C0
7380
E700
CE00
ENDCHAR
STARTCHAR aj15867.hw
ENCODING 734
SWIDTH 500 0
DWIDTH 16 0
BBX 9 6 3 8
BITMAP
2000
F000
B080
1980
1F80
0F00
ENDCHAR
STARTCHAR aj15851.hw
ENCODING 741
SWIDTH 500 0
DWIDTH 16 0
BBX 8 31 3 -4
BITMAP
FF
FF
03
03
03
03
03
03
03
03
03
03
03
03
03
03
03
03
03
03
03
03
03
03
03
03
03
03
03
03
03
ENDCHAR
STARTCHAR aj15852.hw
ENCODING 742
SWIDTH 500 0
DWIDTH 16 0
BBX 8 31 3 -4
BITMAP
03
03
03
03
03
03
03
FF
FF
03
03
03
03
03
03
03
03
03
03
03
03
03
03
03
03
03
03
03
03
03
03
ENDCHAR
STARTCHAR aj15853.hw
ENCODING 743
SWIDTH 500 0
DWIDTH 16 0
BBX 8 31 3 -4
BITMAP
03
03
03
03
03
03
03
03
03
03
03
03
03
03
FF
FF
03
03
03
03
03
03
03
03
03
03
03
03
03
03
03
ENDCHAR
STARTCHAR aj15854.hw
ENCODING 744
SWIDTH 500 0
DWIDTH 16 0
BBX 8 31 3 -4
BITMAP
03
03
03
03
03
03
03
03
03
03
03
03
03
03
03
03
03
03
03
03
03
03
FF
FF
03
03
03
03
03
03
03
ENDCHAR
STARTCHAR aj15855.hw
ENCODING 745
SWIDTH 500 0
DWIDTH 16 0
BBX 8 31 3 -4
BITMAP
03
03
03
03
03
03
03
03
03
03
03
03
03
03
03
03
03
03
03
03
03
03
03
03
03
03
03
03
03
FF
FF
ENDCHAR
STARTCHAR aj65.hw
ENCODING 768
SWIDTH 500 0
DWIDTH 16 0
BBX 4 3 5 24
BITMAP
E0
70
30
ENDCHAR
STARTCHAR aj127.hw
ENCODING 769
SWIDTH 500 0
DWIDTH 16 0
BBX 4 3 6 24
BITMAP
30
60
C0
ENDCHAR
STARTCHAR aj128.hw
ENCODING 770
SWIDTH 500 0
DWIDTH 16 0
BBX 7 3 4 24
BITMAP
38
6C
C2
ENDCHAR
STARTCHAR aj95.tildecomb.hw
ENCODING 771
SWIDTH 500 0
DWIDTH 16 0
BBX 7 3 4 24
BITMAP
F0
9A
0C
ENDCHAR
STARTCHAR aj129.hw
ENCODING 772
SWIDTH 500 0
DWIDTH 16 0
BBX 8 1 4 26
BITMAP
FF
ENDCHAR
STARTCHAR aj130.hw
ENCODING 774
SWIDTH 500 0
DWIDTH 16 0
BBX 8 2 4 25
BITMAP
C3
7C
ENDCHAR
STARTCHAR aj132.hw
ENCODING 776
SWIDTH 500 0
DWIDTH 16 0
BBX 9 2 3 25
BITMAP
E380
E380
ENDCHAR
STARTCHAR aj135.hw
ENCODING 779
SWIDTH 500 0
DWIDTH 16 0
BBX 7 3 5 24
BITMAP
76
EC
D8
ENDCHAR
STARTCHAR aj137.hw
ENCODING 780
SWIDTH 500 0
DWIDTH 16 0
BBX 7 3 4 24
BITMAP
C2
6C
38
ENDCHAR
STARTCHAR aj15850.hw
ENCODING 783
SWIDTH 500 0
DWIDTH 16 0
BBX 8 3 3 24
BITMAP
EC
66
33
ENDCHAR
STARTCHAR aj15874.hw
ENCODING 792
SWIDTH 500 0
DWIDTH 16 0
BBX 4 3 5 -3
BITMAP
30
F0
30
ENDCHAR
STARTCHAR aj15875.hw
ENCODING 793
SWIDTH 500 0
DWIDTH 16 0
BBX 5 3 6 -3
BITMAP
C0
F8
C0
ENDCHAR
STARTCHAR aj15879.hw
ENCODING 794
SWIDTH 500 0
DWIDTH 16 0
BBX 6 3 9 24
BITMAP
FC
04
04
ENDCHAR
STARTCHAR aj15861.hw
ENCODING 796
SWIDTH 500 0
DWIDTH 16 0
BBX 3 3 6 -3
BITMAP
E0
C0
E0
ENDCHAR
STARTCHAR aj15872.hw
ENCODING 797
SWIDTH 500 0
DWIDTH 16 0
BBX 6 3 5 -3
BITMAP
30
30
FC
ENDCHAR
STARTCHAR aj15873.hw
ENCODING 798
SWIDTH 500 0
DWIDTH 16 0
BBX 6 3 5 -3
BITMAP
FC
30
30
ENDCHAR
STARTCHAR aj15862.hw
ENCODING 799
SWIDTH 500 0
DWIDTH 16 0
BBX 7 3 4 -3
BITMAP
18
FE
18
ENDCHAR
STARTCHAR aj15863.hw
ENCODING 800
SWIDTH 500 0
DWIDTH 16 0
BBX 7 1 4 -2
BITMAP
FE
ENDCHAR
STARTCHAR aj15868.hw
ENCODING 804
SWIDTH 500 0
DWIDTH 16 0
BBX 9 2 3 -3
BITMAP
E380
E380
ENDCHAR
STARTCHAR aj15858.hw
ENCODING 805
SWIDTH 500 0
DWIDTH 16 0
BBX 5 6 5 -4
BITMAP
70
88
88
88
88
70
ENDCHAR
STARTCHAR aj15865.hw
ENCODING 809
SWIDTH 500 0
DWIDTH 16 0
BBX 2 3 7 -3
BITMAP
C0
C0
C0
ENDCHAR
STARTCHAR aj15876.hw
ENCODING 810
SWIDTH 500 0
DWIDTH 16 0
BBX 7 3 4 -3
BITMAP
FE
C6
C6
ENDCHAR
STARTCHAR aj15859.hw
ENCODING 812
SWIDTH 500 0
DWIDTH 16 0
BBX 7 3 4 -3
BITMAP
C2
6C
38
ENDCHAR
STARTCHAR aj15866.hw
ENCODING 815
SWIDTH 500 0
DWIDTH 16 0
BBX 8 3 4 -3
BITMAP
3C
C6
C3
ENDCHAR
STARTCHAR aj15869.hw
ENCODING 816
SWIDTH 500 0
DWIDTH 16 0
BBX 7 3 4 -3
BITMAP
F0
9A
0C
ENDCHAR
STARTCHAR aj15871.hw
ENCODING 820
SWIDTH 500 0
DWIDTH 16 0
BBX 7 3 4 10
BITMAP
F0
9A
0C
ENDCHAR
STARTCHAR aj15860.hw
ENCODING 825
SWIDTH 500 0
DWIDTH 16 0
BBX 3 3 7 -3
BITMAP
E0
60
E0
ENDCHAR
STARTCHAR aj15877.hw
ENCODING 826
SWIDTH 500 0
DWIDTH 16 0
BBX 7 3 4 -3
BITMAP
C6
C6
FE
ENDCHAR
STARTCHAR aj15878.hw
ENCODING 827
SWIDTH 500 0
DWIDTH 16 0
BBX 7 3 4 -3
BITMAP
FE
C6
FE
ENDCHAR
STARTCHAR aj15870.hw
ENCODING 828
SWIDTH 500 0
DWIDTH 16 0
BBX 10 3 3 -3
BITMAP
7380
8CC0
8800
ENDCHAR
STARTCHAR aj15864.hw
ENCODING 829
SWIDTH 500 0
DWIDTH 16 0
BBX 7 3 4 24
BITMAP
6E
38
E6
ENDCHAR
STARTCHAR aj15845.hw
ENCODING 865
SWIDTH 500 0
DWIDTH 16 0
BBX 13 4 1 23
BITMAP
0FC0
7070
C018
8000
ENDCHAR
STARTCHAR aj1011
ENCODING 913
BBX 19 21 6 2
BITMAP
01F000
01F000
01B000
03B800
03B800
071C00
071C00
060C00
0E0E00
0E0E00
1C0700
1C0700
1FFF00
3FFF80
380380
7001C0
7001C0
7001C0
E000E0
E000E0
C00060
ENDCHAR
STARTCHAR aj1012
ENCODING 914
BBX 18 21 8 2
BITMAP
FFF800
FFFE00
E00F00
E00380
E00380
E00380
E00380
E00700
E00E00
FFFC00
FFFE00
E00700
E00380
E001C0
E001C0
E001C0
E001C0
E00380
E00780
FFFF00
FFF800
ENDCHAR
STARTCHAR aj1013
ENCODING 915
BBX 16 21 8 2
BITMAP
FFFF
FFFF
E000
E000
E000
E000
E000
E000
E000
E000
E000
E000
E000
E000
E000
E000
E000
E000
E000
E000
E000
ENDCHAR
STARTCHAR aj1014
ENCODING 916
BBX 21 21 5 2
BITMAP
007000
00F800
00F800
01DC00
01DC00
038E00
038E00
070700
070700
070700
0E0380
0E0380
1C01C0
1C01C0
3800E0
3800E0
7800F0
700070
700070
FFFFF8
FFFFF8
ENDCHAR
STARTCHAR aj1015
ENCODING 917
BBX 16 21 8 2
BITMAP
FFFF
FFFF
E000
E000
E000
E000
E000
E000
E000
FFFC
FFFC
E000
E000
E000
E000
E000
E000
E000
E000
FFFF
FFFF
ENDCHAR
STARTCHAR aj1016
ENCODING 918
BBX 17 21 7 2
BITMAP
FFFF80
FFFF80
000700
000F00
001E00
001C00
003800
007000
00E000
01E000
01C000
038000
070000
0E0000
0C0000
1C0000
380000
700000
E00000
FFFF80
FFFF80
ENDCHAR
STARTCHAR aj1017
ENCODING 919
BBX 17 21 7 2
BITMAP
E00380
E00380
E00380
E00380
E00380
E00380
E00380
E00380
E00380
FFFF80
FFFF80
E00380
E00380
E00380
E00380
E00380
E00380
E00380
E00380
E00380
E00380
ENDCHAR
STARTCHAR aj1018
ENCODING 920
BBX 21 23 5 1
BITMAP
01FC00
07FF00
0F0780
1C01C0
3800E0
7800F0
700070
700070
E00038
E00038
E7FF38
E7FF38
E00038
E00038
E00038
700070
700070
7800F0
3800E0
1C01C0
0F0780
07FF00
01FC00
ENDCHAR
STARTCHAR aj1019
ENCODING 921
BBX 3 21 14 2
BITMAP
E0
E0
E0
E0
E0
E0
E0
E0
E0
E0
E0
E0
E0
E0
E0
E0
E0
E0
E0
E0
E0
ENDCHAR
STARTCHAR aj1020
ENCODING 922
BBX 19 21 7 2
BITMAP
E00780
E00F00
E01E00
E03C00
E07800
E0F000
E1E000
E38000
E78000
EFC000
FDE000
F8E000
F07000
E03800
E03C00
E01E00
E00F00
E00700
E00380
E003C0
E001E0
ENDCHAR
STARTCHAR aj1021
ENCODING 923
BBX 19 21 6 2
BITMAP
00E000
01F000
01F000
03B000
03B800
039800
071C00
071C00
0E0E00
0E0E00
0E0E00
1C0700
1C0700
380380
380380
380380
7001C0
7001C0
E000E0
E000E0
E000E0
ENDCHAR
STARTCHAR aj1022
ENCODING 924
BBX 23 21 4 2
BITMAP
F8003E
F8003E
F8007E
FC007E
EC006E
EE00EE
EE00CE
E600CE
E701CE
E3018E
E3038E
E3838E
E1830E
E1C70E
E1C60E
E0CE0E
E0EE0E
E06C0E
E07C0E
E07C0E
E0380E
ENDCHAR
STARTCHAR aj1023
ENCODING 925
BBX 17 21 7 2
BITMAP
F00380
F80380
FC0380
EC0380
EE0380
E60380
E70380
E30380
E38380
E1C380
E0C380
E0E380
E06380
E07380
E03380
E03B80
E01F80
E00F80
E00F80
E00780
E00780
ENDCHAR
STARTCHAR aj1024
ENCODING 926
BBX 17 21 7 2
BITMAP
FFFF80
FFFF80
000000
000000
000000
000000
000000
000000
000000
7FFF00
7FFF00
000000
000000
000000
000000
000000
000000
000000
000000
FFFF80
FFFF80
ENDCHAR
STARTCHAR aj1025
ENCODING 927
BBX 21 23 5 1
BITMAP
01FC00
07FF00
0F0780
1C01C0
3800E0
7800F0
700070
700070
E00038
E00038
E00038
E00038
E00038
E00038
E00038
700070
700070
7800F0
3800E0
1C01C0
0F0780
07FF00
01FC00
ENDCHAR
STARTCHAR aj1026
ENCODING 928
BBX 17 21 7 2
BITMAP
FFFF80
FFFF80
E00380
E00380
E00380
E00380
E00380
E00380
E00380
E00380
E00380
E00380
E00380
E00380
E00380
E00380
E00380
E00380
E00380
E00380
E00380
ENDCHAR
STARTCHAR aj1027
ENCODING 929
BBX 17 21 8 2
BITMAP
FFF800
FFFE00
E00F00
E00780
E00380
E00380
E00380
E00380
E00700
E00F00
FFFE00
FFF800
E00000
E00000
E00000
E00000
E00000
E00000
E00000
E00000
E00000
ENDCHAR
STARTCHAR aj1028
ENCODING 931
BBX 19 21 6 2
BITMAP
FFFFC0
FFFFC0
700000
380000
1C0000
0E0000
070000
038000
01C000
00F000
00F000
01E000
03C000
078000
0F0000
1E0000
3C0000
780000
700000
FFFFE0
FFFFE0
ENDCHAR
STARTCHAR aj1029
ENCODING 932
BBX 19 21 6 2
BITMAP
FFFFE0
FFFFE0
00E000
00E000
00E000
00E000
00E000
00E000
00E000
00E000
00E000
00E000
00E000
00E000
00E000
00E000
00E000
00E000
00E000
00E000
00E000
ENDCHAR
STARTCHAR aj1030
ENCODING 933
BBX 19 21 6 2
BITMAP
E000E0
F001E0
7001C0
380380
3C0780
1E0F00
0E0E00
071C00
07BC00
03B800
01F000
01F000
00E000
00E000
00E000
00E000
00E000
00E000
00E000
00E000
00E000
ENDCHAR
STARTCHAR aj1031
ENCODING 934
BBX 21 21 5 2
BITMAP
007000
007000
007000
03FE00
0FFF80
3E73E0
7870F0
707070
E07038
E07038
E07038
E07038
E07038
707070
7870F0
3E73E0
0FFFC0
03FE00
007000
007000
007000
ENDCHAR
STARTCHAR aj1032
ENCODING 935
BBX 21 21 5 2
BITMAP
3800E0
3C01E0
1E03C0
0E0380
070700
078F00
038E00
01DC00
00F800
007000
00F800
00F800
01DC00
038E00
078F00
0F0780
1E0380
1C01C0
3C01E0
7800F0
F00078
ENDCHAR
STARTCHAR aj1033
ENCODING 936
BBX 19 21 6 2
BITMAP
E0E0E0
E0E0E0
E0E0E0
E0E0E0
E0E0E0
E0E0E0
E0E0E0
E0E0E0
E0E0E0
E0E0E0
E0E0E0
70E1C0
78E3C0
3EEF80
1FFF00
07FC00
00E000
00E000
00E000
00E000
00E000
ENDCHAR
STARTCHAR aj1034
ENCODING 937
BBX 21 22 5 2
BITMAP
00FC00
03FF00
0F83C0
1E01E0
1C00E0
380070
380070
700038
700038
700038
700038
700038
700078
380070
3800F0
1C01E0
0E03C0
078F80
03DE00
01DC00
FFDFF8
FFDFF8
ENDCHAR
STARTCHAR aj1035
ENCODING 945
BBX 19 16 6 1
BITMAP
00C000
07F1C0
0E31C0
1C3980
381B80
381F00
701F00
701E00
E01C00
E01C00
E03800
E078E0
E0FCE0
F1CCC0
7F8F80
3E0700
ENDCHAR
STARTCHAR aj1036
ENCODING 946
BBX 18 27 6 -3
BITMAP
003E00
00FF00
01C380
0381C0
0301C0
0701C0
0601C0
0E01C0
0C0380
0C0780
19EF00
19FC00
18FC00
380E00
300E00
300700
300700
700700
700700
780E00
6E1E00
67FC00
61F000
E00000
E00000
E00000
E00000
ENDCHAR
STARTCHAR aj1037
ENCODING 947
BBX 17 20 7 -3
BITMAP
3E0000
7F0180
E30380
C38700
418E00
019C00
019800
01B000
01F000
01E000
01C000
018000
018000
038000
038000
078000
078000
070000
070000
060000
ENDCHAR
STARTCHAR aj1038
ENCODING 948
BBX 16 23 8 1
BITMAP
0780
0FF0
1C78
1C1E
1C0F
0E06
0F00
07C0
01E0
03F0
0FF8
1C38
381C
701C
F01C
E01C
E01C
E038
E038
E070
70E0
3FC0
1F80
ENDCHAR
STARTCHAR aj1039
ENCODING 949
BBX 14 16 8 1
BITMAP
0380
0FF0
1C3C
381C
3800
3800
1C00
0FE0
3FE0
7000
E000
E000
E018
F078
7FF0
1F80
ENDCHAR
STARTCHAR aj1040
ENCODING 950
BBX 15 27 9 -3
BITMAP
000E
1C3E
187C
30F8
31F0
3FC0
0F00
0E00
0E00
1C00
3800
3800
7000
7000
7000
E000
E000
E000
F800
7FC0
03E0
0070
0070
2070
78F0
3FE0
0F80
ENDCHAR
STARTCHAR aj1041
ENCODING 951
BBX 17 20 6 -3
BITMAP
1E1F00
3F7F80
73E780
E3C380
438380
030380
070380
070300
060700
0E0700
0E0700
0C0700
1C0600
1C0E00
180E00
000E00
000E00
000E00
001C00
001C00
ENDCHAR
STARTCHAR aj1042
ENCODING 952
BBX 15 23 8 1
BITMAP
01F0
07F8
0E3C
0C1C
180E
300E
300E
700E
600E
600E
FFFE
FFFE
E00E
E00C
E01C
E01C
E018
E038
6030
7070
78E0
3FC0
1F00
ENDCHAR
STARTCHAR aj1043
ENCODING 953
BBX 11 15 10 1
BITMAP
0E00
0E00
1C00
1C00
3800
3800
7000
7000
7000
E080
E0E0
E1C0
E380
7F00
3C00
ENDCHAR
STARTCHAR aj1044
ENCODING 954
BBX 16 15 8 1
BITMAP
0C0E
1C1E
1C7C
19E0
3BC0
3F00
3F00
7380
7180
7180
6187
E186
E1CC
C0FC
0070
ENDCHAR
STARTCHAR aj1045
ENCODING 955
BBX 17 22 6 2
BITMAP
01E000
07F000
0E3800
1C3800
081800
001800
001800
001800
003800
003800
007800
00F800
01DC00
019C00
038C00
070C00
0E0E00
1E0E00
1C0600
380700
700780
F00380
ENDCHAR
STARTCHAR aj1046
ENCODING 956
BBX 20 19 6 -3
BITMAP
0E0380
0E0300
0C0300
0C0700
1C0600
180600
180600
180E00
380C00
380C00
381C30
383C30
747470
77E7E0
63C380
600000
E00000
E00000
E00000
ENDCHAR
STARTCHAR aj1047
ENCODING 957
BBX 14 15 9 1
BITMAP
E01C
E01C
E01C
701C
701C
7018
7038
7030
7070
70E0
71C0
6780
FF00
FC00
E000
ENDCHAR
STARTCHAR aj1048
ENCODING 958
BBX 14 27 8 -3
BITMAP
043C
0FFC
03F8
0700
1C00
1800
3800
3800
3C00
1E70
07F8
0FF8
3C00
7000
E000
E000
E000
F000
7E00
3FE0
0FF0
00F8
0038
2038
3078
7FF0
0FC0
ENDCHAR
STARTCHAR aj1049
ENCODING 959
BBX 15 16 8 1
BITMAP
01C0
0FF0
1E38
381C
780E
700E
700E
E00E
E00E
E01E
E01C
E03C
7038
70F0
3FE0
0F80
ENDCHAR
STARTCHAR aj1050
ENCODING 960
BBX 18 16 7 1
BITMAP
000080
3FFFC0
FFFF00
E61800
063800
0E3000
0C3000
1C7000
1C7000
186000
38E080
38E1C0
70E180
70E380
70FE00
007C00
ENDCHAR
STARTCHAR aj1051
ENCODING 961
BBX 15 20 7 -3
BITMAP
0040
03F8
071C
0E1C
1C0E
180E
380E
300E
300E
700E
701C
701C
783C
6C78
EFF0
E3C0
E000
E000
E000
E000
ENDCHAR
STARTCHAR aj16222.hw
ENCODING 962
SWIDTH 500 0
DWIDTH 16 0
BBX 12 19 2 -3
BITMAP
0F80
1FC0
38E0
7070
6030
6000
6000
7000
3000
3800
1C00
0E00
0700
0380
0180
0180
E380
FF00
3E00
ENDCHAR
STARTCHAR aj1052
ENCODING 963
BBX 17 16 8 1
BITMAP
01FF80
0FFF80
1C7800
383800
701C00
701C00
E01C00
E01C00
E01C00
E01C00
E03800
E03800
607000
70E000
3FC000
0F8000
ENDCHAR
STARTCHAR aj1053
ENCODING 964
BBX 16 16 8 1
BITMAP
0002
3FFF
FFFE
F380
0300
0700
0700
0E00
0E00
0E00
1C00
1C10
1C38
1C78
0FE0
07C0
ENDCHAR
STARTCHAR aj1054
ENCODING 965
BBX 17 16 6 1
BITMAP
060200
1F0700
770700
E70700
470380
0E0380
0E0380
1C0380
1C0380
3C0300
380700
380600
380E00
3C3C00
1FF800
07E000
ENDCHAR
STARTCHAR aj1055
ENCODING 966
BBX 17 25 7 -3
BITMAP
003800
003000
003000
007000
007000
01F000
0FFC00
1E7E00
38E700
70C780
70C380
E1C380
E1C380
E18380
E18380
E38700
738700
7B1E00
3FFC00
1FF000
070000
060000
060000
0E0000
0E0000
ENDCHAR
STARTCHAR aj1056
ENCODING 967
BBX 16 20 7 -3
BITMAP
0C00
3F07
770E
630C
039C
01B8
01F0
01E0
01E0
01C0
03C0
07C0
06C0
0EC0
1CC0
18C3
3863
7067
E07E
E038
ENDCHAR
STARTCHAR aj1057
ENCODING 968
BBX 19 25 6 -3
BITMAP
001C00
001800
001800
003800
003800
003000
0E3100
1E7380
3871C0
7061C0
7060E0
E0E0E0
E0E0E0
E0C0E0
E0C0E0
E1C1C0
7183C0
798780
3FFF00
0FFC00
030000
030000
070000
070000
060000
ENDCHAR
STARTCHAR aj1058
ENCODING 969
BBX 20 16 5 1
BITMAP
020000
0700C0
0F00E0
1E00E0
3C3060
383070
707070
707070
E07070
E06070
E06070
E060E0
E0F0E0
71B1C0
7F1F80
1E0F00
ENDCHAR
STARTCHAR aj1065
ENCODING 1025
BBX 16 25 8 2
BITMAP
3838
3838
0000
0000
FFFF
FFFF
E000
E000
E000
E000
E000
E000
E000
FFFC
FFFC
E000
E000
E000
E000
E000
E000
E000
E000
FFFF
FFFF
ENDCHAR
STARTCHAR aj1059
ENCODING 1040
BBX 19 21 6 2
BITMAP
01F000
01F000
01B000
03B800
03B800
071C00
071C00
060C00
0E0E00
0E0E00
1C0700
1C0700
1FFF00
3FFF80
380380
7001C0
7001C0
7001C0
E000E0
E000E0
C00060
ENDCHAR
STARTCHAR aj1060
ENCODING 1041
BBX 17 21 8 2
BITMAP
FFFF00
FFFF00
E00000
E00000
E00000
E00000
E00000
E00000
E00000
FFF800
FFFE00
E00F00
E00700
E00380
E00380
E00380
E00380
E00700
E00F00
FFFE00
FFF800
ENDCHAR
STARTCHAR aj1061
ENCODING 1042
BBX 18 21 8 2
BITMAP
FFF800
FFFE00
E00F00
E00380
E00380
E00380
E00380
E00700
E00E00
FFFC00
FFFE00
E00700
E00380
E001C0
E001C0
E001C0
E001C0
E00380
E00780
FFFF00
FFF800
ENDCHAR
STARTCHAR aj1062
ENCODING 1043
BBX 16 21 8 2
BITMAP
FFFF
FFFF
E000
E000
E000
E000
E000
E000
E000
E000
E000
E000
E000
E000
E000
E000
E000
E000
E000
E000
E000
ENDCHAR
STARTCHAR aj1063
ENCODING 1044
BBX 21 25 5 -2
BITMAP
03FFC0
03FFC0
0301C0
0301C0
0301C0
0301C0
0301C0
0301C0
0301C0
0701C0
0701C0
0701C0
0601C0
0E01C0
0E01C0
0E01C0
1C01C0
1C01C0
1801C0
FFFFF8
FFFFF8
E00038
E00038
E00038
E00038
ENDCHAR
STARTCHAR aj1064
ENCODING 1045
BBX 16 21 8 2
BITMAP
FFFF
FFFF
E000
E000
E000
E000
E000
E000
E000
FFFC
FFFC
E000
E000
E000
E000
E000
E000
E000
E000
FFFF
FFFF
ENDCHAR
STARTCHAR aj1066
ENCODING 1046
BBX 25 21 3 2
BITMAP
701C0700
301C0600
301C0E00
381C0E00
181C0C00
1C1C1C00
1C1C1C00
0E1C3800
07FFF000
03FFE000
03BCE000
031C6000
071C7000
0E1C3800
0E1C3800
1C1C1C00
3C1C1C00
381C0E00
701C0700
701C0700
E01C0380
ENDCHAR
STARTCHAR aj1067
ENCODING 1047
BBX 18 23 6 1
BITMAP
03F800
0FFE00
1E0F00
380700
780380
700380
000380
000380
000700
000E00
01FC00
01FE00
001F00
000380
0001C0
0001C0
0001C0
E001C0
F001C0
700380
3C0F00
1FFE00
07F800
ENDCHAR
STARTCHAR aj1068
ENCODING 1048
BBX 17 21 7 2
BITMAP
E00380
E00380
E00380
E00780
E00F80
E01F80
E01F80
E03B80
E07380
E0E380
E1C380
E38380
E70380
EE0380
FC0380
F80380
F00380
E00380
E00380
E00380
E00380
ENDCHAR
STARTCHAR aj1069
ENCODING 1049
BBX 17 25 7 2
BITMAP
0C1800
0E3800
07F000
03E000
E00380
E00380
E00380
E00780
E00F80
E00F80
E01F80
E03B80
E07380
E0E380
E1C380
E38380
E70380
EE0380
FC0380
F80380
F00380
F00380
E00380
E00380
E00380
ENDCHAR
STARTCHAR aj1070
ENCODING 1050
BBX 19 21 7 2
BITMAP
E00380
E00380
E00380
E00700
E00700
E00E00
E01C00
E03C00
E1F000
FFE000
FFE000
E07000
E03800
E03C00
E01C00
E00E00
E00700
E00780
E00380
E001C0
E001E0
ENDCHAR
STARTCHAR aj1071
ENCODING 1051
BBX 21 22 3 1
BITMAP
007FF8
007FF8
007038
007038
007038
007038
007038
007038
007038
007038
007038
007038
007038
00E038
00E038
00E038
E0E038
60C038
71C038
73C038
3F8038
1E0000
ENDCHAR
STARTCHAR aj1072
ENCODING 1052
BBX 23 21 4 2
BITMAP
F8003E
F8003E
F8007E
FC007E
EC006E
EE00EE
EE00CE
E600CE
E701CE
E3018E
E3038E
E3838E
E1830E
E1C70E
E1C60E
E0CE0E
E0EE0E
E06C0E
E07C0E
E07C0E
E0380E
ENDCHAR
STARTCHAR aj1073
ENCODING 1053
BBX 17 21 7 2
BITMAP
E00380
E00380
E00380
E00380
E00380
E00380
E00380
E00380
E00380
FFFF80
FFFF80
E00380
E00380
E00380
E00380
E00380
E00380
E00380
E00380
E00380
E00380
ENDCHAR
STARTCHAR aj1074
ENCODING 1054
BBX 21 23 5 1
BITMAP
01FC00
07FF00
0F0780
1C01C0
3800E0
7800F0
700070
700070
E00038
E00038
E00038
E00038
E00038
E00038
E00038
700070
700070
7800F0
3800E0
1C01C0
0F0780
07FF00
01FC00
ENDCHAR
STARTCHAR aj1075
ENCODING 1055
BBX 17 21 7 2
BITMAP
FFFF80
FFFF80
E00380
E00380
E00380
E00380
E00380
E00380
E00380
E00380
E00380
E00380
E00380
E00380
E00380
E00380
E00380
E00380
E00380
E00380
E00380
ENDCHAR
STARTCHAR aj1076
ENCODING 1056
BBX 17 21 8 2
BITMAP
FFF800
FFFE00
E00F00
E00780
E00380
E00380
E00380
E00380
E00700
E00F00
FFFE00
FFF800
E00000
E00000
E00000
E00000
E00000
E00000
E00000
E00000
E00000
ENDCHAR
STARTCHAR aj1077
ENCODING 1057
BBX 20 23 5 1
BITMAP
01FC00
07FF00
0F0780
1C01C0
3800E0
7800E0
700070
700000
E00000
E00000
E00000
E00000
E00000
E00000
E00000
600070
700070
7000F0
3800E0
1C01C0
1F0780
07FF00
01FC00
ENDCHAR
STARTCHAR aj1078
ENCODING 1058
BBX 19 21 6 2
BITMAP
FFFFE0
FFFFE0
00E000
00E000
00E000
00E000
00E000
00E000
00E000
00E000
00E000
00E000
00E000
00E000
00E000
00E000
00E000
00E000
00E000
00E000
00E000
ENDCHAR
STARTCHAR aj1079
ENCODING 1059
BBX 18 21 7 2
BITMAP
E001C0
7001C0
3001C0
380380
1C0380
1C0700
0E0700
0E0600
070E00
070C00
039C00
039800
01F800
01F800
00F000
007000
006000
00E000
01C000
7F8000
7F0000
ENDCHAR
STARTCHAR aj1080
ENCODING 1060
BBX 21 21 5 2
BITMAP
007000
007000
007000
03FE00
0FFF80
3E73E0
7870F0
707070
E07038
E07038
E07038
E07038
E07038
707070
7870F0
3E73E0
1FFF80
03FE00
007000
007000
007000
ENDCHAR
STARTCHAR aj1081
ENCODING 1061
BBX 21 21 5 2
BITMAP
3800E0
3C01E0
1E03C0
0E0380
070700
078F00
038E00
01DC00
00F800
007000
00F800
00F800
01DC00
038E00
078F00
0F0780
1E0380
1C01C0
3C01E0
7800F0
F00078
ENDCHAR
STARTCHAR aj1082
ENCODING 1062
BBX 20 25 7 -2
BITMAP
E00380
E00380
E00380
E00380
E00380
E00380
E00380
E00380
E00380
E00380
E00380
E00380
E00380
E00380
E00380
E00380
E00380
E00380
E00380
FFFFF0
FFFFF0
000070
000070
000070
000070
ENDCHAR
STARTCHAR aj1083
ENCODING 1063
BBX 15 21 8 2
BITMAP
E00E
E00E
E00E
E00E
E00E
E00E
E00E
E00E
E00E
E00E
F01E
787E
7FEE
1F8E
000E
000E
000E
000E
000E
000E
000E
ENDCHAR
STARTCHAR aj1084
ENCODING 1064
BBX 23 21 4 2
BITMAP
E0380E
E0380E
E0380E
E0380E
E0380E
E0380E
E0380E
E0380E
E0380E
E0380E
E0380E
E0380E
E0380E
E0380E
E0380E
E0380E
E0380E
E0380E
E0380E
FFFFFE
FFFFFE
ENDCHAR
STARTCHAR aj1085
ENCODING 1065
BBX 25 25 4 -2
BITMAP
E0381C00
E0381C00
E0381C00
E0381C00
E0381C00
E0381C00
E0381C00
E0381C00
E0381C00
E0381C00
E0381C00
E0381C00
E0381C00
E0381C00
E0381C00
E0381C00
E0381C00
E0381C00
E0381C00
FFFFFF80
FFFFFF80
00000380
00000380
00000380
00000380
ENDCHAR
STARTCHAR aj1086
ENCODING 1066
BBX 23 21 4 2
BITMAP
FF8000
FF8000
038000
038000
038000
038000
038000
038000
038000
03FFC0
03FFF8
03803C
03801C
03800E
03800E
03800E
03800E
03801C
03807C
03FFF8
03FFC0
ENDCHAR
STARTCHAR aj1087
ENCODING 1067
BBX 21 21 5 2
BITMAP
E00038
E00038
E00038
E00038
E00038
E00038
E00038
E00038
E00038
FFE038
FFF838
E03C38
E01C38
E00E38
E00E38
E00E38
E00E38
E01C38
E03C38
FFF838
FFE038
ENDCHAR
STARTCHAR aj1088
ENCODING 1068
BBX 18 21 8 2
BITMAP
E00000
E00000
E00000
E00000
E00000
E00000
E00000
E00000
E00000
FFF800
FFFF00
E00780
E00380
E001C0
E001C0
E001C0
E001C0
E00380
E00780
FFFF00
FFF800
ENDCHAR
STARTCHAR aj1089
ENCODING 1069
BBX 20 23 6 1
BITMAP
01F800
07FE00
1E0F00
3C0380
3801C0
7000E0
7000E0
0000E0
000070
000070
1F8270
1FFE70
107E70
000070
000070
0000F0
E000E0
7000E0
7001C0
3803C0
1E0F80
0FFE00
03F800
ENDCHAR
STARTCHAR aj1090
ENCODING 1070
BBX 24 23 5 1
BITMAP
000FC0
E03FF0
E07878
E0E01C
E0E01C
E1C00E
E1C00E
E18007
E38007
E38007
FF8007
FF8007
E38007
E38007
E18007
E1800F
E1C00E
E1C01E
E0E01C
E0603C
E07878
E03FF0
000FC0
ENDCHAR
STARTCHAR aj1091
ENCODING 1071
BBX 17 21 7 2
BITMAP
0FFF80
3FFF80
780380
F00380
E00380
E00380
E00380
F00380
780380
3FFF80
0FFF80
038380
070380
070380
0E0380
1E0380
1C0380
380380
780380
F00380
E00380
ENDCHAR
STARTCHAR aj1092
ENCODING 1072
BBX 16 16 8 1
BITMAP
0FC0
3FF0
7878
7038
601C
001C
03FC
1FFC
7C1C
F01C
E01C
E01C
E03C
F0FC
7FDF
1F0F
ENDCHAR
STARTCHAR aj1093
ENCODING 1073
BBX 15 22 8 1
BITMAP
001C
0078
03F8
0FC0
1E00
3800
3000
73C0
6FF0
F838
F01C
F01C
E00E
E00E
E00E
E00E
E00E
701C
701C
3C78
1FF0
07C0
ENDCHAR
STARTCHAR aj1094
ENCODING 1074
BBX 13 14 9 2
BITMAP
FFC0
FFE0
E0F0
E070
E070
E0E0
FFC0
FFE0
E070
E038
E038
E078
FFF0
FFE0
ENDCHAR
STARTCHAR aj1095
ENCODING 1075
BBX 12 14 10 2
BITMAP
FFF0
FFF0
E000
E000
E000
E000
E000
E000
E000
E000
E000
E000
E000
E000
ENDCHAR
STARTCHAR aj1096
ENCODING 1076
BBX 16 18 7 -2
BITMAP
07FC
07FC
061C
061C
061C
061C
0E1C
0C1C
0C1C
1C1C
181C
181C
FFFF
FFFF
E007
E007
E007
E007
ENDCHAR
STARTCHAR aj1097
ENCODING 1077
BBX 15 16 8 1
BITMAP
0FE0
1FF0
3878
701C
600C
E00E
FFFE
FFFE
C000
C000
E000
600E
701C
383C
1FF8
07E0
ENDCHAR
STARTCHAR aj1099
ENCODING 1078
BBX 21 14 5 2
BITMAP
707070
707070
3870E0
3870E0
1C71C0
0FFF80
07FF00
0EFB80
0C7180
1C71C0
3870E0
3870E0
707070
F07078
ENDCHAR
STARTCHAR aj1100
ENCODING 1079
BBX 13 16 9 1
BITMAP
1F80
3FE0
70F0
E070
0070
00F0
0FC0
0FE0
0070
0038
0038
0038
E038
F070
7FE0
1FC0
ENDCHAR
STARTCHAR aj1101
ENCODING 1080
BBX 13 14 9 2
BITMAP
E038
E038
E078
E0F8
E1F8
E3B8
E738
EE38
FE38
FC38
F838
F038
E038
E038
ENDCHAR
STARTCHAR aj1102
ENCODING 1081
BBX 13 20 9 2
BITMAP
3060
3060
18E0
0FC0
0780
0000
E038
E038
E078
E0F8
E1F8
E3B8
E738
EE38
FE38
FC38
F838
F038
E038
E038
ENDCHAR
STARTCHAR aj1103
ENCODING 1082
BBX 15 14 9 2
BITMAP
E038
E038
E030
E070
E0E0
E3C0
FF80
FDC0
E1C0
E0E0
E070
E038
E01C
E01E
ENDCHAR
STARTCHAR aj1104
ENCODING 1083
BBX 17 15 5 1
BITMAP
01FF80
01FF80
01C380
01C380
018380
018380
018380
018380
018380
038380
E38380
E30380
670380
7E0380
3C0000
ENDCHAR
STARTCHAR aj1105
ENCODING 1084
BBX 15 14 8 2
BITMAP
F03E
F83E
F83E
F87E
EC6E
EC6E
EC6E
E4CE
E6CE
E6CE
E68E
E38E
E38E
E38E
ENDCHAR
STARTCHAR aj1106
ENCODING 1085
BBX 13 14 9 2
BITMAP
E038
E038
E038
E038
E038
FFF8
FFF8
E038
E038
E038
E038
E038
E038
E038
ENDCHAR
STARTCHAR aj1107
ENCODING 1086
BBX 15 16 8 1
BITMAP
0100
0FE0
3C78
783C
701C
E00E
E00E
E00E
E00E
E00E
E00E
701C
701C
3C78
3FF0
0FC0
ENDCHAR
STARTCHAR aj1108
ENCODING 1087
BBX 13 14 9 2
BITMAP
FFF8
FFF8
E038
E038
E038
E038
E038
E038
E038
E038
E038
E038
E038
E038
ENDCHAR
STARTCHAR aj1109
ENCODING 1088
BBX 15 20 9 -3
BITMAP
0180
C7F0
FC78
F81C
F01C
E00E
E00E
E00E
E00E
E00E
E00E
F01C
F01C
FC38
EFF0
E3E0
E000
E000
E000
E000
ENDCHAR
STARTCHAR aj1110
ENCODING 1089
BBX 15 16 8 1
BITMAP
0FE0
1FF0
3C38
701C
700C
E000
E000
E000
E000
E000
E00E
700C
701C
3C38
1FF0
07C0
ENDCHAR
STARTCHAR aj1111
ENCODING 1090
BBX 13 14 9 2
BITMAP
FFF8
FFF8
0700
0700
0700
0700
0700
0700
0700
0700
0700
0700
0700
0700
ENDCHAR
STARTCHAR aj1112
ENCODING 1091
BBX 15 19 8 -3
BITMAP
E00E
E00E
601C
701C
3038
3838
1830
1C70
0C60
0EE0
06C0
07C0
03C0
0380
0380
0700
0F00
FE00
FC00
ENDCHAR
STARTCHAR aj1113
ENCODING 1092
BBX 21 26 5 -3
BITMAP
007000
007000
007000
007000
007000
007000
0E7380
3FFFE0
79FCE0
70F870
E07030
E07038
E07038
E07038
E07038
E07038
E07038
E07038
70F870
78F8F0
3FFFE0
0F7780
007000
007000
007000
007000
ENDCHAR
STARTCHAR aj1114
ENCODING 1093
BBX 17 14 7 2
BITMAP
780F00
380E00
1C1C00
0E3800
077000
03E000
01C000
03E000
077000
0E3800
1C1C00
3C1E00
780F00
F00780
ENDCHAR
STARTCHAR aj1115
ENCODING 1094
BBX 16 18 9 -2
BITMAP
E038
E038
E038
E038
E038
E038
E038
E038
E038
E038
E038
E038
FFFF
FFFF
0007
0007
0007
0007
ENDCHAR
STARTCHAR aj1116
ENCODING 1095
BBX 14 14 8 2
BITMAP
E01C
E01C
E01C
E01C
E01C
E01C
F07C
7FFC
3F9C
001C
001C
001C
001C
001C
ENDCHAR
STARTCHAR aj1117
ENCODING 1096
BBX 19 14 6 2
BITMAP
E0E0E0
E0E0E0
E0E0E0
E0E0E0
E0E0E0
E0E0E0
E0E0E0
E0E0E0
E0E0E0
E0E0E0
E0E0E0
E0E0E0
FFFFE0
FFFFE0
ENDCHAR
STARTCHAR aj1118
ENCODING 1097
BBX 21 18 6 -2
BITMAP
E0E0E0
E0E0E0
E0E0E0
E0E0E0
E0E0E0
E0E0E0
E0E0E0
E0E0E0
E0E0E0
E0E0E0
E0E0E0
E0E0E0
FFFFF8
FFFFF8
000038
000038
000038
000038
ENDCHAR
STARTCHAR aj1119
ENCODING 1098
BBX 18 14 6 2
BITMAP
FE0000
FE0000
0E0000
0E0000
0FFE00
0FFF00
0E0380
0E01C0
0E01C0
0E01C0
0E01C0
0E0380
0FFF80
0FFE00
ENDCHAR
STARTCHAR aj1120
ENCODING 1099
BBX 19 14 6 2
BITMAP
E000E0
E000E0
E000E0
E000E0
FFC0E0
FFF0E0
E038E0
E01CE0
E01CE0
E01CE0
E01CE0
E038E0
FFF0E0
FFC0E0
ENDCHAR
STARTCHAR aj1121
ENCODING 1100
BBX 14 14 9 2
BITMAP
E000
E000
E000
E000
FFE0
FFF0
E038
E01C
E01C
E01C
E01C
E038
FFF8
FFE0
ENDCHAR
STARTCHAR aj1122
ENCODING 1101
BBX 16 16 8 1
BITMAP
07C0
1FF0
3C3C
701C
E00E
000F
0E07
1FE7
11E7
0007
0007
E00E
701E
783C
3FF8
0FE0
ENDCHAR
STARTCHAR aj1123
ENCODING 1102
BBX 21 16 6 1
BITMAP
003F80
E07FC0
E0F1E0
E1C0F0
E1C070
E38038
FF8038
FF8038
E38038
E38038
E18038
E1C070
E0C070
E0F1E0
E07FC0
001F00
ENDCHAR
STARTCHAR aj1124
ENCODING 1103
BBX 14 14 8 2
BITMAP
0FFC
3FFC
781C
701C
701C
781C
3FFC
0FFC
0E1C
1C1C
1C1C
381C
701C
E01C
ENDCHAR
STARTCHAR aj1098
ENCODING 1105
BBX 16 20 7 1
BITMAP
1C1C
1C1C
0000
0000
0FF0
1FF8
3C1C
780E
7007
E003
FFFF
FFFF
E000
E000
E000
7007
7807
3C1E
1FFC
07F0
ENDCHAR
STARTCHAR aj15729.hw
ENCODING 7742
SWIDTH 500 0
DWIDTH 16 0
BBX 13 25 1 2
BITMAP
0380
0300
0600
0000
E038
E038
E078
F078
F078
F078
F078
D0D8
D8D8
D8D8
D8D8
D8D8
C998
CD98
CD98
CD98
CD98
CF18
C718
C718
C718
ENDCHAR
STARTCHAR aj15730.hw
ENCODING 7743
SWIDTH 500 0
DWIDTH 16 0
BBX 13 19 1 2
BITMAP
0180
0700
0000
0000
0000
DEF0
FFF8
E398
C318
C318
C318
C318
C318
C318
C318
C318
C318
C318
C318
ENDCHAR
STARTCHAR aj9420.hw
ENCODING 8048
SWIDTH 500 0
DWIDTH 16 0
BBX 13 19 2 2
BITMAP
1C00
0600
0000
0000
0000
1F60
3FE0
70E0
60E0
C060
C060
C060
C060
C060
C060
60E0
71E0
3FF8
1F38
ENDCHAR
STARTCHAR aj9419.hw
ENCODING 8049
SWIDTH 500 0
DWIDTH 16 0
BBX 13 19 2 2
BITMAP
0300
0600
0000
0000
0000
1F60
3FE0
70E0
60E0
C060
C060
C060
C060
C060
C060
60E0
71E0
3FF8
1F38
ENDCHAR
STARTCHAR aj9434.hw
ENCODING 8050
SWIDTH 500 0
DWIDTH 16 0
BBX 12 19 2 2
BITMAP
0C00
0600
0000
0000
0000
1F80
3FE0
70E0
6000
6000
7000
3F00
3F00
6000
C000
C000
E0F0
7FE0
1F80
ENDCHAR
STARTCHAR aj9433.hw
ENCODING 8051
SWIDTH 500 0
DWIDTH 16 0
BBX 12 19 2 2
BITMAP
0380
0600
0000
0000
0000
1F80
3FE0
70E0
6000
6000
7000
3F00
3F00
6000
C000
C000
E0F0
7FE0
1F80
ENDCHAR
STARTCHAR aj662
ENCODING 8208
BBX 9 2 11 11
BITMAP
FF80
FF80
ENDCHAR
STARTCHAR aj114.hw
ENCODING 8211
SWIDTH 500 0
DWIDTH 16 0
BBX 6 2 5 11
BITMAP
FC
FC
ENDCHAR
STARTCHAR aj661.dup9
ENCODING 8212
BBX 27 2 2 11
BITMAP
FFFFFFE0
FFFFFFE0
ENDCHAR
STARTCHAR aj661
ENCODING 8213
BBX 27 2 2 11
BITMAP
FFFFFFE0
FFFFFFE0
ENDCHAR
STARTCHAR aj666
ENCODING 8214
BBX 9 31 11 -4
BITMAP
C180
C180
C180
C180
C180
C180
C180
C180
C180
C180
C180
C180
C180
C180
C180
C180
C180
C180
C180
C180
C180
C180
C180
C180
C180
C180
C180
C180
C180
C180
C180
ENDCHAR
STARTCHAR aj670
ENCODING 8216
BBX 4 9 25 17
BITMAP
30
30
60
60
C0
F0
F0
F0
F0
ENDCHAR
STARTCHAR aj671
ENCODING 8217
BBX 4 8 2 18
BITMAP
F0
F0
F0
F0
30
60
60
C0
ENDCHAR
STARTCHAR aj672
ENCODING 8220
BBX 10 9 19 17
BITMAP
30C0
20C0
6180
6180
C300
F3C0
F3C0
F3C0
F3C0
ENDCHAR
STARTCHAR aj673
ENCODING 8221
BBX 11 8 2 18
BITMAP
F1E0
F1E0
F1E0
F1E0
3060
60C0
60C0
C180
ENDCHAR
STARTCHAR aj776
ENCODING 8224
BBX 14 28 9 -2
BITMAP
0300
0780
0780
0780
0700
0300
F33C
FFFC
FFFC
7338
0300
0780
0780
0780
0780
0300
0300
0300
0300
0300
0300
0300
0300
0300
0300
0300
0300
0300
ENDCHAR
STARTCHAR aj777
ENCODING 8225
BBX 13 29 9 -3
BITMAP
0700
0700
0700
0700
F278
FFF8
FFF8
E238
0700
0700
0700
0200
0200
0200
0200
0200
0200
0700
0700
0700
0700
F278
FFF8
FAF8
0200
0700
0700
0700
0700
ENDCHAR
STARTCHAR aj12256.hw
ENCODING 8226
SWIDTH 500 0
DWIDTH 16 0
BBX 7 7 4 8
BITMAP
38
7C
FE
FE
FE
7C
38
ENDCHAR
STARTCHAR aj669
ENCODING 8229
BBX 19 4 6 10
BITMAP
F001E0
F001E0
F001E0
F001E0
ENDCHAR
STARTCHAR aj668
ENCODING 8230
BBX 25 3 3 11
BITMAP
E01C0380
E01C0380
E01C0380
ENDCHAR
STARTCHAR aj772
ENCODING 8240
BBX 28 28 1 -2
BITMAP
00006000
0000E000
1E00C000
3F018000
73038000
61830000
61860000
61860000
618C0000
619C0000
61980000
33B00000
3F300000
1E600000
00E783C0
00CFC7E0
019CCE60
01986C30
03186C30
07186C30
06186C30
0C186C30
0C186C30
180CE670
380FC7E0
300783C0
60000000
E0000000
ENDCHAR
STARTCHAR aj708
ENCODING 8242
BBX 4 8 2 18
BITMAP
30
70
60
60
60
40
C0
C0
ENDCHAR
STARTCHAR aj709
ENCODING 8243
BBX 9 8 2 18
BITMAP
3380
7380
6300
6300
6300
4200
C600
C600
ENDCHAR
STARTCHAR aj734
ENCODING 8251
BBX 25 25 3 -1
BITMAP
C0180180
E03C0300
703C0700
38180E00
1C001C00
0E003800
07007000
0380E000
01C1C000
00E38000
60770700
F03E0F00
F01C0F00
603E0600
00770000
00E38000
01C1C000
0380E000
07007000
0E003800
1C181C00
383C0E00
703C0700
E0180380
40000100
ENDCHAR
STARTCHAR aj12111.hw
ENCODING 8252
SWIDTH 500 0
DWIDTH 16 0
BBX 10 25 3 0
BITMAP
E1C0
E1C0
E1C0
E1C0
E1C0
E1C0
E1C0
E1C0
E1C0
E1C0
E1C0
E1C0
E1C0
E1C0
E1C0
E1C0
E1C0
E1C0
E1C0
0000
0000
0000
E1C0
E1C0
E1C0
ENDCHAR
STARTCHAR aj649.dup10
ENCODING 8254
BBX 1 1 30 27
BITMAP
00
ENDCHAR
STARTCHAR aj15849.hw
ENCODING 8255
SWIDTH 500 0
DWIDTH 16 0
BBX 12 4 2 -4
BITMAP
8010
C020
60C0
1F00
ENDCHAR
STARTCHAR aj16282
ENCODING 8258
SWIDTH 500 0
DWIDTH 16 0
BBX 14 19 1 2
BITMAP
0300
1B40
1EC0
0700
0F80
1BC0
0300
0300
0000
0000
3020
3020
B5AC
6CF8
1020
68F8
B5AC
3020
3020
ENDCHAR
STARTCHAR aj16278.hw
ENCODING 8263
SWIDTH 500 0
DWIDTH 16 0
BBX 13 25 1 0
BITMAP
3870
78F0
4CD8
CDD8
CDD8
CDD8
0C98
0C18
1838
1830
3830
3030
3070
7060
6060
6060
6060
6060
6060
0000
0000
0000
70E0
70E0
70E0
ENDCHAR
STARTCHAR aj16279.hw
ENCODING 8264
SWIDTH 500 0
DWIDTH 16 0
BBX 13 25 1 0
BITMAP
1C38
7E38
6738
6338
C338
C338
C338
0338
0638
0638
0E38
0C38
1C38
1838
3838
3838
3838
3010
3010
0000
0000
0000
3838
3838
3838
ENDCHAR
STARTCHAR aj12112.hw
ENCODING 8265
SWIDTH 500 0
DWIDTH 16 0
BBX 12 25 2 0
BITMAP
E3C0
E7E0
E660
E630
EC30
EC30
EC30
E030
E060
E060
E0E0
E0C0
E1C0
E180
E380
E380
E380
4300
4300
0000
0000
0000
E380
E380
E380
ENDCHAR
STARTCHAR aj16281
ENCODING 8273
BBX 9 24 11 0
BITMAP
1800
1800
D980
EB80
3E00
1C00
EB80
C980
1800
1800
1800
0000
0000
0000
1800
1800
D980
EB80
3E00
1C00
EB80
D980
1800
1800
ENDCHAR
STARTCHAR aj9354.hw
ENCODING 8364
SWIDTH 500 0
DWIDTH 16 0
BBX 13 21 1 2
BITMAP
07C0
0FE0
1C70
1830
3838
3000
3000
FFC0
FFC0
3000
3000
3000
FFC0
FFC0
3000
3018
3838
1830
1C70
0FF0
07C0
ENDCHAR
STARTCHAR aj710
ENCODING 8451
BBX 26 25 2 1
BITMAP
38000000
44000000
820FE000
823FF800
82781C00
44F00E00
39E00700
03C00380
03800380
03800000
07000000
07000000
07000000
07000000
07000000
07000000
07000000
030003C0
03800380
03800380
01C00700
00E00F00
00F83E00
003FF800
000FE000
ENDCHAR
STARTCHAR aj15514.hw
ENCODING 8463
SWIDTH 500 0
DWIDTH 16 0
BBX 13 21 1 2
BITMAP
0C00
0C00
0C00
1FC0
7F00
5800
1800
19F0
3BF8
3618
3C18
3818
7018
7018
7030
6030
6030
E030
E070
C060
C060
ENDCHAR
STARTCHAR aj8025.hw
ENCODING 8467
SWIDTH 500 0
DWIDTH 16 0
BBX 13 21 1 2
BITMAP
01E0
03E0
0730
0630
0E30
0C30
0C30
1C30
1870
1860
1860
18E0
18C0
19C0
1980
1B00
1F18
1E18
7C38
FFF0
43C0
ENDCHAR
STARTCHAR aj7610
ENCODING 8470
BBX 27 22 2 1
BITMAP
E0300000
F0300000
F0300000
F8300000
F8300000
D8300000
DC307000
CC30FC00
CE318C00
C6318C00
C7330600
C3330600
C3B30600
C1B30600
C1F30600
C1F30600
C0F30600
C0F30600
C0718CE0
C0718CE0
C030F8E0
00007000
ENDCHAR
STARTCHAR aj8055
ENCODING 8481
BBX 27 21 2 2
BITMAP
FFC00000
FFC00000
0C000000
0C000000
0C000000
0C3F8C00
0C3F8C00
0C300C00
0C300C00
0C300C00
0C300C00
0C300C00
0C3F8C00
0C3F8C00
0C300C00
0C300C00
0C300C00
0C300C00
0C300C00
0C3FCFE0
0C3FCFE0
ENDCHAR
STARTCHAR aj15515.hw
ENCODING 8487
SWIDTH 500 0
DWIDTH 16 0
BBX 13 21 1 2
BITMAP
FDF8
FDF8
0D80
0D80
18C0
3060
6030
6030
C018
C018
C018
C018
C018
C018
C018
C038
6030
6070
30E0
1FC0
0F80
ENDCHAR
STARTCHAR aj771
ENCODING 8491
BBX 21 24 5 2
BITMAP
00F800
018C00
010400
010C00
00F800
000000
007000
00F800
00D800
01DC00
018C00
038E00
030600
070700
060300
0E0380
0FFF80
1FFFC0
1C01C0
3800E0
3800E0
700070
700070
E00038
ENDCHAR
STARTCHAR aj15513.hw
ENCODING 8501
SWIDTH 500 0
DWIDTH 16 0
BBX 14 22 1 1
BITMAP
3020
3060
6060
6078
6078
607C
70CC
3998
1D80
1F00
7780
63C0
60E0
6070
6030
3038
3018
3018
3018
7038
E030
0020
ENDCHAR
STARTCHAR aj9375.hw
ENCODING 8531
SWIDTH 500 0
DWIDTH 16 0
BBX 15 28 0 -2
BITMAP
0C0C
7C08
6C18
0C18
0C30
0C30
0C20
0C60
0C40
0CC0
0C80
0D80
0D80
0F00
0338
027C
06CE
04C6
0C06
0C06
180C
1838
300C
3006
20C6
60C6
407E
C03C
ENDCHAR
STARTCHAR aj9376.hw
ENCODING 8532
SWIDTH 500 0
DWIDTH 16 0
BBX 14 28 1 -2
BITMAP
3800
7C18
6610
C630
C630
0660
0C60
1840
38C0
6080
6180
C180
FF00
0370
06F8
079C
0D8C
0D8C
0C0C
180C
1818
1070
3018
200C
618C
618C
40FC
C078
ENDCHAR
STARTCHAR aj15727.hw
ENCODING 8533
SWIDTH 500 0
DWIDTH 16 0
BBX 15 29 0 -3
BITMAP
0C0C
7C08
6C18
0C10
0C30
0C20
0C60
0C60
0C40
0CC0
0C80
0D80
0D00
0F00
037C
02C0
06C0
04C0
0CF8
0CFC
18CC
18C6
1006
3006
2006
60C6
60CE
C07C
0038
ENDCHAR
STARTCHAR aj7575
ENCODING 8544
BBX 3 21 14 2
BITMAP
E0
E0
E0
E0
E0
E0
E0
E0
E0
E0
E0
E0
E0
E0
E0
E0
E0
E0
E0
E0
E0
ENDCHAR
STARTCHAR aj7576
ENCODING 8545
BBX 11 21 10 2
BITMAP
E0E0
E0E0
E0E0
E0E0
E0E0
E0E0
E0E0
E0E0
E0E0
E0E0
E0E0
E0E0
E0E0
E0E0
E0E0
E0E0
E0E0
E0E0
E0E0
E0E0
E0E0
ENDCHAR
STARTCHAR aj7577
ENCODING 8546
BBX 19 21 6 2
BITMAP
E0E0E0
E0E0E0
E0E0E0
E0E0E0
E0E0E0
E0E0E0
E0E0E0
E0E0E0
E0E0E0
E0E0E0
E0E0E0
E0E0E0
E0E0E0
E0E0E0
E0E0E0
E0E0E0
E0E0E0
E0E0E0
E0E0E0
E0E0E0
E0E0E0
ENDCHAR
STARTCHAR aj7578
ENCODING 8547
BBX 23 21 5 2
BITMAP
E7000E
E7000E
E3800E
E3801C
E1C01C
E1C01C
E1C038
E0E038
E0E030
E0E070
E07070
E070E0
E030E0
E038E0
E039C0
E01DC0
E01D80
E01F80
E00F80
E00F00
E00700
ENDCHAR
STARTCHAR aj7579
ENCODING 8548
BBX 19 21 6 2
BITMAP
E000E0
E000E0
F001E0
7001C0
7001C0
380380
380380
380380
1C0700
1C0700
0E0E00
0E0E00
0E0E00
071C00
071C00
03B800
03B800
01B000
01F000
01F000
00E000
ENDCHAR
STARTCHAR aj7580
ENCODING 8549
BBX 23 21 3 2
BITMAP
E001CE
E001CE
E0038E
70038E
70070E
70070E
38070E
380E0E
180E0E
1C0E0E
1C1C0E
0E1C0E
0E180E
0E380E
07380E
07700E
03700E
03F00E
03E00E
01E00E
01C00E
ENDCHAR
STARTCHAR aj7581
ENCODING 8550
BBX 26 21 2 2
BITMAP
C00E71C0
E00E71C0
E01C71C0
E01C71C0
701C71C0
701871C0
703871C0
303871C0
383071C0
387071C0
187071C0
1C7071C0
1C6071C0
1CE071C0
0CE071C0
0EC071C0
0FC071C0
07C071C0
07C071C0
078071C0
038071C0
ENDCHAR
STARTCHAR aj7582
ENCODING 8551
BBX 27 21 1 2
BITMAP
C019CEE0
E039CEE0
E039CEE0
6031CEE0
6031CEE0
7071CEE0
7071CEE0
3061CEE0
3061CEE0
38E1CEE0
38E1CEE0
18C1CEE0
18C1CEE0
1DC1CEE0
1DC1CEE0
0D81CEE0
0D81CEE0
0F81CEE0
0F81CEE0
0701CEE0
0701CEE0
ENDCHAR
STARTCHAR aj7583
ENCODING 8552
BBX 24 21 5 2
BITMAP
E1C01C
E0E01C
E0F038
E07078
E03870
E038E0
E01DE0
E00FC0
E00F80
E00780
E00780
E00F80
E01FC0
E01CE0
E038E0
E07870
E07038
E0E03C
E1E01C
E1C00E
E3800F
ENDCHAR
STARTCHAR aj7584
ENCODING 8553
BBX 21 21 5 2
BITMAP
3800E0
3C01E0
1E03C0
0E0380
070700
078F00
038E00
01DC00
00F800
007000
00F800
00F800
01DC00
038E00
078F00
0F0780
1E0380
1C01C0
3C01E0
7800F0
F00078
ENDCHAR
STARTCHAR aj8225
ENCODING 8554
BBX 24 21 2 2
BITMAP
380387
380707
1C0F07
1E0E07
0E1C07
071C07
073807
03F007
01F007
01E007
01E007
01F007
03F807
073807
0F1C07
0E1E07
1C0E07
3C0707
380787
700387
F001C7
ENDCHAR
STARTCHAR aj8226
ENCODING 8555
BBX 26 21 2 2
BITMAP
701C71C0
701C71C0
383871C0
183071C0
1C7071C0
0CE071C0
0EE071C0
07C071C0
07C071C0
038071C0
038071C0
07C071C0
0EE071C0
0EE071C0
1C7071C0
1C7071C0
383871C0
383871C0
701C71C0
E01C71C0
E00E71C0
ENDCHAR
STARTCHAR aj8092
ENCODING 8560
BBX 3 21 14 2
BITMAP
E0
E0
E0
00
00
00
00
E0
E0
E0
E0
E0
E0
E0
E0
E0
E0
E0
E0
E0
E0
ENDCHAR
STARTCHAR aj8093
ENCODING 8561
BBX 11 21 10 2
BITMAP
E0E0
E0E0
E0E0
0000
0000
0000
0000
E0E0
E0E0
E0E0
E0E0
E0E0
E0E0
E0E0
E0E0
E0E0
E0E0
E0E0
E0E0
E0E0
E0E0
ENDCHAR
STARTCHAR aj8094
ENCODING 8562
BBX 17 21 7 2
BITMAP
E1C380
E1C380
E1C380
000000
000000
000000
000000
E1C380
E1C380
E1C380
E1C380
E1C380
E1C380
E1C380
E1C380
E1C380
E1C380
E1C380
E1C380
E1C380
E1C380
ENDCHAR
STARTCHAR aj8095
ENCODING 8563
BBX 20 21 7 2
BITMAP
E00000
E00000
E00000
000000
000000
000000
000000
E70070
E38060
E380E0
E1C0E0
E1C1C0
E0C1C0
E0E380
E06380
E07300
E07700
E03E00
E03E00
E01E00
E01C00
ENDCHAR
STARTCHAR aj8096
ENCODING 8564
BBX 17 14 7 2
BITMAP
E00380
700700
700700
380E00
380E00
1C1C00
1C1C00
0E3800
0E3800
067000
077000
036000
03E000
01C000
ENDCHAR
STARTCHAR aj8097
ENCODING 8565
BBX 20 21 4 2
BITMAP
000070
000070
000070
000000
000000
000000
000000
E00E70
601C70
701C70
703870
383870
383070
1C7070
1C6070
0CE070
0EE070
07C070
07C070
078070
038070
ENDCHAR
STARTCHAR aj8098
ENCODING 8566
BBX 24 21 3 2
BITMAP
0001C7
0001C7
0001C7
000000
000000
000000
000000
E039C7
6039C7
7031C7
7071C7
3071C7
3861C7
18E1C7
18C1C7
1DC1C7
0DC1C7
0F81C7
0781C7
0701C7
0701C7
ENDCHAR
STARTCHAR aj8099
ENCODING 8567
BBX 25 21 3 2
BITMAP
0003BB80
0003BB80
0003BB80
00000000
00000000
00000000
00000000
C0373B80
E0773B80
E0773B80
60673B80
70E73B80
30E73B80
30C73B80
39C73B80
19873B80
1F873B80
1F873B80
0F073B80
0F073B80
06073B80
ENDCHAR
STARTCHAR aj8100
ENCODING 8568
BBX 21 21 6 2
BITMAP
E00000
E00000
E00000
000000
000000
000000
000000
E38070
E1C0E0
E0E1C0
E07380
E07F80
E03F00
E01E00
E01E00
E03F00
E07380
E0E1C0
E1C0E0
E38070
E78078
ENDCHAR
STARTCHAR aj8101
ENCODING 8569
BBX 17 14 7 2
BITMAP
780F00
380E00
1C1C00
0E3800
077000
03E000
01C000
03E000
077000
0E3800
1C1C00
3C1E00
780F00
F00780
ENDCHAR
STARTCHAR aj8298
ENCODING 8570
BBX 21 21 4 2
BITMAP
000038
000038
000038
000000
000000
000000
000000
700E38
381C38
1C3838
0E7038
0FF038
07E038
03C038
03C038
07E038
0E7038
1C3838
381C38
700E38
F00F38
ENDCHAR
STARTCHAR aj8299
ENCODING 8571
BBX 23 21 4 2
BITMAP
0001CE
0001CE
0001CE
000000
000000
000000
000000
E0738E
70E38E
38E38E
39C38E
1F838E
0F838E
0F038E
0F038E
1F838E
19C38E
38E38E
70E38E
E0738E
E03B8E
ENDCHAR
STARTCHAR aj737
ENCODING 8592
BBX 27 11 2 6
BITMAP
03800000
07000000
1E000000
38000000
7FFFFFE0
FFFFFFE0
38000000
1C000000
0E000000
07000000
03C00000
ENDCHAR
STARTCHAR aj738
ENCODING 8593
BBX 11 27 10 -1
BITMAP
0C00
0C00
1E00
3F00
3F80
6DC0
ECE0
CC60
8C20
0C20
0C00
0C00
0C00
0C00
0C00
0C00
0C00
0C00
0C00
0C00
0C00
0C00
0C00
0C00
0C00
0C00
0C00
ENDCHAR
STARTCHAR aj736
ENCODING 8594
BBX 27 11 2 6
BITMAP
00003800
00001C00
00000F00
00000380
FFFFFFC0
FFFFFFE0
00000380
00000700
00000E00
00001C00
00007800
ENDCHAR
STARTCHAR aj739
ENCODING 8595
BBX 11 27 10 -2
BITMAP
0C00
0C00
0C00
0C00
0C00
0C00
0C00
0C00
0C00
0C00
0C00
0C00
0C00
0C00
0C00
0C00
0C00
0C20
8C20
CC60
ECE0
6DC0
3F80
3F00
1E00
0C00
0C00
ENDCHAR
STARTCHAR aj15511
ENCODING 8596
SWIDTH 500 0
DWIDTH 16 0
BBX 13 11 1 6
BITMAP
1860
3070
7030
6018
FFF8
FFF8
6018
6030
3030
3060
1860
ENDCHAR
STARTCHAR aj12204
ENCODING 8598
SWIDTH 500 0
DWIDTH 16 0
BBX 12 23 2 0
BITMAP
3000
3C00
3F00
7B80
7DC0
6C60
CC00
CE00
C600
8700
0300
0300
0380
0180
0180
01C0
00C0
00C0
00E0
0060
0070
0030
0020
ENDCHAR
STARTCHAR aj12205
ENCODING 8599
SWIDTH 500 0
DWIDTH 16 0
BBX 12 23 2 0
BITMAP
0180
0780
0FC0
3FC0
7340
6760
8660
0670
0E20
0C20
0C20
1C00
1800
3800
3000
3000
7000
6000
6000
E000
C000
C000
C000
ENDCHAR
STARTCHAR aj12202
ENCODING 8600
SWIDTH 500 0
DWIDTH 16 0
BBX 13 23 1 0
BITMAP
E000
6000
6000
3000
3000
3800
1800
1800
1C00
0C00
0C00
0E00
0610
0710
0318
0330
23B0
31B0
3DE0
0FE0
03E0
01C0
0040
ENDCHAR
STARTCHAR aj12203
ENCODING 8601
SWIDTH 500 0
DWIDTH 16 0
BBX 12 23 2 0
BITMAP
0030
0070
0060
0060
00E0
00C0
00C0
01C0
0180
0380
0300
0300
0700
C600
C600
CE00
6C20
6CE0
7FC0
3F00
3E00
3800
1000
ENDCHAR
STARTCHAR aj8310
ENCODING 8644
SWIDTH 500 0
DWIDTH 16 0
BBX 11 23 2 0
BITMAP
0300
0180
01C0
00C0
FFE0
FFE0
00C0
01C0
0180
0300
0000
0000
1800
3000
7000
6000
FFE0
FFE0
E000
6000
3000
3800
1800
ENDCHAR
STARTCHAR aj752
ENCODING 8658
BBX 27 18 2 3
BITMAP
00002000
00007000
00003800
00001C00
FFFFFE00
FFFFFF00
00000380
000001C0
000000E0
000000E0
000001C0
00000380
FFFFFF00
FFFFFE00
00001C00
00003800
00007000
00002000
ENDCHAR
STARTCHAR aj753
ENCODING 8660
BBX 29 17 1 3
BITMAP
00C01800
01C01C00
03800E00
07000700
0FFFFF80
1FFFFFC0
380000E0
70000070
E0000038
70000070
380000E0
1FFFFFC0
0FFFFF80
07000700
03800E00
01C01C00
00C01800
ENDCHAR
STARTCHAR aj8013
ENCODING 8678
SWIDTH 500 0
DWIDTH 16 0
BBX 13 10 2 7
BITMAP
0800
1800
2800
4FF8
8008
8008
4FF8
2800
1800
0800
ENDCHAR
STARTCHAR aj8012
ENCODING 8679
SWIDTH 500 0
DWIDTH 16 0
BBX 10 25 3 -1
BITMAP
0C00
0C00
1200
3300
2100
4080
C0C0
F3C0
1200
1200
1200
1200
1200
1200
1200
1200
1200
1200
1200
1200
1200
1200
1200
1200
1E00
ENDCHAR
STARTCHAR aj8014
ENCODING 8680
SWIDTH 500 0
DWIDTH 16 0
BBX 13 10 1 7
BITMAP
0080
00C0
00A0
FF90
8008
8008
FF90
00A0
00C0
0080
ENDCHAR
STARTCHAR aj8011
ENCODING 8681
SWIDTH 500 0
DWIDTH 16 0
BBX 10 26 3 -1
BITMAP
1E00
1200
1200
1200
1200
1200
1200
1200
1200
1200
1200
1200
1200
1200
1200
1200
1200
1200
F3C0
C0C0
4080
2100
3300
1200
0C00
0C00
ENDCHAR
STARTCHAR aj754
ENCODING 8704
BBX 25 27 3 -2
BITMAP
C0000180
E0000380
60000300
70000700
30000600
38000E00
18000C00
18000C00
0C001800
0FFFF800
07FFF000
06003000
03006000
03006000
0180C000
0180C000
00C18000
00C18000
00E38000
00630000
00770000
00360000
00360000
001C0000
001C0000
00080000
00080000
ENDCHAR
STARTCHAR aj759
ENCODING 8706
BBX 15 24 7 0
BITMAP
03E0
0FF0
1E38
081C
000C
000C
0006
0006
0006
07C6
1FE6
3876
703E
601E
C01E
C01C
C01C
C01C
C038
C038
6070
70F0
3FE0
0F80
ENDCHAR
STARTCHAR aj755
ENCODING 8707
BBX 22 24 4 0
BITMAP
FFFFFC
FFFFFC
00000C
00000C
00000C
00000C
00000C
00000C
00000C
00000C
00000C
FFFFFC
FFFFFC
00000C
00000C
00000C
00000C
00000C
00000C
00000C
00000C
00000C
FFFFFC
FFFFFC
ENDCHAR
STARTCHAR aj12184.hw
ENCODING 8709
SWIDTH 500 0
DWIDTH 16 0
BBX 14 19 1 2
BITMAP
0010
0030
0FF0
1FE0
38F0
60F8
E1D8
C18C
C30C
C70C
C60C
EE1C
6C18
7870
3FE0
3FC0
7000
6000
2000
ENDCHAR
STARTCHAR aj760
ENCODING 8711
BBX 25 24 3 -1
BITMAP
FFFFFF80
7FFFFF00
30000600
38000600
18000C00
1C000C00
0C001800
0E001800
06003000
07003000
03006000
03806000
0180C000
01C0C000
00C18000
00E18000
00630000
00770000
003E0000
003E0000
001C0000
001C0000
00080000
00080000
ENDCHAR
STARTCHAR aj741
ENCODING 8712
BBX 25 24 3 0
BITMAP
007FFF80
03FFFF80
0F800000
1E000000
38000000
30000000
70000000
60000000
E0000000
E0000000
C0000000
FFFFFF80
FFFFFF80
C0000000
E0000000
E0000000
60000000
70000000
30000000
38000000
1E000000
0F800000
03FFFF80
007FFF80
ENDCHAR
STARTCHAR aj15476.hw
ENCODING 8713
SWIDTH 500 0
DWIDTH 16 0
BBX 13 22 1 1
BITMAP
0060
00E0
03F8
0FF8
1EC0
39C0
7180
6180
E180
C380
FFF8
FFF8
C300
C300
E600
6600
7600
3E00
1E00
0FF8
0FF8
0C00
ENDCHAR
STARTCHAR aj742
ENCODING 8715
BBX 25 24 3 0
BITMAP
FFFF0000
FFFFE000
0000F800
00003C00
00000E00
00000600
00000700
00000300
00000380
00000380
00000180
FFFFFF80
FFFFFF80
00000180
00000380
00000380
00000300
00000700
00000600
00000E00
00003C00
0000F800
FFFFE000
FFFF0000
ENDCHAR
STARTCHAR aj151.hw
ENCODING 8722
SWIDTH 500 0
DWIDTH 16 0
BBX 12 2 2 11
BITMAP
FFF0
FFF0
ENDCHAR
STARTCHAR aj15512.hw
ENCODING 8723
SWIDTH 500 0
DWIDTH 16 0
BBX 12 22 2 0
BITMAP
FFF0
FFF0
0000
0000
0000
0600
0600
0600
0600
0600
0600
0600
FFF0
FFF0
0600
0600
0600
0600
0600
0600
0600
0600
ENDCHAR
STARTCHAR aj765
ENCODING 8730
BBX 29 29 1 -2
BITMAP
0000FFF8
0000C000
0000C000
00018000
00018000
00010000
00030000
00030000
00020000
00060000
00060000
000C0000
000C0000
080C0000
08180000
1C180000
1C180000
1C300000
36300000
36300000
67600000
63600000
C3600000
43C00000
01C00000
01C00000
00800000
00800000
00800000
ENDCHAR
STARTCHAR aj767
ENCODING 8733
BBX 26 12 2 6
BITMAP
0F803E00
3FC0FF80
70F1E380
E03B81C0
C01B0000
C00E0000
C00E0000
C01F0000
603B8080
7071C1C0
3FE0FF80
0F803E00
ENDCHAR
STARTCHAR aj703
ENCODING 8734
BBX 27 12 2 6
BITMAP
0F803E00
3FC07F80
70F1E3C0
603B80C0
C01F0060
C00E0060
C00E0060
C01F0060
603B80C0
70F1E1C0
3FE0FF80
0F803E00
ENDCHAR
STARTCHAR aj7629
ENCODING 8735
BBX 26 25 3 0
BITMAP
C0000000
C0000000
C0000000
C0000000
C0000000
C0000000
C0000000
C0000000
C0000000
C0000000
C0000000
C0000000
C0000000
C0000000
C0000000
C0000000
C0000000
C0000000
C0000000
C0000000
C0000000
C0000000
C0000000
FFFFFFC0
FFFFFFC0
ENDCHAR
STARTCHAR aj756
ENCODING 8736
BBX 26 24 2 0
BITMAP
00000180
00000380
00000700
00000E00
00001C00
00003800
00007000
0000E000
0001C000
00038000
00070000
000E0000
001C0000
00380000
00700000
00E00000
01C00000
03800000
07000000
0E000000
1C000000
38000000
7FFFFFC0
FFFFFFC0
ENDCHAR
STARTCHAR aj15489.fw
ENCODING 8741
BBX 17 27 7 -2
BITMAP
006180
006380
00E300
00C300
00C700
01C600
018600
018C00
030C00
030C00
031800
061800
061800
0E3000
0C3000
0C7000
1C6000
186000
18E000
38C000
30C000
31C000
618000
618000
630000
C30000
430000
ENDCHAR
STARTCHAR aj15490.hw
ENCODING 8742
SWIDTH 500 0
DWIDTH 16 0
BBX 13 27 1 -2
BITMAP
0318
0318
0618
0618
0630
0630
0630
4C30
EC60
7C60
3C60
1C60
1E60
1FC0
1BC0
19C0
30E0
30F0
3198
3180
3180
6180
6300
6300
6300
E300
C300
ENDCHAR
STARTCHAR aj749
ENCODING 8743
BBX 25 27 3 -1
BITMAP
00080000
00080000
001C0000
001C0000
00360000
00360000
00770000
00630000
00630000
00C18000
00C18000
0180C000
0180C000
03006000
03006000
06003000
06003000
0C001800
0C001800
1C001C00
18000C00
38000E00
30000600
70000700
60000300
E0000380
C0000180
ENDCHAR
STARTCHAR aj750
ENCODING 8744
BBX 25 27 3 -2
BITMAP
C0000180
E0000380
60000300
70000700
30000600
38000E00
18000C00
1C001C00
0C001800
0C001800
06003000
06003000
03006000
03006000
0180C000
0180C000
00C18000
00C18000
00630000
00630000
00770000
00360000
00360000
001C0000
001C0000
00080000
00080000
ENDCHAR
STARTCHAR aj748
ENCODING 8745
BBX 23 25 4 0
BITMAP
00FE00
07FFC0
0F01E0
1C0070
380038
300018
60000C
60000C
E0000C
C00006
C00006
C00006
C00006
C00006
C00006
C00006
C00006
C00006
C00006
C00006
C00006
C00006
C00006
C00006
C00006
ENDCHAR
STARTCHAR aj747
ENCODING 8746
BBX 23 25 4 -1
BITMAP
C00006
C00006
C00006
C00006
C00006
C00006
C00006
C00006
C00006
C00006
C00006
C00006
C00006
C00006
C00006
C00006
60000C
60000C
60000C
300018
380038
1C0070
0F01E0
07FFC0
00FE00
ENDCHAR
STARTCHAR aj769
ENCODING 8747
BBX 15 27 8 -2
BITMAP
0078
00FC
00CE
00C6
0186
0180
0180
0180
0180
0180
0180
0180
0180
0380
0380
0300
0300
0300
0300
0300
0300
0300
C300
C600
E600
7E00
3C00
ENDCHAR
STARTCHAR aj770
ENCODING 8748
BBX 27 27 2 -2
BITMAP
003C0700
007E0F80
00661CC0
00C318C0
00C318E0
00C03800
00C03000
00C03000
00C03000
01C03000
01C03000
01803000
01803000
01803000
01803000
01803000
01807000
01807000
01806000
01806000
01806000
03806000
E3186000
63186000
671CC000
7E0FC000
1C078000
ENDCHAR
STARTCHAR aj7624
ENCODING 8750
BBX 15 27 8 -2
BITMAP
0078
00FC
00CE
00C6
0186
0180
0180
0180
0180
0780
0DE0
19B0
1190
1190
1310
1330
0B60
07C0
0300
0300
0300
0300
C300
C600
E600
7E00
3800
ENDCHAR
STARTCHAR aj704
ENCODING 8756
BBX 19 19 6 2
BITMAP
00C000
01E000
01E000
00C000
000000
000000
000000
000000
000000
000000
000000
000000
000000
000000
000000
6000C0
F001E0
F001E0
6000C0
ENDCHAR
STARTCHAR aj768
ENCODING 8757
BBX 19 19 6 2
BITMAP
6000C0
F001E0
F001E0
6000C0
000000
000000
000000
000000
000000
000000
000000
000000
000000
000000
000000
00C000
01E000
01E000
00C000
ENDCHAR
STARTCHAR aj766
ENCODING 8765
BBX 27 12 2 6
BITMAP
0F803E00
3FE07F80
70C1E1C0
600380C0
C0070060
C0060060
C00C0060
C01C0060
E03800C0
70F041C0
3FE0FF80
0F803E00
ENDCHAR
STARTCHAR aj15506.hw
ENCODING 8771
SWIDTH 500 0
DWIDTH 16 0
BBX 12 10 2 7
BITMAP
7800
FE10
87F0
01E0
0000
0000
0000
0000
FFF0
FFF0
ENDCHAR
STARTCHAR aj15507.hw
ENCODING 8773
SWIDTH 500 0
DWIDTH 16 0
BBX 12 14 2 5
BITMAP
7800
FE30
87F0
01E0
0000
0000
0000
FFF0
FFF0
0000
0000
0000
FFF0
FFF0
ENDCHAR
STARTCHAR aj15508.hw
ENCODING 8776
SWIDTH 500 0
DWIDTH 16 0
BBX 12 11 2 6
BITMAP
7800
FE10
87F0
01E0
0000
0000
3800
FC00
CE30
03F0
01E0
ENDCHAR
STARTCHAR aj762
ENCODING 8786
BBX 21 21 5 2
BITMAP
0E0000
0F0000
0F0000
0F0000
000000
000000
000000
FFFFF8
FFFFF8
000000
000000
000000
000000
FFFFF8
FFFFF8
000000
000000
000700
000780
000780
000700
ENDCHAR
STARTCHAR aj698
ENCODING 8800
BBX 21 22 5 1
BITMAP
000300
000300
000600
000600
000E00
000C00
001C00
FFFFF8
FFFFF8
003000
003000
006000
006000
FFFFF8
FFFFF8
018000
018000
038000
030000
070000
060000
060000
ENDCHAR
STARTCHAR aj761
ENCODING 8801
BBX 21 16 5 4
BITMAP
FFFFF8
FFFFF8
000000
000000
000000
000000
000000
FFFFF8
FFFFF8
000000
000000
000000
000000
000000
FFFFF8
FFFFF8
ENDCHAR
STARTCHAR aj15505.hw
ENCODING 8802
SWIDTH 500 0
DWIDTH 16 0
BBX 12 22 2 1
BITMAP
00C0
00C0
0180
0180
FFF0
FFF0
0300
0300
0300
0600
FFF0
FFF0
0600
0C00
0C00
0C00
FFF0
FFF0
1800
1800
3000
3000
ENDCHAR
STARTCHAR aj701
ENCODING 8806
BBX 21 25 5 0
BITMAP
000008
000038
0001F8
000FC0
007E00
01F000
0F8000
7E0000
F80000
1F0000
07E000
00FC00
001F80
0003F0
000078
000018
000000
000000
FFFFF8
FFFFF8
000000
000000
000000
FFFFF8
FFFFF8
ENDCHAR
STARTCHAR aj702
ENCODING 8807
BBX 21 25 5 0
BITMAP
800000
E00000
FC0000
1F8000
03F000
007C00
000F80
0003F0
0000F8
0007C0
003F00
01F800
0FC000
7E0000
F00000
C00000
000000
000000
FFFFF8
FFFFF8
000000
000000
000000
FFFFF8
FFFFF8
ENDCHAR
STARTCHAR aj763
ENCODING 8810
BBX 24 28 3 -2
BITMAP
000387
00070E
000E1C
001C38
003870
0070E0
00E1C0
01C380
038700
070E00
0E1C00
183800
307000
E0E000
60E000
307000
183800
0E1C00
070E00
038700
01C380
00E1C0
0070E0
003870
001C38
000E1C
00070E
000387
ENDCHAR
STARTCHAR aj764
ENCODING 8811
BBX 24 28 4 -2
BITMAP
E1C000
70E000
387000
1C3800
0E1C00
070E00
038700
01C380
00E1C0
0070E0
003870
001C18
000E0C
000707
000707
000E0C
001C18
003870
0070E0
00E1C0
01C380
038700
070E00
0E1C00
1C3800
387000
70E000
E1C000
ENDCHAR
STARTCHAR aj15509.hw
ENCODING 8822
SWIDTH 500 0
DWIDTH 16 0
BBX 13 24 2 0
BITMAP
0010
0030
00F0
03C0
0F00
3C00
F000
F000
3C00
0F00
03C0
80F0
E030
7800
1E00
0780
01E0
0078
01E0
0780
1E00
7800
E000
8000
ENDCHAR
STARTCHAR aj15510.hw
ENCODING 8823
SWIDTH 500 0
DWIDTH 16 0
BBX 13 24 1 0
BITMAP
4000
6000
7800
1E00
0780
01E0
0078
0078
01E0
0780
1E00
7808
6038
00F0
03C0
0F00
3C00
F000
3C00
0F00
03C0
00F0
0038
0008
ENDCHAR
STARTCHAR aj745
ENCODING 8834
BBX 25 24 3 0
BITMAP
007FFF80
03FFFF80
0F800000
1C000000
38000000
30000000
60000000
60000000
C0000000
C0000000
C0000000
C0000000
C0000000
C0000000
C0000000
C0000000
60000000
60000000
30000000
38000000
1C000000
0F800000
03FFFF80
007FFF80
ENDCHAR
STARTCHAR aj746
ENCODING 8835
BBX 25 24 3 0
BITMAP
FFFF0000
FFFFE000
0000F800
00001C00
00000E00
00000600
00000300
00000300
00000180
00000180
00000180
00000180
00000180
00000180
00000180
00000180
00000300
00000300
00000600
00000E00
00001C00
0000F800
FFFFE000
FFFF0000
ENDCHAR
STARTCHAR aj15472.hw
ENCODING 8836
SWIDTH 500 0
DWIDTH 16 0
BBX 13 22 1 1
BITMAP
0060
00E0
03F8
0FF8
1EC0
39C0
7180
6180
E180
C180
C300
C300
C300
C300
C700
6600
7600
3E00
1E00
0FF8
0FF8
0C00
ENDCHAR
STARTCHAR aj15473.hw
ENCODING 8837
SWIDTH 500 0
DWIDTH 16 0
BBX 13 23 2 0
BITMAP
0180
0180
FF80
FF80
03C0
03E0
0370
0330
0738
0618
0618
0618
0618
0C18
0C38
0C30
0C70
1CE0
1BC0
FF80
FE00
3800
3000
ENDCHAR
STARTCHAR aj743
ENCODING 8838
BBX 25 24 3 0
BITMAP
03FFFF80
0FFFFF80
1C000000
30000000
60000000
60000000
C0000000
C0000000
C0000000
C0000000
C0000000
C0000000
60000000
60000000
30000000
3C000000
0FFFFF80
03FFFF80
00000000
00000000
00000000
00000000
FFFFFF80
FFFFFF80
ENDCHAR
STARTCHAR aj744
ENCODING 8839
BBX 25 24 3 0
BITMAP
FFFFE000
FFFFF800
00001C00
00000600
00000300
00000300
00000180
00000180
00000180
00000180
00000180
00000180
00000300
00000300
00000600
00001C00
FFFFF800
FFFFE000
00000000
00000000
00000000
00000000
FFFFFF80
FFFFFF80
ENDCHAR
STARTCHAR aj15474.hw
ENCODING 8842
SWIDTH 500 0
DWIDTH 16 0
BBX 12 22 2 0
BITMAP
0FF0
3FF0
7000
6000
C000
C000
C000
C000
C000
C000
6000
7000
3FF0
0FF0
0000
0000
0300
0300
FFF0
FFF0
0C00
0C00
ENDCHAR
STARTCHAR aj15475.hw
ENCODING 8843
SWIDTH 500 0
DWIDTH 16 0
BBX 12 22 2 0
BITMAP
FF00
FFC0
00E0
0060
0030
0030
0030
0030
0030
0030
0060
00E0
FFC0
FF00
0000
0000
0300
0300
FFF0
FFF0
0C00
0C00
ENDCHAR
STARTCHAR aj12188.hw
ENCODING 8853
SWIDTH 500 0
DWIDTH 16 0
BBX 15 15 0 4
BITMAP
07C0
1C30
3008
6184
4184
8182
9FF2
8182
8182
8182
4184
4188
2008
1830
07C0
ENDCHAR
STARTCHAR aj12186.hw
ENCODING 8854
SWIDTH 500 0
DWIDTH 16 0
BBX 15 13 0 6
BITMAP
07C0
1830
2008
4004
8002
8002
9FF2
8002
8002
4004
6008
1830
07C0
ENDCHAR
STARTCHAR aj12189.hw
ENCODING 8855
SWIDTH 500 0
DWIDTH 16 0
BBX 14 14 1 5
BITMAP
0F80
1860
3010
4008
D848
8CC4
8784
8304
8784
8CCC
5848
2010
1860
0FC0
ENDCHAR
STARTCHAR aj757
ENCODING 8869
BBX 27 25 2 0
BITMAP
000C0000
000C0000
000C0000
000C0000
000C0000
000C0000
000C0000
000C0000
000C0000
000C0000
000C0000
000C0000
000C0000
000C0000
000C0000
000C0000
000C0000
000C0000
000C0000
000C0000
000C0000
000C0000
000C0000
FFFFFFE0
FFFFFFE0
ENDCHAR
STARTCHAR aj7630
ENCODING 8895
BBX 25 25 3 0
BITMAP
00000080
00000180
00000380
00000780
00000F80
00001D80
00003980
00007180
0000E180
0001C180
00038180
00070180
000E0180
001C0180
00380180
00700180
00E00180
01C00180
03800180
07000180
0E000180
1C000180
38000180
7FFFFF80
FFFFFF80
ENDCHAR
STARTCHAR aj15725.hw
ENCODING 8922
SWIDTH 500 0
DWIDTH 16 0
BBX 14 26 1 -1
BITMAP
0008
0078
01F0
0780
3E00
F800
1E00
07C0
01F0
0038
0008
0000
7FF8
7FF8
0000
4000
7000
3E00
0F80
01E0
007C
01F0
0780
3E00
7800
4000
ENDCHAR
STARTCHAR aj15726.hw
ENCODING 8923
SWIDTH 500 0
DWIDTH 16 0
BBX 14 26 1 -1
BITMAP
4000
7800
3E00
0780
01E0
007C
01E0
0F80
3E00
7000
4000
0000
7FF8
7FF8
0000
0008
0038
01F0
07C0
1E00
F800
3E00
0780
01F0
0078
0008
ENDCHAR
STARTCHAR aj15478.hw
ENCODING 8965
SWIDTH 500 0
DWIDTH 16 0
BBX 12 14 2 4
BITMAP
FFF0
FFF0
0000
0600
0600
0F00
0F00
1980
1980
38C0
30C0
70E0
6060
E070
ENDCHAR
STARTCHAR aj15479.hw
ENCODING 8966
SWIDTH 500 0
DWIDTH 16 0
BBX 12 19 2 2
BITMAP
FFF0
FFF0
0000
0000
0000
FFF0
FFF0
0000
0600
0600
0F00
0F00
1980
1980
38C0
30C0
70E0
6060
E070
ENDCHAR
STARTCHAR aj758
ENCODING 8978
BBX 29 7 1 19
BITMAP
003FE000
03FFFE00
0FC01F80
3C0001E0
F0000078
C0000018
80000008
ENDCHAR
STARTCHAR aj15728
ENCODING 8984
BBX 27 28 2 -2
BITMAP
3E000F80
63001840
C1803820
81803020
81803020
81803020
C18030E0
7FFFFFC0
3FFFFF80
01803000
01803000
01803000
01803000
01803000
01803000
01803000
01803000
01803000
01803000
3FFFFF80
7FFFFFC0
E18030E0
81803020
81803020
81803020
83803020
43001840
3E000F80
ENDCHAR
STARTCHAR aj16253
ENCODING 9150
BBX 16 31 15 -4
BITMAP
FFFF
8000
8000
8000
8000
8000
8000
8000
8000
8000
8000
8000
8000
8000
8000
8000
8000
8000
8000
8000
8000
8000
8000
8000
8000
8000
8000
8000
8000
8000
8000
ENDCHAR
STARTCHAR aj16254
ENCODING 9151
BBX 16 31 15 -4
BITMAP
8000
8000
8000
8000
8000
8000
8000
8000
8000
8000
8000
8000
8000
8000
8000
8000
8000
8000
8000
8000
8000
8000
8000
8000
8000
8000
8000
8000
8000
8000
FFFF
ENDCHAR
STARTCHAR aj16255
ENCODING 9152
BBX 23 31 4 -4
BITMAP
001000
001000
001000
001000
01FF00
0711C0
0C1060
181030
301018
201008
401004
401004
801006
801002
801002
801002
801002
801002
801002
401004
401004
201008
301018
181030
0C1060
0711C0
01FF00
001000
001000
001000
001000
ENDCHAR
STARTCHAR aj16256
ENCODING 9153
BBX 31 31 0 -4
BITMAP
FFFFFFFE
00010000
00010000
00010000
001FF000
00711C00
00C10600
01010100
02010180
06010080
04010040
04010040
08010020
08010020
08010020
08010020
08010020
08010020
08010020
04010040
04010040
02010080
03010180
01810300
00C10600
00711C00
001FF000
00010000
00010000
00010000
00010000
ENDCHAR
STARTCHAR aj16257
ENCODING 9154
BBX 31 31 0 -4
BITMAP
00010000
00010000
00010000
00010000
000FE000
00711800
00C10600
01810300
03010180
02010080
04010040
04010040
08010060
08010020
08010020
08010020
08010020
08010020
08010020
04010040
04010040
060100C0
03010180
01010100
00C10600
00711C00
001FF000
00010000
00010000
00010000
FFFFFFFE
ENDCHAR
STARTCHAR aj16258
ENCODING 9155
BBX 25 31 3 -4
BITMAP
00080000
00080000
00080000
00080000
00080000
001C0000
001C0000
003E0000
002A0000
006B0000
00C98000
00888000
0188C000
01084000
03086000
06083000
04081000
0C081800
08080800
18080C00
10080400
30080600
60080300
40080100
C0080180
FFFFFF80
00080000
00080000
00080000
00080000
00080000
ENDCHAR
STARTCHAR aj16259
ENCODING 9156
BBX 31 31 0 -4
BITMAP
FFFFFFFE
00010000
00010000
00010000
00010000
00038000
00038000
0007C000
000D6000
00092000
00193000
00111000
00311800
00210800
00610C00
00C10600
00810200
01810300
01010100
03010180
060100C0
04010040
0C010060
08010020
18010030
3FFFFFF8
00010000
00010000
00010000
00010000
00010000
ENDCHAR
STARTCHAR aj16260
ENCODING 9157
BBX 31 31 0 -4
BITMAP
00010000
00010000
00010000
00010000
00010000
00038000
00038000
0007C000
00054000
000D6000
00193000
00111000
00311800
00210800
00610C00
00C10600
00810200
01810300
01010100
03010180
060100C0
04010040
0C010060
08010020
18010030
3FFFFFF8
00010000
00010000
00010000
00010000
FFFFFFFE
ENDCHAR
STARTCHAR aj16261
ENCODING 9158
BBX 27 31 2 -4
BITMAP
00040000
00040000
00040000
00040000
00040000
00040000
00040000
00040000
00040000
00040000
00040000
00040000
1F840000
60E40000
C01C0000
000C0000
00070020
0004C0C0
00043F00
00040000
00040000
00040000
00040000
00040000
00040000
00040000
00040000
00040000
00040000
00040000
00040000
ENDCHAR
STARTCHAR aj16262
ENCODING 9159
BBX 31 31 0 -4
BITMAP
FFFFFFFE
00010000
00010000
00010000
00010000
00010000
00010000
00010000
00010000
00010000
00010000
00010000
07E10000
181D0000
20070000
00018000
0001C018
00013830
00010FC0
00010000
00010000
00010000
00010000
00010000
00010000
00010000
00010000
00010000
00010000
00010000
00010000
ENDCHAR
STARTCHAR aj16263
ENCODING 9160
BBX 31 31 0 -4
BITMAP
00010000
00010000
00010000
00010000
00010000
00010000
00010000
00010000
00010000
00010000
00010000
00010000
07E10000
18390000
30070000
00030000
0001C008
00017030
00010FC0
00010000
00010000
00010000
00010000
00010000
00010000
00010000
00010000
00010000
00010000
00010000
FFFFFFFE
ENDCHAR
STARTCHAR aj16264
ENCODING 9161
BBX 31 31 0 -4
BITMAP
FFFFFFFE
00010000
00010000
00010000
00010000
00010000
00010000
00010000
00010000
00010000
00010000
00010000
00010000
00010000
00010000
00010000
00010000
00010000
00010000
00010000
00010000
00010000
00010000
00010000
00010000
00010000
00010000
00010000
00010000
00010000
00010000
ENDCHAR
STARTCHAR aj16265
ENCODING 9162
BBX 31 31 0 -4
BITMAP
00010000
00010000
00010000
00010000
00010000
00010000
00010000
00010000
00010000
00010000
00010000
00010000
00010000
00010000
00010000
00010000
00010000
00010000
00010000
00010000
00010000
00010000
00010000
00010000
00010000
00010000
00010000
00010000
00010000
00010000
FFFFFFFE
ENDCHAR
STARTCHAR aj16266
ENCODING 9163
BBX 16 31 0 -4
BITMAP
FFFF
0001
0001
0001
0001
0001
0001
0001
0001
0001
0001
0001
0001
0001
0001
0001
0001
0001
0001
0001
0001
0001
0001
0001
0001
0001
0001
0001
0001
0001
0001
ENDCHAR
STARTCHAR aj16267
ENCODING 9164
BBX 16 31 0 -4
BITMAP
0001
0001
0001
0001
0001
0001
0001
0001
0001
0001
0001
0001
0001
0001
0001
0001
0001
0001
0001
0001
0001
0001
0001
0001
0001
0001
0001
0001
0001
0001
FFFF
ENDCHAR
STARTCHAR aj16273
ENCODING 9166
BBX 27 26 1 -2
BITMAP
00007FE0
00007FE0
00006060
00006060
00006060
00006060
00006060
00006060
00306060
00706060
00F06060
01B06060
063FE060
0C3FC060
18000060
30000060
E0000060
300000C0
180003C0
0C3FFF00
063FFE00
03300000
00F00000
00700000
00300000
00100000
ENDCHAR
STARTCHAR aj16272
ENCODING 9251
BBX 25 7 3 -1
BITMAP
C0000180
C0000180
C0000180
C0000180
C0000180
FFFFFF80
FFFFFF80
ENDCHAR
STARTCHAR aj7555
ENCODING 9312
BBX 30 30 1 -3
BITMAP
001FE000
00E01800
01800600
06000100
0C000080
18038040
100F8020
203F8010
603B8010
40038008
40038008
80038004
80038004
80038004
80038004
80038004
80038004
80038004
80038004
40038008
40038008
60038010
20038010
10038020
18038060
0C0000C0
06000180
01800600
00601800
001FE000
ENDCHAR
STARTCHAR aj7556
ENCODING 9313
BBX 30 28 1 -2
BITMAP
001FE000
00601C00
01800600
06000180
0C07C0C0
181FF060
303C3830
20781C10
40700C08
40600C08
C0E00C08
80001C04
80003804
80007004
8001E004
80078004
800F0004
C01C000C
40380008
40300008
20700010
307FFC30
10FFFC20
0C000040
06000180
01800600
00E01C00
001FE000
ENDCHAR
STARTCHAR aj7557
ENCODING 9314
BBX 29 30 1 -3
BITMAP
001FC000
00603800
01800C00
02000300
0C000180
080F80C0
103FE040
20787020
60603820
40E01810
40001810
80001808
80003808
80007008
800FC008
800FE008
80007008
80001808
80000C08
40000C10
40C00C10
60E00C30
20E01820
10783840
183FF0C0
0C0FC180
06000300
01000C00
00E03800
001FC000
ENDCHAR
STARTCHAR aj7558
ENCODING 9315
BBX 29 30 1 -3
BITMAP
001FC000
00E03800
03800C00
06000300
0C000180
1801C0C0
3001C040
2003C020
6007C020
400EC010
400EC010
801CC008
8038C008
8070C008
8070C008
80E0C008
81C0C008
8380C008
83FFFC08
43FFFC10
4000C010
6000C030
2000C020
1000C040
1800C0C0
0C000180
06000300
01000C00
00E03800
001FC000
ENDCHAR
STARTCHAR aj7559
ENCODING 9316
BBX 30 28 0 -2
BITMAP
001FE000
00601C00
01800700
02000180
0C0000C0
183FF860
303FF830
20300010
40300008
40300008
C0300008
8077E004
807FF004
80783804
80701C04
80000C04
80000C04
C0000C0C
40000C08
40600C08
20701810
30383830
101FF020
0C07C040
06000180
01800600
00E01C00
001FE000
ENDCHAR
STARTCHAR aj7560
ENCODING 9317
BBX 29 29 1 -3
BITMAP
001FC000
00E03800
03000400
06000300
0C07C180
181FE0C0
30387040
20303820
40603810
40600010
C0E00010
80C00008
80CF8008
80DFE008
80F87008
80F03008
80E01808
80E01808
40E01810
40601810
40601810
20703020
30387060
101FE0C0
080F8180
06000300
03000600
00E03800
001FC000
ENDCHAR
STARTCHAR aj7561
ENCODING 9318
BBX 30 30 0 -3
BITMAP
000FE000
00701800
01800600
02000180
040000C0
08000060
107FFC20
207FFC10
20001C10
40003808
40003808
80003004
80007004
80006004
8000E004
8000E004
8001C004
8001C004
80018004
40038008
40038008
60030010
20070010
10070020
18070060
0C0E00C0
06000180
01800600
00601800
001FE000
ENDCHAR
STARTCHAR aj7562
ENCODING 9319
BBX 29 29 1 -3
BITMAP
003FC000
00E03800
03000400
06000300
0C0F8180
183FE0C0
30707040
20E03820
40C01810
40C01810
C0C01810
80E03808
80707008
801FC008
803FE008
80F07808
81C01808
81800C08
41800C10
41800C10
41C01C10
20F03820
107FF060
101FC0C0
08000180
06000300
01000600
00E03800
001FC000
ENDCHAR
STARTCHAR aj7563
ENCODING 9320
BBX 29 29 1 -3
BITMAP
001FC000
00E03800
03000400
06000300
0C0F8180
183FE0C0
30707040
20603020
40C01810
40C01810
C0C01C10
80C01C08
80E01C08
80703C08
80787C08
803FDC08
800F9C08
80001C08
40001C10
40603810
40603810
20707020
3038F060
101FE0C0
080F8180
06000300
03000600
00E03800
001FC000
ENDCHAR
STARTCHAR aj7564
ENCODING 9321
BBX 29 29 1 -3
BITMAP
001FC000
00E03800
03000400
06000300
0C000180
1981F0C0
3383F840
27871C20
45860C10
41860C10
C18C0610
818C0608
818C0608
818C0608
818C0608
818C0608
818C0608
818C0608
418C0610
41860C10
41860C10
21871C20
3183F860
1181F0C0
08000180
06000300
03000600
00E03800
001FC000
ENDCHAR
STARTCHAR aj7565
ENCODING 9322
BBX 29 29 1 -3
BITMAP
001FC000
00E03800
03000400
06000300
0C000180
18C018C0
31C03840
23C07820
42C05810
40C01810
C0C01810
80C01808
80C01808
80C01808
80C01808
80C01808
80C01808
80C01808
40C01810
40C01810
40C01810
20C01820
30C01860
10C018C0
08000180
06000300
03000600
00E03800
001FC000
ENDCHAR
STARTCHAR aj7566
ENCODING 9323
BBX 29 29 1 -3
BITMAP
001FC000
00E03800
03000400
06000300
0C000180
1981F0C0
3383FC40
27870C20
45860610
418E0610
C18E0610
81800608
81800E08
81801C08
81803808
81807008
8180E008
8181C008
41838010
41870010
41870010
21860020
318FFE60
118FFEC0
08000180
06000300
03000600
00E03800
001FC000
ENDCHAR
STARTCHAR aj7567
ENCODING 9324
BBX 29 29 1 -3
BITMAP
001FC000
00E03800
03000400
06000300
0C000180
1981F8C0
3783FC40
27870E20
418E0610
41800610
C1800610
81800608
81800C08
8180F808
8180FC08
81800E08
81800708
81800308
418E0310
418E0310
41860710
21870E20
3183FC60
1181F8C0
08000180
06000300
03000600
00E03800
001FC000
ENDCHAR
STARTCHAR aj7568
ENCODING 9325
BBX 29 29 1 -3
BITMAP
001FC000
00E03800
03000400
06000300
0C000180
19801CC0
33801C40
27803C20
45807C10
41807C10
C180EC10
8180CC08
8181CC08
81838C08
81830C08
81870C08
818E0C08
818FFF08
418FFF10
41800C10
41800C10
21800C20
31800C60
11800CC0
08000180
06000300
03000600
00E03800
001FC000
ENDCHAR
STARTCHAR aj7569
ENCODING 9326
BBX 29 29 1 -3
BITMAP
001FC000
00E03800
03000400
06000300
0C000180
1987FCC0
3387FC40
27860020
45860010
41860010
C1860010
8186F008
818FF808
818F1C08
818E0C08
81800608
81800608
81800608
41800610
418C0610
418E0C10
21871C20
3187F860
1181F0C0
08000180
06000300
03000600
00E03800
001FC000
ENDCHAR
STARTCHAR aj7570
ENCODING 9327
BBX 29 29 1 -3
BITMAP
001FC000
00E03800
03000400
06000300
0C000180
1980F0C0
3383FC40
27831C20
45860E10
41860010
C18C0010
818C0008
818CF008
818FF808
818F1C08
818E0E08
818C0608
818C0608
418C0610
418C0610
41860E10
21871C20
3183F860
1181F0C0
08000180
06000300
03000600
00E03800
001FC000
ENDCHAR
STARTCHAR aj7571
ENCODING 9328
BBX 29 29 1 -3
BITMAP
003FC000
00E03800
03000400
06000300
0C000180
198FFEC0
338FFE40
27800E20
45800C10
41801C10
C1801810
81803808
81803808
81803008
81807008
81807008
81806008
8180E008
4180E010
4180C010
4181C010
2181C020
3181C060
118380C0
08000180
06000300
03000600
00E03800
001FC000
ENDCHAR
STARTCHAR aj7572
ENCODING 9329
BBX 29 29 1 -3
BITMAP
001FC000
00E03800
03000400
06000300
0C000180
1983E0C0
3387F840
278E1820
458C0C10
418C0C10
C18C0C10
818C0C08
81861808
8183F008
8187F808
818E1C08
819C0E08
81980608
41980610
41980610
419C0E10
218E1C20
3187F860
1183F0C0
08000180
06000300
03000600
00E03800
001FC000
ENDCHAR
STARTCHAR aj7573
ENCODING 9330
BBX 29 29 1 -3
BITMAP
001FC000
00E03800
03000400
06000300
0C000180
1981F0C0
3383F840
27871C20
458E0C10
418C0610
C18C0610
818C0608
818C0608
818E0E08
81871E08
8183FE08
8181EE08
81800E08
41800C10
418E0C10
418E1C10
21873820
3187F060
1181E0C0
08000180
06000300
03000600
00E03800
001FC000
ENDCHAR
STARTCHAR aj7574
ENCODING 9331
BBX 30 29 1 -3
BITMAP
001FE000
00E01C00
01800600
06000180
0C781CC0
18FC3E60
31CE6320
21866310
43866188
4306C188
C306C188
800EC184
800CC184
801CC184
8038C184
8070C184
8060C184
80E0C184
41C0C188
4180C188
41806398
23806310
13FE6320
1BFE3E60
0C001CC0
06000180
01800600
00E01C00
001FE000
ENDCHAR
STARTCHAR aj10313
ENCODING 9424
BBX 29 29 1 -3
BITMAP
001FC000
00E03800
03000600
06000300
0C000180
180000C0
30000060
20000020
400FC010
401FE010
C0387010
80703008
80003008
8007F008
803FF008
80703008
80603008
80607008
4070F010
403FF810
401F1810
20000020
30000060
100000C0
08000180
06000300
03000600
00E03800
001FC000
ENDCHAR
STARTCHAR aj10314
ENCODING 9425
BBX 30 29 0 -2
BITMAP
001FE000
00601C00
01800600
02000180
040000C0
08300060
10300020
20300010
40300008
40300008
4033E008
80363004
80381804
80381804
80300C04
80300C04
80300C04
80300C04
40300C08
40381808
40383818
203C7010
3033E020
18000060
0C0000C0
06000180
01800600
00E01C00
001FE000
ENDCHAR
STARTCHAR aj10315
ENCODING 9426
BBX 29 30 1 -3
BITMAP
001FC000
00E03800
01800C00
02000300
0C000180
180000C0
10000040
20000020
600F8020
403FC010
4070E010
80607008
80E03008
80C00008
80C00008
80C00008
80C00008
80E03008
80607008
4070E010
403FC010
600F8030
20000020
10000040
180000C0
0C000180
06000300
01000C00
00E03800
001FC000
ENDCHAR
STARTCHAR aj10316
ENCODING 9427
BBX 30 29 1 -2
BITMAP
001FE000
00601C00
01800600
02000180
040000C0
08003060
10003020
20003010
40003008
40003008
401F3008
8039B004
80707004
80607004
80C03004
80C03004
80C03004
80C03004
40C03008
40407008
40607018
2031F010
301F3020
18000060
0C0000C0
06000180
01800600
00E01C00
001FE000
ENDCHAR
STARTCHAR aj10317
ENCODING 9428
BBX 29 29 1 -3
BITMAP
003FC000
00E03800
03000400
06000300
0C000180
180000C0
30000040
20000020
400F8010
403FC010
C0706010
80603008
80E03008
80FFF808
80FFF808
80E00008
80E03808
80603008
40787010
403FE010
400F8010
20000020
10000060
100000C0
08000180
06000300
01000600
00E03800
001FC000
ENDCHAR
STARTCHAR aj10318
ENCODING 9429
BBX 29 30 1 -3
BITMAP
001FC000
00E03800
03800C00
06000300
0C000180
180000C0
1003E040
2007E020
60060020
40060010
40060010
80060008
807FE008
807FE008
80060008
80060008
80060008
80060008
80060008
40060010
40060010
60060030
20060020
10060040
180600C0
0C000180
06000300
01000C00
00E03800
001FC000
ENDCHAR
STARTCHAR aj10319
ENCODING 9430
BBX 29 30 1 -3
BITMAP
001FC000
00E03800
01800C00
06000300
0C000180
180000C0
10000040
200FB020
6018F020
40307010
40603010
80603008
80603008
80603008
80603008
80307008
8018F008
800F3008
80003008
40703010
40302010
60386030
200F8020
10000040
180000C0
0C000180
06000300
01000C00
00E03800
001FC000
ENDCHAR
STARTCHAR aj10320
ENCODING 9431
BBX 30 29 1 -3
BITMAP
001FE000
00E01C00
03800600
06000180
0C0000C0
18300060
30300020
20300010
40300008
40300008
C031E008
8037F004
803E3804
80381804
80301804
80301804
80301804
80301804
40301808
40301808
40301818
20301810
10301820
18000060
0C0000C0
06000180
01800600
00E01C00
001FE000
ENDCHAR
STARTCHAR aj10321
ENCODING 9432
BBX 29 30 1 -3
BITMAP
001FC000
00E03800
01800C00
06000300
0C000180
180000C0
10070040
20070020
60070020
40000010
40000010
80000008
80060008
80060008
80060008
80060008
80060008
80060008
80060008
40060010
40060010
60060030
20060020
10060040
180000C0
0C000180
06000300
01000C00
00E03800
001FC000
ENDCHAR
STARTCHAR aj10322
ENCODING 9433
BBX 29 30 1 -3
BITMAP
001FC000
00E03800
01800C00
06000300
0C038180
180380C0
10038040
20000020
60000020
40000010
40030010
80030008
80030008
80030008
80030008
80030008
80030008
80030008
80030008
40030010
40030010
60030030
20030020
10030040
183F00C0
0C3E0180
06000300
01000C00
00E03800
001FC000
ENDCHAR
STARTCHAR aj10323
ENCODING 9434
BBX 29 29 1 -3
BITMAP
001FC000
00E03800
03000600
06000300
0C000180
183000C0
30300060
20300020
40300010
40300010
C0300010
80307008
8030E008
8031C008
80338008
80370008
803F8008
8039C008
4030C010
4030E010
40307010
20303820
30301C60
100000C0
08000180
06000300
03000600
00E03800
001FC000
ENDCHAR
STARTCHAR aj10324
ENCODING 9435
BBX 28 30 1 -3
BITMAP
003F8000
00E07000
03000C00
06000600
08000300
18000180
10060080
20060040
60060020
40060020
40060020
80060010
80060010
80060010
80060010
80060010
80060010
80060010
80060010
40060020
40060020
60060060
20060040
30060080
10000180
08000100
06000600
03000C00
00E07000
003FC000
ENDCHAR
STARTCHAR aj10325
ENCODING 9436
BBX 29 28 1 -2
BITMAP
001FC000
00E03800
03000600
06000300
08000080
10000040
30000060
20000020
41BCF810
41FFFC10
81C78C10
81860C08
81860C08
81860C08
81860C08
81860C08
81860C08
81860C18
41860C10
41860C10
20000020
30000060
10000040
08000080
06000300
03000600
00E03800
001FC000
ENDCHAR
STARTCHAR aj10326
ENCODING 9437
BBX 29 28 1 -2
BITMAP
003FC000
00E03800
03000600
06000300
08000080
10000040
30000060
60000020
4067C010
407FE010
80787010
80703008
80603008
80603008
80603008
80603008
80603008
80603018
40603010
40603010
20000020
30000060
10000040
08000080
06000300
03000600
00E03800
001FC000
ENDCHAR
STARTCHAR aj10327
ENCODING 9438
BBX 29 29 1 -3
BITMAP
003FC000
00E03800
03000400
06000300
0C000180
180000C0
30000040
20000020
400F8010
403FE010
C070F010
80603008
80C01808
80C01808
80C01808
80C01808
80C01808
80603008
40707010
403FE010
400F8010
20000020
10000060
100000C0
08000180
06000300
01000600
00E03800
001FC000
ENDCHAR
STARTCHAR aj10328
ENCODING 9439
BBX 30 30 0 -3
BITMAP
000FE000
00701800
00800600
03000180
040000C0
08000060
10000020
20000010
2033E010
403C3808
40381808
80381C04
80300C04
80300C04
80300C04
80300C04
80300C04
80381804
80381804
40343008
4033E008
60300010
20300010
10300020
18000060
0C0000C0
06000180
01800600
00E01800
001FE000
ENDCHAR
STARTCHAR aj10329
ENCODING 9440
BBX 30 30 1 -3
BITMAP
000FE000
00701C00
00800600
03000180
040000C0
08000060
10000020
20000010
201F3010
4030F008
40607008
80607004
80C03004
80C03004
80C03004
80C03004
80C03004
80607004
80607004
4030B008
401F3008
60003010
20003010
10003020
18000060
0C0000C0
06000180
01800600
00E01800
001FE000
ENDCHAR
STARTCHAR aj10330
ENCODING 9441
BBX 29 29 1 -3
BITMAP
001FC000
00E03800
03000400
06000300
0C000180
180000C0
30000040
20000020
40000010
400C7010
C00CF010
800FC008
800F0008
800E0008
800C0008
800C0008
800C0008
800C0008
400C0010
400C0010
400C0010
20000020
30000060
100000C0
08000180
06000300
03000600
00E03800
001FC000
ENDCHAR
STARTCHAR aj10331
ENCODING 9442
BBX 29 29 1 -2
BITMAP
001FC000
00E03800
01000400
06000300
0C000180
180000C0
30000040
20000020
400F8010
4010C010
40306010
80306008
803C0008
801F8008
800FE008
8001F008
80007008
80603008
40703010
40386010
400FC010
20000020
30000060
100000C0
08000180
06000300
03000600
00E03800
001FC000
ENDCHAR
STARTCHAR aj10332
ENCODING 9443
BBX 31 29 0 -3
BITMAP
000FE000
00701C00
01800300
02000080
0C000060
18000030
10000010
20060008
60060004
40060004
403FE004
803FE002
80060002
80060002
80060002
80060002
80060002
80060002
40060004
40060004
6006000C
2007F008
1003F010
18000030
0C000060
06000080
01800300
00701C00
000FE000
ENDCHAR
STARTCHAR aj10333
ENCODING 9444
BBX 29 28 1 -2
BITMAP
003FC000
00E03800
03000600
06000300
08000080
10000040
30000060
60000020
40603010
40603010
80603010
80603008
80603008
80603008
80603008
80603008
80607008
8070F018
403FF010
401F3010
20000020
30000060
10000040
08000080
06000300
03000600
00E03800
001FC000
ENDCHAR
STARTCHAR aj10334
ENCODING 9445
BBX 29 29 1 -3
BITMAP
001FC000
00E03800
03000400
06000300
0C000180
180000C0
30000040
20000020
40000010
40C01810
C0E03810
80603008
80707008
80306008
8038E008
8018C008
8019C008
800D8008
400D8010
40070010
40070010
20000020
30000060
100000C0
08000180
06000300
03000600
00E03800
001FC000
ENDCHAR
STARTCHAR aj10335
ENCODING 9446
BBX 29 29 1 -3
BITMAP
001FC000
00E03800
03000400
06000300
0C000180
180000C0
30000040
20000020
40000010
46070310
C7070710
83070608
830D8E08
818D8C08
818D8C08
8198DC08
80D8D808
80D8D808
40F07810
40707010
40707010
20000020
30000060
100000C0
08000180
06000300
03000600
00E03800
001FC000
ENDCHAR
STARTCHAR aj10336
ENCODING 9447
BBX 29 28 1 -2
BITMAP
003FC000
00E03800
03000600
06000300
08000080
10000040
30000060
60000020
40E03810
40707010
8038E010
801DC008
800F8008
80070008
800F8008
801DC008
8038E008
80706018
40707010
40E03810
20000020
30000060
10000040
08000080
06000300
03000600
00E03800
001FC000
ENDCHAR
STARTCHAR aj10337
ENCODING 9448
BBX 29 29 1 -3
BITMAP
001FC000
00E03800
03000400
06000300
0C000180
180000C0
30000040
20601C20
40601810
40703810
C0303010
80387008
80186008
801CE008
800CC008
800EC008
80078008
80078008
40030010
40070010
40060010
207E0020
307C0060
100000C0
08000180
06000300
03000600
00E03800
001FC000
ENDCHAR
STARTCHAR aj10338
ENCODING 9449
BBX 29 28 1 -2
BITMAP
001FC000
00E03800
03000600
06000300
08000080
10000040
30000060
20000020
407FF010
407FF010
8000E010
8001C008
80038008
80070008
800E0008
801C0008
80380008
80700018
407FF010
407FF010
20000020
30000060
10000040
08000080
06000300
03000600
00E03800
001FC000
ENDCHAR
STARTCHAR aj10515
ENCODING 9451
BBX 30 29 0 -3
BITMAP
001FE000
007FFC00
01FFFE00
03FFFF80
0FFFFFC0
1F9FF1E0
1E1FE1E0
3C1FC1F0
7C9FD1F8
7F9FF1F8
7F9FF1F8
FF9FF1FC
FF9FF1FC
FF9FF1FC
FF9FF1FC
FF9FF1FC
FF9FF1FC
FF9FF1FC
7F9FF1F8
7F9FF1F8
7F9FF1F8
3F9FF1F0
1F9FF1E0
1F9FF1E0
0FFFFFC0
07FFFF80
01FFFE00
00FFFC00
001FE000
ENDCHAR
STARTCHAR aj10516
ENCODING 9452
BBX 29 29 1 -3
BITMAP
001FC000
00FFF800
01FFFE00
07FFFF00
0FFFFF80
1E7F0FC0
3C7C03E0
387CF3E0
7A78F9F0
7E79F9F0
7E79F9F0
FE7FF9F8
FE7FF1F8
FE7FE3F8
FE7FC7F8
FE7F8FF8
FE7F1FF8
FE7E3FF8
7E7C7FF0
7E7C7FF0
7E78FFF0
3E79FFE0
3E7801E0
1E7001C0
0FFFFF80
07FFFF00
03FFFE00
00FFF800
001FC000
ENDCHAR
STARTCHAR aj10517
ENCODING 9453
BBX 29 29 1 -3
BITMAP
001FC000
00FFF800
01FFFE00
07FFFF00
0FFFFF80
1E7E0FC0
3C7C03E0
3878F3E0
7E79F9F0
7E7FF9F0
7E7FF9F0
FE7FF9F8
FE7FF3F8
FE7F07F8
FE7F03F8
FE7FF1F8
FE7FF8F8
FE7FF8F8
7E71F8F0
7E79F8F0
7E79F8F0
3E78F1E0
3E7C03E0
1E7E07C0
0FFFFF80
07FFFF00
03FFFE00
00FFF800
001FC000
ENDCHAR
STARTCHAR aj10518
ENCODING 9454
BBX 30 29 1 -3
BITMAP
001FE000
00FFF800
01FFFE00
07FFFF80
0FFFFFC0
1E7FE3E0
3C7FE3E0
387FC3F0
7A7F83F8
7E7F13F8
7E7F13F8
FE7E33FC
FE7C73FC
FE7C73FC
FE78F3FC
FE71F3FC
FE63F3FC
FE60007C
7E600078
7E7FF3F8
7E7FF3F8
3E7FF3F0
1E7FF3E0
1E7FF3E0
0FFFFFC0
07FFFF80
01FFFE00
00FFFC00
001FE000
ENDCHAR
STARTCHAR aj10519
ENCODING 9455
BBX 29 29 1 -3
BITMAP
001FC000
00FFF800
01FFFE00
07FFFF00
0FFFFF80
1E7803C0
3C7803E0
3879FFE0
7A79FFF0
7E79FFF0
7E79FFF0
FE790FF8
FE7807F8
FE78E3F8
FE79F1F8
FE7FF9F8
FE7FF9F8
FE7FF9F8
7E7FF9F0
7E71F9F0
7E79F3F0
3E78E3E0
3E7C07E0
1E7E0FC0
0FFFFF80
07FFFF00
03FFFE00
00FFF800
001FC000
ENDCHAR
STARTCHAR aj10520
ENCODING 9456
BBX 29 29 1 -3
BITMAP
001FC000
00FFF800
01FFFE00
07FFFF00
0FFFFF80
1E7F07C0
3C7E03E0
387C71E0
7A78F9F0
7E79FFF0
7E79FFF0
FE71FFF8
FE710FF8
FE7007F8
FE7073F8
FE70F1F8
FE71F9F8
FE71F9F8
7E71F9F0
7E71F9F0
7E78F3F0
3E7873E0
3E7C07E0
1E7E0FC0
0FFFFF80
07FFFF00
03FFFE00
00FFF800
001FC000
ENDCHAR
STARTCHAR aj10521
ENCODING 9457
BBX 29 29 1 -3
BITMAP
001FC000
00FFF800
03FFFC00
07FFFF00
0FFFFF80
1E3801C0
3C3801C0
383FF1E0
7A3FF3F0
7E3FF3F0
FE3FE7F0
FE3FE7F8
FE3FE7F8
FE3FCFF8
FE3FCFF8
FE3FCFF8
FE3F8FF8
FE3F9FF8
7E3F9FF0
7E3F1FF0
7E3F1FF0
3E3F3FE0
3E3E3FE0
1E3E3FC0
0FFFFF80
07FFFF00
03FFFE00
00FFF800
001FC000
ENDCHAR
STARTCHAR aj10522
ENCODING 9458
BBX 29 29 1 -3
BITMAP
001FC000
00FFF800
01FFFE00
07FFFF00
0FFFFF80
1E7E0FC0
3C7C07E0
3878F3E0
7A71F9F0
7E71F9F0
7E71F9F0
FE71F9F8
FE78F3F8
FE7E07F8
FE7C03F8
FE78E1F8
FE71F0F8
FE73F8F8
7E73F8F0
7E73F8F0
7E71F0F0
3E78E1E0
3E7C03E0
1E7E07C0
0FFFFF80
07FFFF00
03FFFE00
00FFF800
001FC000
ENDCHAR
STARTCHAR aj10523
ENCODING 9459
BBX 29 29 1 -3
BITMAP
001FC000
00FFF800
01FFFE00
07FFFF00
0FFFFF80
1E7E0FC0
3C7C03E0
3878F1E0
7A78F1F0
7E71F9F0
7E71F8F0
FE71F8F8
FE71F8F8
FE70F0F8
FE78F0F8
FE7C08F8
FE7E18F8
FE7FF8F8
7E7FF9F0
7E79F1F0
7E79F1F0
3E78E3E0
3E7C07E0
1E7E0FC0
0FFFFF80
07FFFF00
03FFFE00
00FFF800
001FC000
ENDCHAR
STARTCHAR aj10524
ENCODING 9460
BBX 29 29 1 -3
BITMAP
001FC000
00FFF800
03FFFC00
07FFFF00
0F0FE380
1E07C1C0
3C0380C0
3CE39CE0
78F39C70
79F33E70
F9F33E70
FFF73E78
FFE73E78
FFCF3E78
FFDF3E78
FF9F3E78
FF3F3E78
FE7F3E78
7EFF3E70
7CFF3E70
7CFF9CF0
3C039CE0
380381E0
1803C1C0
0FFFE380
07FFFF00
03FFFE00
00FFF800
001FC000
ENDCHAR
STARTCHAR aj16223
ENCODING 9461
BBX 29 29 1 -3
BITMAP
001FC000
00E03800
03000600
061FC300
0C703980
10800CC0
33030360
260F01A0
441F0090
481B0050
48030050
90030028
90030028
90030028
90030028
90030028
90030028
90030028
48030050
48030050
640300B0
36030120
33030360
188004C0
0C703980
061FE300
03800600
00E03800
001FC000
ENDCHAR
STARTCHAR aj16224
ENCODING 9462
BBX 30 30 1 -3
BITMAP
001FC000
00E03800
01800600
060FC100
0C703880
18C00C40
1107C220
221FE110
64383090
4C301848
48701848
98701868
90003824
90007024
9000F024
9003C024
90078024
900E0024
981C004C
48380048
4C3000D8
647FF890
227FF930
11000220
18C00440
0C703880
060FE300
01800600
00E03800
001FE000
ENDCHAR
STARTCHAR aj16225
ENCODING 9463
BBX 29 30 1 -3
BITMAP
001FC000
00E03800
01800C00
061F8200
0CE07100
19801880
120F8440
243FE220
68306120
58603090
50603090
B00030C8
A0003048
A0006048
A00FC048
A00FC048
A0007048
A0003848
B0001898
50E01890
58601990
68707130
243FE220
120FC440
198008C0
0CE07180
061FC300
03000E00
00E03800
001FC000
ENDCHAR
STARTCHAR aj16226
ENCODING 9464
BBX 29 29 1 -3
BITMAP
001FC000
00E03800
03000400
061FC300
0C603180
11800CC0
3301C640
2601C320
4403C110
4807C090
480EC090
901CC048
9018C048
9030C048
9070C048
90E0C048
91C0C048
91FFF848
49FFF890
4800C090
6400C130
2600C320
3300C640
19800CC0
0C603180
061FC300
03800C00
00E03800
001FC000
ENDCHAR
STARTCHAR aj16227
ENCODING 9465
BBX 30 30 1 -3
BITMAP
001FC000
00E01800
01800600
060FC100
0C703880
18C00C40
11000220
223FF110
643FF090
4C300048
48300048
98300068
9033C024
903FE024
903C7024
90303824
90101824
90001824
9800184C
48001848
4C3038D8
64387090
221FE130
110FC220
18C00440
0C703880
060FE100
01800600
00E03800
001FE000
ENDCHAR
STARTCHAR aj16228
ENCODING 9466
BBX 29 29 1 -3
BITMAP
001FC000
00E03800
031FC600
06E03300
0D800D80
12000240
34078160
281FE0A0
583860D0
50307050
70600050
A0600028
A0678028
A07FC028
A078E028
A0707028
A0603028
B0603048
50603050
583070D0
6838E0B0
241FC120
320F8260
19800CC0
0CE03980
061FC300
03800E00
00E03800
001FC000
ENDCHAR
STARTCHAR aj16229
ENCODING 9467
BBX 29 29 1 -3
BITMAP
001FC000
00E03800
031F8400
06E07300
09801980
12000440
34000260
287FF120
587FF090
50007090
700060D0
A000E048
A000C048
A001C048
A0018048
A0038048
A0030048
B0030098
50070090
580601B0
680E0120
240E0260
320C0440
19800880
0CE07100
061FC200
03000C00
00E03800
001FC000
ENDCHAR
STARTCHAR aj16230
ENCODING 9468
BBX 29 29 1 -3
BITMAP
001FE000
00E03800
031FC600
06E03300
0D800D80
12000240
340F8160
283FE0A0
587060D0
50603050
70603058
A0603028
A0306028
A01FC028
A03FE028
A0707028
A0E03828
B0C01848
50C01850
58C038D0
687070B0
243FE120
321FC240
19800CC0
0CE03980
061FC300
03800E00
00E03800
001FC000
ENDCHAR
STARTCHAR aj16231
ENCODING 9469
BBX 29 30 1 -3
BITMAP
001FC000
00E03800
01800C00
061FC300
0CE03180
19800C80
120F8240
241FE120
483860A0
587030D0
50601050
B0601848
A0601828
A0601828
A0703828
A0385828
A01FF828
A00F3828
B0003858
50703050
583070D0
6838E0B0
241FE120
120F8240
19800CC0
0CE03980
061FC300
01800E00
00E03800
001FC000
ENDCHAR
STARTCHAR aj16232
ENCODING 9470
BBX 29 30 1 -3
BITMAP
001FC000
00E03800
01800C00
061F8300
0CE07180
198018C0
12000440
2460E220
69E3F130
59E31890
51671890
B0660CC8
A0660C48
A0660C48
A0660C48
A0660C48
A0660C48
A0660C48
B0660C98
50671890
58631990
6863F930
2461E220
12000440
198008C0
0CE07180
061FC300
01000E00
00E03800
001FC000
ENDCHAR
STARTCHAR aj7479
ENCODING 9472
BBX 31 1 0 11
BITMAP
FFFFFFFE
ENDCHAR
STARTCHAR aj7480
ENCODING 9473
BBX 31 4 0 10
BITMAP
FFFFFFFE
FFFFFFFE
FFFFFFFE
FFFFFFFE
ENDCHAR
STARTCHAR aj7481
ENCODING 9474
BBX 1 31 15 -4
BITMAP
80
80
80
80
80
80
80
80
80
80
80
80
80
80
80
80
80
80
80
80
80
80
80
80
80
80
80
80
80
80
80
ENDCHAR
STARTCHAR aj7482
ENCODING 9475
BBX 4 31 14 -4
BITMAP
F0
F0
F0
F0
F0
F0
F0
F0
F0
F0
F0
F0
F0
F0
F0
F0
F0
F0
F0
F0
F0
F0
F0
F0
F0
F0
F0
F0
F0
F0
F0
ENDCHAR
STARTCHAR aj7491
ENCODING 9484
BBX 16 16 15 -4
BITMAP
FFFF
8000
8000
8000
8000
8000
8000
8000
8000
8000
8000
8000
8000
8000
8000
8000
ENDCHAR
STARTCHAR aj7494
ENCODING 9487
BBX 17 18 14 -4
BITMAP
FFFF80
FFFF80
FFFF80
FFFF80
F00000
F00000
F00000
F00000
F00000
F00000
F00000
F00000
F00000
F00000
F00000
F00000
F00000
F00000
ENDCHAR
STARTCHAR aj7495
ENCODING 9488
BBX 16 16 0 -4
BITMAP
FFFF
0001
0001
0001
0001
0001
0001
0001
0001
0001
0001
0001
0001
0001
0001
0001
ENDCHAR
STARTCHAR aj7498
ENCODING 9491
BBX 17 18 0 -4
BITMAP
FFFF80
FFFF80
FFFF80
FFFF80
000780
000780
000780
000780
000780
000780
000780
000780
000780
000780
000780
000780
000780
000780
ENDCHAR
STARTCHAR aj7499
ENCODING 9492
BBX 16 16 15 11
BITMAP
8000
8000
8000
8000
8000
8000
8000
8000
8000
8000
8000
8000
8000
8000
8000
FFFF
ENDCHAR
STARTCHAR aj7502
ENCODING 9495
BBX 17 17 14 10
BITMAP
F00000
F00000
F00000
F00000
F00000
F00000
F00000
F00000
F00000
F00000
F00000
F00000
F00000
FFFF80
FFFF80
FFFF80
FFFF80
ENDCHAR
STARTCHAR aj7503
ENCODING 9496
BBX 16 16 0 11
BITMAP
0001
0001
0001
0001
0001
0001
0001
0001
0001
0001
0001
0001
0001
0001
0001
FFFF
ENDCHAR
STARTCHAR aj7506
ENCODING 9499
BBX 17 17 0 10
BITMAP
000780
000780
000780
000780
000780
000780
000780
000780
000780
000780
000780
000780
000780
FFFF80
FFFF80
FFFF80
FFFF80
ENDCHAR
STARTCHAR aj7507
ENCODING 9500
BBX 16 31 15 -4
BITMAP
8000
8000
8000
8000
8000
8000
8000
8000
8000
8000
8000
8000
8000
8000
8000
FFFF
8000
8000
8000
8000
8000
8000
8000
8000
8000
8000
8000
8000
8000
8000
8000
ENDCHAR
STARTCHAR aj7508
ENCODING 9501
BBX 16 31 15 -4
BITMAP
8000
8000
8000
8000
8000
8000
8000
8000
8000
8000
8000
8000
8000
FFFF
FFFF
FFFF
FFFF
8000
8000
8000
8000
8000
8000
8000
8000
8000
8000
8000
8000
8000
8000
ENDCHAR
STARTCHAR aj7511
ENCODING 9504
BBX 17 31 14 -4
BITMAP
F00000
F00000
F00000
F00000
F00000
F00000
F00000
F00000
F00000
F00000
F00000
F00000
F00000
F00000
F00000
FFFF80
F00000
F00000
F00000
F00000
F00000
F00000
F00000
F00000
F00000
F00000
F00000
F00000
F00000
F00000
F00000
ENDCHAR
STARTCHAR aj7514
ENCODING 9507
BBX 17 31 14 -4
BITMAP
F00000
F00000
F00000
F00000
F00000
F00000
F00000
F00000
F00000
F00000
F00000
F00000
F00000
FFFF80
FFFF80
FFFF80
FFFF80
F00000
F00000
F00000
F00000
F00000
F00000
F00000
F00000
F00000
F00000
F00000
F00000
F00000
F00000
ENDCHAR
STARTCHAR aj7515
ENCODING 9508
BBX 16 31 0 -4
BITMAP
0001
0001
0001
0001
0001
0001
0001
0001
0001
0001
0001
0001
0001
0001
0001
FFFF
0001
0001
0001
0001
0001
0001
0001
0001
0001
0001
0001
0001
0001
0001
0001
ENDCHAR
STARTCHAR aj7516
ENCODING 9509
BBX 16 31 0 -4
BITMAP
0001
0001
0001
0001
0001
0001
0001
0001
0001
0001
0001
0001
0001
FFFF
FFFF
FFFF
FFFF
0001
0001
0001
0001
0001
0001
0001
0001
0001
0001
0001
0001
0001
0001
ENDCHAR
STARTCHAR aj7519
ENCODING 9512
BBX 17 31 0 -4
BITMAP
000780
000780
000780
000780
000780
000780
000780
000780
000780
000780
000780
000780
000780
000780
000780
FFFF80
000780
000780
000780
000780
000780
000780
000780
000780
000780
000780
000780
000780
000780
000780
000780
ENDCHAR
STARTCHAR aj7522
ENCODING 9515
BBX 17 31 0 -4
BITMAP
000780
000780
000780
000780
000780
000780
000780
000780
000780
000780
000780
000780
000780
FFFF80
FFFF80
FFFF80
FFFF80
000780
000780
000780
000780
000780
000780
000780
000780
000780
000780
000780
000780
000780
000780
ENDCHAR
STARTCHAR aj7523
ENCODING 9516
BBX 31 16 0 -4
BITMAP
FFFFFFFE
00010000
00010000
00010000
00010000
00010000
00010000
00010000
00010000
00010000
00010000
00010000
00010000
00010000
00010000
00010000
ENDCHAR
STARTCHAR aj7526
ENCODING 9519
BBX 31 18 0 -4
BITMAP
FFFFFFFE
FFFFFFFE
FFFFFFFE
FFFFFFFE
00010000
00010000
00010000
00010000
00010000
00010000
00010000
00010000
00010000
00010000
00010000
00010000
00010000
00010000
ENDCHAR
STARTCHAR aj7527
ENCODING 9520
BBX 31 16 0 -4
BITMAP
FFFFFFFE
0003C000
0003C000
0003C000
0003C000
0003C000
0003C000
0003C000
0003C000
0003C000
0003C000
0003C000
0003C000
0003C000
0003C000
0003C000
ENDCHAR
STARTCHAR aj7530
ENCODING 9523
BBX 31 18 0 -4
BITMAP
FFFFFFFE
FFFFFFFE
FFFFFFFE
FFFFFFFE
0003C000
0003C000
0003C000
0003C000
0003C000
0003C000
0003C000
0003C000
0003C000
0003C000
0003C000
0003C000
0003C000
0003C000
ENDCHAR
STARTCHAR aj7531
ENCODING 9524
BBX 31 16 0 11
BITMAP
00010000
00010000
00010000
00010000
00010000
00010000
00010000
00010000
00010000
00010000
00010000
00010000
00010000
00010000
00010000
FFFFFFFE
ENDCHAR
STARTCHAR aj7534
ENCODING 9527
BBX 31 17 0 10
BITMAP
00010000
00010000
00010000
00010000
00010000
00010000
00010000
00010000
00010000
00010000
00010000
00010000
00010000
FFFFFFFE
FFFFFFFE
FFFFFFFE
FFFFFFFE
ENDCHAR
STARTCHAR aj7535
ENCODING 9528
BBX 31 16 0 11
BITMAP
0003C000
0003C000
0003C000
0003C000
0003C000
0003C000
0003C000
0003C000
0003C000
0003C000
0003C000
0003C000
0003C000
0003C000
0003C000
FFFFFFFE
ENDCHAR
STARTCHAR aj7538
ENCODING 9531
BBX 31 17 0 10
BITMAP
0003C000
0003C000
0003C000
0003C000
0003C000
0003C000
0003C000
0003C000
0003C000
0003C000
0003C000
0003C000
0003C000
FFFFFFFE
FFFFFFFE
FFFFFFFE
FFFFFFFE
ENDCHAR
STARTCHAR aj7539
ENCODING 9532
BBX 31 31 0 -4
BITMAP
00010000
00010000
00010000
00010000
00010000
00010000
00010000
00010000
00010000
00010000
00010000
00010000
00010000
00010000
00010000
FFFFFFFE
00010000
00010000
00010000
00010000
00010000
00010000
00010000
00010000
00010000
00010000
00010000
00010000
00010000
00010000
00010000
ENDCHAR
STARTCHAR aj7542
ENCODING 9535
BBX 31 31 0 -4
BITMAP
00010000
00010000
00010000
00010000
00010000
00010000
00010000
00010000
00010000
00010000
00010000
00010000
00010000
FFFFFFFE
FFFFFFFE
FFFFFFFE
FFFFFFFE
00010000
00010000
00010000
00010000
00010000
00010000
00010000
00010000
00010000
00010000
00010000
00010000
00010000
00010000
ENDCHAR
STARTCHAR aj7545
ENCODING 9538
BBX 31 31 0 -4
BITMAP
0003C000
0003C000
0003C000
0003C000
0003C000
0003C000
0003C000
0003C000
0003C000
0003C000
0003C000
0003C000
0003C000
0003C000
0003C000
FFFFFFFE
0003C000
0003C000
0003C000
0003C000
0003C000
0003C000
0003C000
0003C000
0003C000
0003C000
0003C000
0003C000
0003C000
0003C000
0003C000
ENDCHAR
STARTCHAR aj7554
ENCODING 9547
BBX 31 31 0 -4
BITMAP
0003C000
0003C000
0003C000
0003C000
0003C000
0003C000
0003C000
0003C000
0003C000
0003C000
0003C000
0003C000
0003C000
FFFFFFFE
FFFFFFFE
FFFFFFFE
FFFFFFFE
0003C000
0003C000
0003C000
0003C000
0003C000
0003C000
0003C000
0003C000
0003C000
0003C000
0003C000
0003C000
0003C000
0003C000
ENDCHAR
STARTCHAR aj729
ENCODING 9632
BBX 23 23 4 0
BITMAP
FFFFFE
FFFFFE
FFFFFE
FFFFFE
FFFFFE
FFFFFE
FFFFFE
FFFFFE
FFFFFE
FFFFFE
FFFFFE
FFFFFE
FFFFFE
FFFFFE
FFFFFE
FFFFFE
FFFFFE
FFFFFE
FFFFFE
FFFFFE
FFFFFE
FFFFFE
FFFFFE
ENDCHAR
STARTCHAR aj728
ENCODING 9633
BBX 23 23 4 0
BITMAP
FFFFFE
FFFFFE
C00006
C00006
C00006
C00006
C00006
C00006
C00006
C00006
C00006
C00006
C00006
C00006
C00006
C00006
C00006
C00006
C00006
C00006
C00006
FFFFFE
FFFFFE
ENDCHAR
STARTCHAR aj16235
ENCODING 9649
SWIDTH 500 0
DWIDTH 16 0
BBX 13 6 1 9
BITMAP
1FF8
1018
3030
6020
6060
FFC0
ENDCHAR
STARTCHAR aj731
ENCODING 9650
BBX 25 24 3 0
BITMAP
00080000
00080000
001C0000
001C0000
003E0000
003E0000
007F0000
007F0000
00FF8000
00FF8000
01FFC000
01FFC000
03FFE000
03FFE000
07FFF000
0FFFF800
0FFFF800
1FFFFC00
1FFFFC00
3FFFFE00
3FFFFE00
7FFFFF00
7FFFFF00
FFFFFF80
ENDCHAR
STARTCHAR aj730
ENCODING 9651
BBX 25 24 3 0
BITMAP
00080000
00080000
001C0000
001C0000
003E0000
00360000
00770000
00630000
00E38000
00C18000
01C0C000
0180C000
03006000
03006000
06003000
0E003000
0C001800
1C001C00
18000C00
38000E00
30000600
70000700
7FFFFF00
FFFFFF80
ENDCHAR
STARTCHAR aj12195
ENCODING 9654
SWIDTH 500 0
DWIDTH 16 0
BBX 12 17 2 3
BITMAP
8000
E000
F000
FC00
FE00
FF80
FFC0
FFF0
FFF0
FFE0
FF80
FF00
FC00
F800
F000
C000
8000
ENDCHAR
STARTCHAR aj8010
ENCODING 9655
SWIDTH 500 0
DWIDTH 16 0
BBX 12 17 2 3
BITMAP
8000
E000
F000
9C00
8E00
8300
81C0
8060
8030
80E0
8180
8700
8C00
B800
E000
C000
8000
ENDCHAR
STARTCHAR aj733
ENCODING 9660
BBX 25 24 3 -1
BITMAP
FFFFFF80
7FFFFF00
7FFFFF00
3FFFFE00
3FFFFE00
1FFFFC00
1FFFFC00
0FFFF800
0FFFF800
07FFF000
03FFE000
03FFE000
01FFC000
01FFC000
00FF8000
00FF8000
007F0000
007F0000
003E0000
003E0000
001C0000
001C0000
00080000
00080000
ENDCHAR
STARTCHAR aj732
ENCODING 9661
BBX 25 24 3 -1
BITMAP
FFFFFF80
7FFFFF00
70000700
30000600
38000E00
18000C00
1C001C00
0C001800
06003800
06003000
03006000
03006000
0180C000
0181C000
00C18000
00E38000
00630000
00770000
00360000
003E0000
001C0000
001C0000
00080000
00080000
ENDCHAR
STARTCHAR aj12194
ENCODING 9664
SWIDTH 500 0
DWIDTH 16 0
BBX 12 17 2 3
BITMAP
0010
0070
00F0
03F0
07F0
1FF0
3FF0
FFF0
FFF0
7FF0
1FF0
0FF0
03F0
01F0
00F0
0030
0010
ENDCHAR
STARTCHAR aj8009
ENCODING 9665
SWIDTH 500 0
DWIDTH 16 0
BBX 12 17 1 3
BITMAP
0010
0070
00F0
0390
0710
1C10
3810
6010
C010
7010
1810
0E10
0310
01D0
0070
0030
0010
ENDCHAR
STARTCHAR aj727
ENCODING 9670
BBX 27 28 2 -2
BITMAP
00040000
000E0000
001F0000
003F8000
007FC000
00FFE000
01FFF000
03FFF800
07FFFC00
0FFFFE00
1FFFFF00
3FFFFF80
7FFFFFC0
FFFFFFE0
FFFFFFE0
7FFFFFC0
3FFFFF80
1FFFFF00
0FFFFE00
07FFFC00
03FFF800
01FFF000
00FFE000
007FC000
003F8000
001F0000
000E0000
00040000
ENDCHAR
STARTCHAR aj726
ENCODING 9671
BBX 27 28 2 -2
BITMAP
00040000
000E0000
001F0000
003B8000
0071C000
00E0E000
01C07000
03803800
07001C00
0E000E00
1C000700
38000380
700001C0
E00000E0
E00000E0
700001C0
38000380
1C000700
0E000E00
07001C00
03803800
01C07000
00E0E000
0071C000
003B8000
001F0000
000E0000
00040000
ENDCHAR
STARTCHAR aj8210
ENCODING 9673
SWIDTH 500 0
DWIDTH 16 0
BBX 14 14 1 5
BITMAP
0F80
1860
3010
4008
C708
8F84
9FC4
9FC4
9FC4
8F88
4708
2010
1060
0F80
ENDCHAR
STARTCHAR aj723
ENCODING 9675
BBX 25 26 3 -1
BITMAP
007F0000
01FFC000
07C1F000
0E003800
1C001C00
38000E00
30000600
60000700
60000300
E0000380
C0000180
C0000180
C0000180
C0000180
C0000180
C0000180
E0000180
60000300
70000300
30000600
38000E00
1C001C00
0E003800
07C0F000
01FFC000
007F0000
ENDCHAR
STARTCHAR aj725
ENCODING 9678
BBX 25 26 3 -1
BITMAP
007F0000
01FFC000
07C1F000
0E003800
1C001C00
383E0E00
30FF8600
61C1C300
6380E300
E3006380
C6003180
C6003180
C6003180
C6003180
C6003180
C6003180
E3006380
6380E300
61C1C700
30FF8600
383E0E00
1C001C00
0E003800
0780F000
01FFC000
007F0000
ENDCHAR
STARTCHAR aj724
ENCODING 9679
BBX 26 26 3 -1
BITMAP
003F8000
01FFE000
07FFF800
0FFFFC00
1FFFFE00
3FFFFF00
3FFFFF00
7FFFFF80
7FFFFF80
FFFFFFC0
FFFFFFC0
FFFFFFC0
FFFFFFC0
FFFFFFC0
FFFFFFC0
FFFFFFC0
FFFFFFC0
7FFFFF80
7FFFFF80
3FFFFF00
3FFFFF00
1FFFFE00
0FFFFC00
07FFF800
01FFE000
007F8000
ENDCHAR
STARTCHAR aj16274
ENCODING 9680
SWIDTH 500 0
DWIDTH 16 0
BBX 14 14 1 5
BITMAP
0FC0
1FE0
3E30
7E18
FE0C
FE04
FE04
FE04
FE04
FE0C
7E08
3E10
1E60
0FC0
ENDCHAR
STARTCHAR aj16275
ENCODING 9681
SWIDTH 500 0
DWIDTH 16 0
BBX 14 14 1 5
BITMAP
0F80
1FE0
31F0
61F8
C1FC
81FC
81FC
81FC
81FC
81FC
41F8
21F0
19E0
0F80
ENDCHAR
STARTCHAR aj16276
ENCODING 9682
SWIDTH 500 0
DWIDTH 16 0
BBX 14 14 1 5
BITMAP
0FC0
1860
2030
4018
C00C
800C
800C
FFFC
FFFC
FFFC
7FF8
3FF0
1FE0
0FC0
ENDCHAR
STARTCHAR aj16277
ENCODING 9683
SWIDTH 500 0
DWIDTH 16 0
BBX 14 14 1 5
BITMAP
0FC0
1FE0
3FF0
7FF8
FFF8
FFFC
FFFC
800C
800C
C00C
4018
2030
1860
0FC0
ENDCHAR
STARTCHAR aj12254.hw
ENCODING 9702
SWIDTH 500 0
DWIDTH 16 0
BBX 8 8 4 8
BITMAP
38
7C
E6
C3
C3
E7
7E
3C
ENDCHAR
STARTCHAR aj779
ENCODING 9711
BBX 29 29 1 -3
BITMAP
003FC000
00E03800
03000400
06000300
0C000180
180000C0
30000040
20000020
40000010
40000010
C0000010
80000008
80000008
80000008
80000008
80000008
80000008
80000008
40000010
40000010
40000010
20000020
10000060
100000C0
08000180
06000300
01000600
00E03800
001FC000
ENDCHAR
STARTCHAR aj8215
ENCODING 9728
BBX 29 29 1 -3
BITMAP
00020000
00020000
00020000
00020000
0C020180
06000300
03000600
018F8C00
003FE000
007FF000
00FFF800
00FFF800
01FFFC00
01FFFC00
FDFFFDF8
01FFFC00
01FFFC00
00FFF800
00FFF800
007FF000
00BFE800
010F8400
02000200
04020100
00020000
00020000
00020000
00020000
00020000
ENDCHAR
STARTCHAR aj8216
ENCODING 9729
BBX 27 21 2 -1
BITMAP
007C0000
01FF0000
01FF8000
03FFC000
03FFC000
03FFE780
07FFEFC0
07FFFFE0
07FFFFE0
1FFFFFE0
3FFFFFE0
7FFFFFC0
FFFFFF80
FFFFFFC0
FFFFFFE0
FFFFFFE0
FFF7FFE0
7FE3FFE0
3FC1FFC0
1F00FF80
00003F00
ENDCHAR
STARTCHAR aj8217
ENCODING 9730
BBX 29 28 1 -2
BITMAP
00020000
00020000
00020000
007FF000
03FFFE00
07FFFF00
1FFFFFC0
3FFFFFC0
3FFFFFE0
7FFFFFF0
7FFFFFF0
E3C71E18
C1020C08
81020408
00020000
00020000
00020000
00020000
00020000
00020000
00020000
00020000
00020000
00020000
00020000
00220000
00220000
003C0000
ENDCHAR
STARTCHAR aj8218
ENCODING 9731
BBX 29 28 1 -2
BITMAP
C00E1030
C0062830
03804400
02808200
01010100
00020080
700C0100
50720270
21818250
02007C20
0418C200
0418C200
7418C200
54000200
72000400
018F8838
01000428
C6000310
C8000080
C8060080
10060040
10060040
10000040
10060040
180600C0
08060080
06000300
01FFFC00
ENDCHAR
STARTCHAR aj722
ENCODING 9733
BBX 27 28 2 -2
BITMAP
00040000
00040000
00040000
000E0000
000E0000
000E0000
001E0000
001F0000
001F0000
001F0000
003F8000
FFFFFFE0
3FFFFF80
1FFFFF00
0FFFFE00
03FFF800
01FFF000
00FFE000
00FFE000
01FFF000
01FFF000
01FBF000
03F1F800
03E0F800
03803800
07001C00
06000C00
08000200
ENDCHAR
STARTCHAR aj721
ENCODING 9734
BBX 27 28 2 -2
BITMAP
00040000
00040000
00040000
000E0000
000E0000
000E0000
001A0000
001B0000
001B0000
00110000
00318000
FFF1FFE0
3FE0FF80
18000300
0E000E00
07001C00
01803000
00C06000
00802000
01803000
018E3000
011F1000
03319800
03E0F800
03C07800
07001C00
06000C00
04000400
ENDCHAR
STARTCHAR aj8056
ENCODING 9742
BBX 29 23 1 0
BITMAP
07FFFF00
1FFFFFC0
3FFFFFE0
7F7077F0
7C7071F0
F87070F0
F87FF0F8
00FFF800
01FFFC00
03F07C00
03E03E00
03C01E00
07800E00
07800F00
0F800F80
1F800FC0
1F800FC0
3FC01FE0
3FE03FE0
7FF07FE0
7FFFFFF0
7FFFFFF0
7FFFFFF0
ENDCHAR
STARTCHAR aj16233
ENCODING 9750
BBX 25 25 3 0
BITMAP
00080000
003E0000
00770000
01E3C000
0780F000
1F007C00
3C001E00
30000600
30000600
30000600
30000600
30000600
30000600
70000600
60000700
60000300
60000300
60000300
60000300
60000300
60000300
60000300
E0000380
FFFFFF80
FFFFFF80
ENDCHAR
STARTCHAR aj16234
ENCODING 9751
BBX 25 25 3 0
BITMAP
00080000
003E0000
00FF8000
01FFC000
07FFF000
1FFFFC00
3FFFFE00
3FFFFE00
3FFFFE00
3FFFFE00
3FFFFE00
3FFFFE00
3FFFFE00
7FFFFE00
7FFFFF00
7FFFFF00
7FFFFF00
7FFFFF00
7FFFFF00
7FFFFF00
7FFFFF00
7FFFFF00
FFFFFF80
FFFFFF80
FFFFFF80
ENDCHAR
STARTCHAR aj8219
ENCODING 9758
BBX 27 12 2 6
BITMAP
783E7FC0
44C18020
8700C020
8401BFC0
883F4800
8FC0C400
8807E400
88051C00
8C0B0800
8A0AC800
8BC63000
FC3FE000
ENDCHAR
STARTCHAR aj706
ENCODING 9792
BBX 19 27 6 -2
BITMAP
03F000
07F800
0E1C00
1C0E00
380700
300300
300300
300300
300300
380700
180600
0E1C00
07F800
01E000
00C000
00C000
00C000
FFFFE0
FFFFE0
00C000
00C000
00C000
00C000
00C000
00C000
00C000
00C000
ENDCHAR
STARTCHAR aj705
ENCODING 9794
BBX 25 24 3 0
BITMAP
0003FF80
0003FF80
00000780
00000F80
00001D80
00003980
00007180
0000E180
0001C180
00038180
00070180
0FCE0000
1FFC0000
38780000
60180000
E01C0000
C00C0000
C00C0000
C00C0000
E01C0000
60180000
78700000
1FE00000
0FC00000
ENDCHAR
STARTCHAR aj8211
ENCODING 9824
SWIDTH 500 0
DWIDTH 16 0
BBX 13 18 1 3
BITMAP
0200
0700
0780
0FC0
1FC0
3FE0
3FF0
7FF0
FFF8
FFF8
FFF8
FFF8
FFF8
7FF0
0700
0780
0780
0F80
ENDCHAR
STARTCHAR aj8017
ENCODING 9825
SWIDTH 500 0
DWIDTH 16 0
BBX 13 17 1 3
BITMAP
38E0
4590
8708
8208
8008
8008
8008
C018
4010
6010
3020
3060
1840
08C0
0580
0700
0200
ENDCHAR
STARTCHAR aj8019
ENCODING 9826
SWIDTH 500 0
DWIDTH 16 0
BBX 12 19 2 2
BITMAP
0600
0E00
0B00
1980
3080
20C0
6040
C060
8030
8030
C020
4060
60C0
3080
1180
1900
0F00
0600
0400
ENDCHAR
STARTCHAR aj8213
ENCODING 9827
SWIDTH 500 0
DWIDTH 16 0
BBX 14 18 1 3
BITMAP
0700
0F80
1FC0
1FC0
1FC0
1FC0
0F80
7FF0
FFF8
FFFC
FFFC
FFFC
FFFC
7F78
0780
0780
0F80
0F80
ENDCHAR
STARTCHAR aj8018
ENCODING 9828
SWIDTH 500 0
DWIDTH 16 0
BBX 13 17 1 3
BITMAP
0300
0700
0C80
1840
1060
2020
4010
4010
8008
8008
8008
8508
CD98
7CF0
0480
0C80
0FC0
ENDCHAR
STARTCHAR aj8212
ENCODING 9829
SWIDTH 500 0
DWIDTH 16 0
BBX 13 17 1 3
BITMAP
38E0
7DF0
FFF8
FFF8
FFF8
FFF8
FFF8
7FF0
7FF0
7FF0
3FE0
3FE0
1FC0
0FC0
0F80
0700
0200
ENDCHAR
STARTCHAR aj8214
ENCODING 9830
SWIDTH 500 0
DWIDTH 16 0
BBX 12 19 2 2
BITMAP
0600
0E00
0F00
1F80
3F80
3FC0
7FC0
FFE0
FFF0
FFF0
FFE0
7FE0
7FC0
3F80
1F80
1F00
0F00
0600
0400
ENDCHAR
STARTCHAR aj8016
ENCODING 9831
SWIDTH 500 0
DWIDTH 16 0
BBX 14 17 1 3
BITMAP
0700
0880
1040
1040
1040
08C0
74F0
4888
8004
8004
8004
8484
4CC8
74F0
0480
0C80
0F80
ENDCHAR
STARTCHAR aj12098
ENCODING 9832
BBX 27 24 2 0
BITMAP
000C0000
00080000
03182000
06186000
06186000
06186000
06186000
060C6000
070C3000
03063000
03063800
01871800
01831800
01831800
31831980
618318C0
C3021060
C3063060
C00C0060
E00000E0
780003C0
3F001F80
0FFFFE00
00FFE000
ENDCHAR
STARTCHAR aj12099
ENCODING 9833
SWIDTH 500 0
DWIDTH 16 0
BBX 5 17 4 3
BITMAP
08
08
08
08
08
08
08
08
08
08
08
08
08
78
F8
F8
70
ENDCHAR
STARTCHAR aj775
ENCODING 9834
BBX 20 26 6 -1
BITMAP
00C000
00C000
00E000
00F000
00FC00
00DE00
00C780
00C3C0
00C1E0
00C060
00C070
00C030
00C030
00C030
00C030
00C060
00C060
00C0C0
00C180
00C100
3EC000
7FC000
FFC000
FF8000
FF0000
3E0000
ENDCHAR
STARTCHAR aj16200
ENCODING 9835
SWIDTH 500 0
DWIDTH 16 0
BBX 13 18 1 3
BITMAP
0008
0078
07F8
0FF8
0F08
0808
0808
0808
0808
0808
0808
0808
0808
08F8
08F8
F8F0
F800
F000
ENDCHAR
STARTCHAR aj12100
ENCODING 9836
SWIDTH 500 0
DWIDTH 16 0
BBX 13 18 1 3
BITMAP
0008
0078
07F8
0FC8
0C18
09F8
0FF8
0F08
0808
0808
0808
0808
0808
0878
08F8
78F0
F800
F000
ENDCHAR
STARTCHAR aj774
ENCODING 9837
BBX 12 26 11 -1
BITMAP
C000
C000
C000
C000
C000
C000
C000
C000
C000
C7C0
CFE0
D8F0
F070
E070
C070
C070
C070
C0E0
C0E0
C1C0
C380
C700
DE00
FC00
F000
C000
ENDCHAR
STARTCHAR aj16199
ENCODING 9838
SWIDTH 500 0
DWIDTH 16 0
BBX 6 17 5 3
BITMAP
80
80
80
8C
FC
F4
84
84
84
84
9C
FC
E4
04
04
04
04
ENDCHAR
STARTCHAR aj773
ENCODING 9839
BBX 19 26 6 -1
BITMAP
000600
0C0600
0C0600
0C0600
0C0600
0C0600
0C06E0
0C3FE0
1FFF80
FFE600
FC0600
0C0600
0C0600
0C0600
0C0600
0C0600
0C07E0
0DFFE0
7FFE00
FF0600
CC0600
0C0600
0C0600
0C0600
0C0600
0C0600
ENDCHAR
STARTCHAR aj16270
ENCODING 10003
BBX 20 20 7 2
BITMAP
000010
000020
000040
0000C0
000080
000100
000200
000600
000C00
001800
003000
403000
E06000
E0C000
618000
730000
360000
3E0000
1C0000
180000
ENDCHAR
STARTCHAR aj12259
ENCODING 10070
BBX 27 28 2 -2
BITMAP
00040000
000E0000
001F0000
003F8000
007FC000
00FFE000
01FFF000
00FFE000
047FC400
0E3F8E00
1F1F1F00
3F8E3F80
7FC47FC0
FFE0FFE0
FFF1FFE0
7FE0FFC0
3FC47F80
1F8E3F00
0F1F1E00
063F8C00
007FC000
00FFE000
00FFE000
007FC000
003F8000
001F0000
000E0000
00040000
ENDCHAR
STARTCHAR aj8286
ENCODING 10102
BBX 29 30 1 -3
BITMAP
001FC000
00FFF800
01FFFC00
07FFFF00
0FFFFF80
1FFCFFC0
1FF0FFC0
3FC0FFE0
7FC4FFE0
7FFCFFF0
7FFCFFF0
FFFCFFF8
FFFCFFF8
FFFCFFF8
FFFCFFF8
FFFCFFF8
FFFCFFF8
FFFCFFF8
FFFCFFF8
7FFCFFF0
7FFCFFF0
7FFCFFF0
3FFCFFE0
1FFCFFC0
1FFCFFC0
0FFFFF80
07FFFF00
01FFFC00
00FFF800
001FC000
ENDCHAR
STARTCHAR aj8287
ENCODING 10103
BBX 30 28 1 -2
BITMAP
001FE000
007FFC00
01FFFE00
07FFFF80
0FF83FC0
1FE00FE0
3FC787F0
3F8FC3F0
7F8FE3F8
7F9FE3F8
FF9FE3F8
FFFFC3FC
FFFF87FC
FFFF0FFC
FFFC1FFC
FFF87FFC
FFF0FFFC
FFE3FFFC
7FC7FFF8
7F8FFFF8
3F8FFFF0
3F8003F0
1F0003E0
0FFFFFC0
07FFFF80
01FFFE00
00FFFC00
001FE000
ENDCHAR
STARTCHAR aj8288
ENCODING 10104
BBX 29 30 1 -3
BITMAP
001FC000
007FF800
01FFFC00
03FFFF00
0FFFFF80
0FF07FC0
1FC01FC0
3F878FE0
7F9FC7E0
7F1FE7F0
7FFFE7F0
FFFFE7F8
FFFFC7F8
FFFF8FF8
FFF03FF8
FFF01FF8
FFFF8FF8
FFFFC7F8
FFFFE3F8
7FFFE3F0
7F3FE3F0
7F1FE3F0
3F1FC7E0
1F8787C0
1FC00FC0
0FF03F80
07FFFF00
01FFFC00
00FFF800
001FC000
ENDCHAR
STARTCHAR aj8289
ENCODING 10105
BBX 29 30 1 -3
BITMAP
001FC000
00FFF800
03FFFC00
07FFFF00
0FFFFF80
1FFE3FC0
3FFE3FC0
3FFC3FE0
7FF83FE0
7FF13FF0
7FF13FF0
FFE33FF8
FFC73FF8
FF8F3FF8
FF8F3FF8
FF1F3FF8
FE3F3FF8
FC7F3FF8
FC0003F8
7C0003F0
7FFF3FF0
7FFF3FF0
3FFF3FE0
1FFF3FC0
1FFF3FC0
0FFFFF80
07FFFF00
01FFFC00
00FFF800
001FC000
ENDCHAR
STARTCHAR aj8290
ENCODING 10106
BBX 30 28 0 -2
BITMAP
001FE000
007FFC00
01FFFF00
03FFFF80
0FFFFFC0
1FC007E0
3FC007F0
3FCFFFF0
7FCFFFF8
7FCFFFF8
FFCFFFF8
FFC83FFC
FF800FFC
FF87C7FC
FF8FE7FC
FFFFF3FC
FFFFF3FC
FFFFF3FC
7FFFF3F8
7F9FF3F8
3F8FE7F0
3FC7C7F0
1FE00FE0
0FF83FC0
07FFFF80
01FFFE00
00FFFC00
001FE000
ENDCHAR
STARTCHAR aj8291
ENCODING 10107
BBX 29 29 1 -3
BITMAP
001FC000
00FFF800
03FFFC00
07FFFF00
0FF83F80
1FE01FC0
3FC78FC0
3FCFC7E0
7F9FC7F0
7F9FFFF0
FF1FFFF0
FF3FFFF8
FF307FF8
FF201FF8
FF078FF8
FF0FCFF8
FF1FE7F8
FF1FE7F8
7F1FE7F0
7F9FE7F0
7F8FC7F0
3F878FE0
3FC00FE0
1FE01FC0
0FF07F80
07FFFF00
03FFFE00
00FFF800
001FC000
ENDCHAR
STARTCHAR aj8292
ENCODING 10108
BBX 30 30 0 -3
BITMAP
000FE000
007FF800
01FFFE00
03FFFF80
07FFFFC0
0FFFFFE0
1F8003E0
3F8003F0
3F8003F0
7FFFE7F8
7FFFC7F8
FFFFCFFC
FFFF8FFC
FFFF8FFC
FFFF9FFC
FFFF1FFC
FFFF3FFC
FFFE3FFC
FFFE3FFC
7FFE7FF8
7FFC7FF8
7FFC7FF0
3FF8FFF0
1FF8FFE0
1FF8FFE0
0FF1FFC0
07FFFF80
01FFFE00
007FF800
001FE000
ENDCHAR
STARTCHAR aj8293
ENCODING 10109
BBX 29 29 1 -3
BITMAP
003FC000
00FFF800
03FFFC00
07FFFF00
0FF07F80
1FC01FC0
3F8F8FC0
3F1FC7E0
7F3FE7F0
7F3FE7F0
FF3FE7F0
FF1FC7F8
FF8F8FF8
FFE03FF8
FFC01FF8
FF0F87F8
FE1FC3F8
FE3FE3F8
7E3FE3F0
7E3FE3F0
7E1FC3F0
3F0F87E0
1F800FE0
1FE03FC0
0FFFFF80
07FFFF00
01FFFE00
00FFF800
001FC000
ENDCHAR
STARTCHAR aj8294
ENCODING 10110
BBX 29 29 1 -3
BITMAP
001FC000
00FFF800
03FFFC00
07FFFF00
0FF07F80
1FE01FC0
3FC78FC0
3F8FC7E0
7F1FE7F0
7F1FE7F0
FF1FE3F0
FF1FE3F8
FF1FE3F8
FF8FC3F8
FF8783F8
FFC023F8
FFF063F8
FFFFE3F8
7FFFE3F0
7F9FC7F0
7F8FC7F0
3F870FE0
3FC00FE0
1FE01FC0
0FF07F80
07FFFF00
03FFFE00
00FFF800
001FC000
ENDCHAR
STARTCHAR aj10514
ENCODING 10111
BBX 29 29 1 -3
BITMAP
001FC000
00FFF800
01FFFE00
07FFFF00
0FFFFF80
1E7F0FC0
3C7C03E0
387C63E0
7A78F1F0
7E78F1F0
7E71F8F0
FE71F8F8
FE71F8F8
FE71F8F8
FE71F8F8
FE71F8F8
FE71F8F8
FE71F8F8
7E71F8F0
7E78F1F0
7E78F1F0
3E7C63E0
3E7C03E0
1E7F0FC0
0FFFFF80
07FFFF00
03FFFE00
00FFF800
001FC000
ENDCHAR
STARTCHAR aj16201
ENCODING 10548
SWIDTH 500 0
DWIDTH 16 0
BBX 12 23 2 1
BITMAP
0300
0780
0FC0
1B60
3330
2310
0300
0300
0300
0300
0300
0300
0300
0300
0300
0300
0300
0300
0300
0700
0E00
FC00
F800
ENDCHAR
STARTCHAR aj16202
ENCODING 10549
SWIDTH 500 0
DWIDTH 16 0
BBX 12 23 2 0
BITMAP
F800
FC00
0E00
0700
0300
0300
0300
0300
0300
0300
0300
0300
0300
0300
0300
0300
0300
2310
3330
1B60
0FC0
0780
0300
ENDCHAR
STARTCHAR aj16203
ENCODING 10687
BBX 27 26 2 -1
BITMAP
003F8000
01FFF000
03C07800
0F001E00
1C000700
38000300
30000180
600001C0
600000C0
E00E00C0
C03F8060
C07F8060
C07FC060
C07FC060
C07FC060
C07FC060
E03F80C0
601F00C0
700001C0
30000180
18000300
1C000700
0F001E00
03C07800
01FFF000
003F8000
ENDCHAR
STARTCHAR aj16207.hw
ENCODING 10746
SWIDTH 500 0
DWIDTH 16 0
BBX 12 19 2 2
BITMAP
3180
3180
3180
3180
3180
3180
3180
3180
FFF0
FFF0
3180
3180
3180
3180
3180
3180
3180
3180
3180
ENDCHAR
STARTCHAR aj16208.hw
ENCODING 10747
SWIDTH 500 0
DWIDTH 16 0
BBX 13 19 1 2
BITMAP
3330
3330
3330
3330
3330
3330
3330
3330
FFF8
FFF8
3330
3330
3330
3330
3330
3330
3330
3330
3330
ENDCHAR
STARTCHAR aj633
ENCODING 12288
BBX 1 1 0 0
BITMAP
00
ENDCHAR
STARTCHAR aj634
ENCODING 12289
BBX 6 8 2 -2
BITMAP
40
E0
F0
78
38
1C
1C
08
ENDCHAR
STARTCHAR aj635
ENCODING 12290
BBX 9 8 1 -2
BITMAP
3E00
6700
C180
8080
8080
8080
4300
3E00
ENDCHAR
STARTCHAR aj655
ENCODING 12291
BBX 14 14 8 5
BITMAP
0E1C
0E18
0E38
0C38
1C30
1C30
1870
3860
30E0
30C0
70C0
61C0
E180
C380
ENDCHAR
STARTCHAR aj657
ENCODING 12293
BBX 20 19 5 2
BITMAP
01C000
01C000
018000
038000
03FFE0
07FFF0
060060
0E00E0
1C01C0
380180
380380
708700
E1CE00
40FC00
007800
001C00
000E00
000700
000200
ENDCHAR
STARTCHAR aj658
ENCODING 12294
BBX 21 23 5 0
BITMAP
000018
000038
000078
0000F0
0000E0
0001C0
078380
0FE700
0CFE00
183C00
183C00
303E00
307700
20E380
61C180
638000
470000
CE0000
CE0000
DC0000
F80000
F00000
600000
ENDCHAR
STARTCHAR aj659
ENCODING 12295
BBX 25 26 3 -1
BITMAP
007F0000
01FFC000
0780F000
0E003800
1C001C00
38000E00
30000600
60000300
60000300
C0000380
C0000180
C0000180
C0000180
C0000180
C0000180
C0000180
E0000380
60000300
60000300
70000600
38000E00
1C001C00
0E003800
0780F000
01FFE000
007F0000
ENDCHAR
STARTCHAR aj682
ENCODING 12296
BBX 12 28 17 -2
BITMAP
0070
0060
00E0
01C0
0380
0300
0700
0E00
0C00
1800
3800
7000
6000
E000
E000
6000
7000
3800
1800
0C00
0E00
0700
0300
0380
01C0
00C0
0060
0070
ENDCHAR
STARTCHAR aj683
ENCODING 12297
BBX 12 28 2 -2
BITMAP
E000
6000
3000
3800
1C00
0C00
0E00
0700
0300
0180
01C0
00E0
0060
0070
0070
0060
00E0
01C0
0180
0300
0700
0E00
0C00
1C00
3800
7000
6000
E000
ENDCHAR
STARTCHAR aj684
ENCODING 12298
BBX 14 28 16 -2
BITMAP
00CC
0198
0318
0330
0630
0660
0CC0
0CC0
1980
1980
3300
3300
6600
C600
C600
6600
3300
3300
1980
1980
0CC0
0C40
0660
0630
0330
0318
0198
00CC
ENDCHAR
STARTCHAR aj685
ENCODING 12299
BBX 14 28 1 -2
BITMAP
CC00
6600
6300
3300
3180
1980
08C0
0CC0
0660
0660
0330
0330
0198
018C
018C
0198
0330
0330
0660
0660
0CC0
0CC0
1980
3180
3300
6300
6600
CC00
ENDCHAR
STARTCHAR aj686
ENCODING 12300
BBX 8 23 20 3
BITMAP
FF
FF
C0
C0
C0
C0
C0
C0
C0
C0
C0
C0
C0
C0
C0
C0
C0
C0
C0
C0
C0
C0
C0
ENDCHAR
STARTCHAR aj687
ENCODING 12301
BBX 8 22 3 -2
BITMAP
03
03
03
03
03
03
03
03
03
03
03
03
03
03
03
03
03
03
03
03
FF
FF
ENDCHAR
STARTCHAR aj688
ENCODING 12302
BBX 11 23 18 3
BITMAP
FFE0
FFE0
C060
C060
CFE0
CFE0
CC00
CC00
CC00
CC00
CC00
CC00
CC00
CC00
CC00
CC00
CC00
CC00
CC00
CC00
CC00
FC00
FC00
ENDCHAR
STARTCHAR aj689
ENCODING 12303
BBX 11 22 2 -2
BITMAP
07E0
07E0
0660
0660
0660
0660
0660
0660
0660
0660
0660
0660
0660
0660
0660
0660
FE60
FE60
C060
C060
FFE0
FFE0
ENDCHAR
STARTCHAR aj690
ENCODING 12304
BBX 7 28 22 -2
BITMAP
FE
FC
F8
F8
F0
F0
E0
E0
E0
C0
C0
C0
C0
C0
C0
C0
C0
C0
C0
E0
E0
E0
F0
F0
F8
F8
FC
FE
ENDCHAR
STARTCHAR aj691
ENCODING 12305
BBX 7 28 2 -2
BITMAP
FE
7E
3E
3E
1E
1E
0E
0E
0E
06
06
06
06
06
06
06
06
06
06
0E
0E
0E
1E
1E
3E
3E
7E
FE
ENDCHAR
STARTCHAR aj735
ENCODING 12306
BBX 21 25 5 -2
BITMAP
FFFFF8
FFFFF8
FFFFF8
000000
000000
000000
000000
FFFFF8
FFFFF8
FFFFF8
007000
007000
007000
007000
007000
007000
007000
007000
007000
007000
007000
007000
007000
007000
007000
ENDCHAR
STARTCHAR aj740
ENCODING 12307
BBX 21 14 5 5
BITMAP
FFFFF8
FFFFF8
FFFFF8
FFFFF8
FFFFF8
000000
000000
000000
000000
000000
FFFFF8
FFFFF8
FFFFF8
FFFFF8
ENDCHAR
STARTCHAR aj676
ENCODING 12308
BBX 7 28 21 -2
BITMAP
02
0E
3E
F8
E0
C0
C0
C0
C0
C0
C0
C0
C0
C0
C0
C0
C0
C0
C0
C0
C0
C0
C0
C0
F0
7C
1E
02
ENDCHAR
STARTCHAR aj677
ENCODING 12309
BBX 7 28 3 -2
BITMAP
80
E0
F8
3E
0E
06
06
06
06
06
06
06
06
06
06
06
06
06
06
06
06
06
06
06
1E
7C
F0
80
ENDCHAR
STARTCHAR aj16197
ENCODING 12310
BBX 10 28 19 -2
BITMAP
FFC0
FFC0
C180
C300
C300
C700
C600
C600
C600
CC00
CC00
CC00
CC00
CC00
CC00
CC00
CC00
CC00
CC00
C600
C600
C600
C700
C300
C300
C180
FF80
FFC0
ENDCHAR
STARTCHAR aj16198
ENCODING 12311
BBX 10 28 2 -2
BITMAP
FFC0
FFC0
60C0
30C0
30C0
30C0
18C0
18C0
18C0
0CC0
0CC0
0CC0
0CC0
0CC0
0CC0
0CC0
0CC0
0CC0
0CC0
18C0
18C0
18C0
38C0
30C0
30C0
60C0
FFC0
FFC0
ENDCHAR
STARTCHAR aj12129
ENCODING 12312
BBX 10 28 19 -2
BITMAP
0040
03C0
0FC0
3CC0
E0C0
C0C0
C7C0
CE00
CC00
CC00
CC00
CC00
CC00
CC00
CC00
CC00
CC00
CC00
CC00
CC00
CC00
CF80
C1C0
C0C0
F8C0
1EC0
07C0
00C0
ENDCHAR
STARTCHAR aj12130
ENCODING 12313
BBX 10 28 2 -2
BITMAP
8000
F000
FC00
C700
C1C0
C0C0
F8C0
1CC0
0CC0
0CC0
0CC0
0CC0
0CC0
0CC0
0CC0
0CC0
0CC0
0CC0
0CC0
0CC0
0CC0
7CC0
E0C0
C0C0
C7C0
DE00
F800
C000
ENDCHAR
STARTCHAR aj665.dup11
ENCODING 12316
BBX 25 7 3 8
BITMAP
0F800000
7FE00000
F0780080
C03C0380
800F0780
0003FE00
0000F800
ENDCHAR
STARTCHAR aj7608
ENCODING 12317
BBX 8 13 21 13
BITMAP
40
E0
F0
3C
1E
07
41
E0
F8
3C
0E
07
01
ENDCHAR
STARTCHAR aj7609
ENCODING 12319
BBX 8 13 2 -2
BITMAP
80
C0
70
38
1E
0F
87
C0
70
38
1E
0F
06
ENDCHAR
STARTCHAR aj8058
ENCODING 12320
BBX 29 19 1 2
BITMAP
1FFFFFC0
1FFFFFC0
1FFFFFC0
00000000
1FFFFFC0
1FFFFFC0
1FFFFFC0
00070000
61070430
83870E08
84471108
84471108
C3870E10
20070020
10800840
10401080
08306100
060F8200
01FFFC00
ENDCHAR
STARTCHAR aj12108
ENCODING 12339
BBX 14 27 7 -4
BITMAP
001C
003C
0038
0038
0070
0070
0070
00E0
00E0
01C0
01C0
01C0
0380
0380
0700
0700
0E00
0E00
1C00
1C00
3800
3800
7000
7000
E000
E000
E000
ENDCHAR
STARTCHAR aj12109
ENCODING 12340
BBX 19 27 7 -4
BITMAP
001C00
003C00
003800
003800
007000
007000
007000
00E000
00E000
01C000
01C000
01C180
0381C0
038CE0
070E60
070640
0E0700
0E0200
1C0000
1C0000
380000
380000
700000
700000
E00000
E00000
E00000
ENDCHAR
STARTCHAR aj12110
ENCODING 12341
BBX 15 29 7 -2
BITMAP
E000
E000
E000
7000
7000
3800
3800
1C00
1E00
0E00
0700
0700
0780
0380
03C0
01C0
01E0
00E0
00E0
0070
0070
0038
0038
003C
001C
001E
000E
000C
0008
ENDCHAR
STARTCHAR aj12106
ENCODING 12347
BBX 11 21 10 1
BITMAP
2000
7000
7800
3C00
0E00
0780
0FC0
3F80
7000
6000
6000
7000
3800
1C00
0E00
0780
07E0
3FE0
7C20
E000
4000
ENDCHAR
STARTCHAR aj16194
ENCODING 12348
BBX 27 26 2 -1
BITMAP
FFFFFFE0
FFFFFFE0
C00001E0
C00003E0
C0000760
C0000E60
C0001C60
C0003860
C0007060
C000E060
C001C060
C0078060
C00F0060
C01E0060
C0380060
C0700060
C0E00060
C1C00060
C3800060
C7000060
CE000060
DC000060
F8000060
F0000060
FFFFFFE0
FFFFFFE0
ENDCHAR
STARTCHAR aj12179
ENCODING 12349
BBX 24 27 4 -2
BITMAP
780000
FC0000
CC3800
8EFC00
06CE00
078600
038600
000700
000300
000300
000380
000180
000180
0001C0
0000C0
0000C0
0000E0
000060
000060
000070
000030
000038
000018
00001C
00000E
00000F
000007
ENDCHAR
STARTCHAR aj842
ENCODING 12353
BBX 19 20 6 -1
BITMAP
030000
030000
033C00
7FFE00
7F8000
061000
061800
07FF00
07F780
0E31C0
1E70E0
366060
66C060
E7C060
C78060
C700C0
CF01C0
FB0F80
723E00
001800
ENDCHAR
STARTCHAR aj843
ENCODING 12354
BBX 25 25 3 -1
BITMAP
00C00000
00C00000
00C06000
00CFE000
3FFFC000
3FF80000
00C00000
01C18000
01C18000
01FFF000
01FFFC00
03C70E00
07860700
1D8E0300
398C0180
31DC0180
71F80180
61F00180
E1E00380
E1C00300
E3C00700
E7C01E00
FEC0FC00
7803F000
00038000
ENDCHAR
STARTCHAR aj844
ENCODING 12355
BBX 19 17 6 0
BITMAP
C00000
C00400
C00600
C00700
C00380
E00180
E001C0
E000C0
6000E0
600060
608060
71C000
318000
3B8000
1F8000
1F0000
0E0000
ENDCHAR
STARTCHAR aj845
ENCODING 12356
BBX 24 21 4 0
BITMAP
C00000
C00000
C001C0
C000E0
C000F0
E00070
E00038
E00038
E0001C
E0001C
E0000E
60000E
600007
706007
707004
706000
38E000
39C000
1FC000
0F8000
070000
ENDCHAR
STARTCHAR aj846
ENCODING 12357
BBX 14 22 8 -2
BITMAP
0E00
0F80
03F0
00E0
0000
0000
07E0
7FF8
FC18
C00C
000C
000C
000C
000C
001C
0018
0038
0070
01E0
07C0
0F00
0400
ENDCHAR
STARTCHAR aj847
ENCODING 12358
BBX 17 26 6 -1
BITMAP
060000
07C000
03F000
00FC00
001C00
000800
000000
00FC00
0FFE00
3F0700
FC0300
E00180
000180
000180
000180
000180
000180
000380
000300
000700
000600
000E00
003C00
00F800
07E000
03C000
ENDCHAR
STARTCHAR aj848
ENCODING 12359
BBX 19 21 6 -1
BITMAP
020000
07C000
01F000
007000
001000
000000
00F800
1FFC00
1F3800
007000
006000
00C000
018000
03F000
07F800
0F1800
1C1800
381800
701FE0
E00FE0
400000
ENDCHAR
STARTCHAR aj849
ENCODING 12360
BBX 23 26 4 -1
BITMAP
010000
03E000
01F800
007E00
001E00
000400
000000
000200
03FF00
1FFF00
1F0600
000E00
001C00
003800
007000
00E000
01FC00
03FE00
07CE00
0F0600
1E0600
3C0600
780600
F007FE
E001FE
400000
ENDCHAR
STARTCHAR aj850
ENCODING 12361
BBX 19 19 6 0
BITMAP
060000
060000
060600
062780
7FE3C0
7FC0E0
060060
060000
060000
07FE00
0FFF80
3E03C0
7600C0
E600C0
C600C0
C601C0
E60380
7E7F00
1C7C00
ENDCHAR
STARTCHAR aj851
ENCODING 12362
BBX 23 24 4 0
BITMAP
030000
030000
030080
0301E0
0318F0
1FF838
7FF01E
7F000E
030004
030000
030000
033F80
03FFF0
07C078
1F0018
3B000C
73000C
E3000C
C3000C
C3001C
C30038
6301F0
3F3FE0
1E1F80
ENDCHAR
STARTCHAR aj852
ENCODING 12363
BBX 26 24 3 0
BITMAP
00E00000
00E00000
00E00000
00C00000
00C03000
01C03800
01FC1C00
7FFF0E00
FF830E00
63838700
03818380
03018380
070181C0
060181C0
060180C0
0E018000
0C018000
1C038000
18030000
38030000
31070000
718E0000
E1FE0000
607C0000
ENDCHAR
STARTCHAR aj853
ENCODING 12364
BBX 27 26 3 0
BITMAP
00000100
00000380
00E009C0
00E01CE0
00E00E40
00C00700
00C02300
01C07000
01FC3800
7FFF1C00
FF830E00
63838E00
03818700
03018300
07018380
06018180
06018100
0E018000
0C018000
1C038000
18030000
38030000
31070000
718E0000
E1FE0000
607C0000
ENDCHAR
STARTCHAR aj854
ENCODING 12365
BBX 21 26 5 -1
BITMAP
008000
018000
01C080
00C780
00FF80
7FFC00
7FF000
003030
0039F8
001FE0
0FFF00
FFFC00
7C0600
000700
000300
001180
001FC0
000FE0
3001C0
300000
300000
380000
1C0000
0F0000
07FF00
00FF00
ENDCHAR
STARTCHAR aj855
ENCODING 12366
BBX 25 27 5 -1
BITMAP
00000400
00800600
01803300
01C0B980
00C79D00
00FF8C00
7FFC0000
7FF00000
00303000
0039F800
001FE000
0FFF0000
FFFC0000
7C060000
00070000
00030000
00118000
001FC000
000FE000
3001C000
30000000
30000000
38000000
1C000000
0F000000
07FF0000
00FF0000
ENDCHAR
STARTCHAR aj856
ENCODING 12367
BBX 15 26 7 -1
BITMAP
0010
0018
0038
0070
00F0
01E0
03C0
0780
0F00
1E00
3800
7000
E000
F000
7800
3C00
1E00
0F00
0780
03C0
01E0
00F0
0078
003C
001E
0008
ENDCHAR
STARTCHAR aj857
ENCODING 12368
BBX 21 26 7 -1
BITMAP
001000
001800
003800
007060
00F070
01E338
03C398
0781C0
0F00C0
1E0000
380000
700000
E00000
F00000
780000
3C0000
1E0000
0F0000
078000
03C000
01E000
00F000
007800
003C00
001E00
000800
ENDCHAR
STARTCHAR aj858
ENCODING 12369
BBX 24 25 4 -1
BITMAP
3000E0
300060
300060
700060
600060
600060
60006F
60FFFF
E0FFF8
C00060
C00060
C00060
C00060
C00060
C40060
CC0060
CC0060
F800E0
7800C0
7801C0
7001C0
700380
300F00
201E00
001C00
ENDCHAR
STARTCHAR aj859
ENCODING 12370
BBX 26 27 4 -1
BITMAP
00000180
00000D80
3000ECC0
3000E6C0
30006600
70006400
60006000
60006000
60006F00
60FFFF00
E0FFF800
C0006000
C0006000
C0006000
C0006000
C0006000
C4006000
CC006000
CC00E000
F800E000
7800C000
7801C000
7001C000
70038000
300F0000
203E0000
001C0000
ENDCHAR
STARTCHAR aj860
ENCODING 12371
BBX 19 22 6 0
BITMAP
000080
3FFF80
3FFF80
003C00
007800
00E000
004000
000000
000000
000000
000000
200000
700000
600000
C00000
C00000
C00000
C00000
600000
7800E0
1FFFE0
03FFC0
ENDCHAR
STARTCHAR aj861
ENCODING 12372
BBX 24 24 6 0
BITMAP
00000C
00006E
000077
3FFFB3
3FFF98
003C10
007000
00E000
004000
000000
000000
000000
000000
200000
700000
600000
C00000
C00000
C00000
C00000
600000
7800E0
1FFFE0
03FFC0
ENDCHAR
STARTCHAR aj862
ENCODING 12373
BBX 21 25 4 0
BITMAP
002000
00E000
006000
007000
003078
003BF8
003FE0
FFFE00
7FEE00
000600
000700
000300
000380
0001C0
000EE0
001FE0
0003F0
180060
180000
180000
0C0000
0E0000
078000
03FF80
007F80
ENDCHAR
STARTCHAR aj863
ENCODING 12374
BBX 26 26 4 0
BITMAP
00000300
00200980
00E01DC0
00600EC0
00700600
00307200
003BF800
003FE000
FFFE0000
7FEE0000
00060000
00070000
00030000
00038000
0001C000
000EE000
001FE000
0003F000
18006000
18000000
18000000
0C000000
0E000000
07800000
03FF8000
007F8000
ENDCHAR
STARTCHAR aj864
ENCODING 12375
BBX 17 25 8 -1
BITMAP
C00000
C00000
C00000
C00000
C00000
C00000
C00000
C00000
C00000
C00000
C00000
C00000
C00000
C00000
C00000
C00000
C00180
C00380
C00380
C00700
C00E00
601C00
707800
3FE000
0F8000
ENDCHAR
STARTCHAR aj865
ENCODING 12376
BBX 18 25 8 -1
BITMAP
C00600
C00700
C01380
C039C0
C01880
C01C00
C00C00
C00000
C00000
C00000
C00000
C00000
C00000
C00000
C00000
C00000
C00180
C00380
C00380
C00700
C00E00
601C00
707800
3FE000
0F8000
ENDCHAR
STARTCHAR aj866
ENCODING 12377
BBX 25 27 3 -2
BITMAP
00060000
00060000
00060000
00060000
00060000
FFFFFF80
FFFFFF80
00060000
00060000
00060000
00FE0000
01FE0000
038E0000
03860000
03070000
03070000
03870000
018F0000
01FB0000
00770000
00060000
000E0000
001C0000
00380000
00F00000
01E00000
00800000
ENDCHAR
STARTCHAR aj867
ENCODING 12378
BBX 26 29 3 -2
BITMAP
00000100
00001300
00063380
000619C0
00061CC0
00060C80
00060000
FFFFFF80
FFFFFF80
00060000
00060000
00060000
00FE0000
01FE0000
038E0000
03860000
03070000
03070000
03870000
018F0000
01FB0000
00770000
00060000
000E0000
001C0000
00380000
00F00000
01E00000
00800000
ENDCHAR
STARTCHAR aj868
ENCODING 12379
BBX 27 24 2 0
BITMAP
00003000
00003000
03003000
03003000
03003000
03003000
03003000
03003FE0
FFFFFFE0
FFFFF000
03003000
03003000
03003000
03003000
03003000
0307F000
0307E000
03000000
03000000
03000000
03000000
03800200
01FFFE00
007FFE00
ENDCHAR
STARTCHAR aj869
ENCODING 12380
BBX 28 25 2 0
BITMAP
00000040
00003060
00003360
03003330
030033B0
03003180
03003100
03003000
03003FE0
FFFFFFE0
FFFFF000
03003000
03003000
03003000
03003000
03003000
0307F000
0307E000
03000000
03000000
03000000
03000000
03800200
01FFFE00
007FFE00
ENDCHAR
STARTCHAR aj870
ENCODING 12381
BBX 24 24 3 -1
BITMAP
003FE0
0FFFE0
07E1C0
000380
000700
000E00
001800
00700F
00EFFF
0FFFF8
FFF700
780C00
001800
003000
002000
006000
006000
006000
006000
007000
003800
001FC0
000FF0
0001F0
ENDCHAR
STARTCHAR aj871
ENCODING 12382
BBX 26 24 3 -1
BITMAP
003FE180
0FFFE1C0
07E1CCC0
00038E40
00070700
000E0200
00180000
00700F00
00EFFF00
0FFFF800
FFF70000
780C0000
00180000
00300000
00200000
00600000
00600000
00600000
00600000
00700000
00380000
001FC000
000FF000
0001F000
ENDCHAR
STARTCHAR aj872
ENCODING 12383
BBX 25 25 3 0
BITMAP
00C00000
00E00000
00C00000
00C00000
01C00000
01FE0000
FFFE0000
FFE00000
03800000
03000000
0301FE00
070FFE00
060F8000
06080000
0E000000
0C000000
0C000000
1C000000
18100000
38380000
38180000
701C0000
700E0180
E007FF80
E001FF80
ENDCHAR
STARTCHAR aj873
ENCODING 12384
BBX 25 25 3 0
BITMAP
00C00000
00E00600
00C00300
00C03380
01C03980
01FE1C00
FFFE0C00
FFE00000
03800000
03000000
0301FE00
070FFE00
060F8000
06080000
0E000000
0C000000
0C000000
1C000000
18100000
38380000
38180000
701C0000
700E0180
E007FF80
E001FF80
ENDCHAR
STARTCHAR aj874
ENCODING 12385
BBX 23 26 3 -1
BITMAP
00C000
00C000
00C000
00C000
00C060
FFFFE0
FFFFE0
1F8000
018000
038000
030000
030000
0707E0
063FF8
06F81C
0FC00E
0F0006
0E0006
040006
000006
00000C
00001C
0000F8
007FF0
00FF80
007000
ENDCHAR
STARTCHAR aj875
ENCODING 12386
BBX 27 26 3 -1
BITMAP
00C00100
00C00180
00C009C0
00C00CE0
00C06640
FFFFE700
FFFFE200
1F800000
01800000
03800000
03000000
03000000
0707E000
063FF800
06F81C00
0FC00E00
0F000600
0E000600
04000600
00000600
00000C00
00001C00
0000F800
007FF000
00FF8000
00700000
ENDCHAR
STARTCHAR aj876
ENCODING 12387
BBX 20 15 5 1
BITMAP
00FF00
0FFFC0
FF80E0
780060
400030
000030
000030
000030
000070
000060
0000E0
0003C0
003F80
03FE00
03E000
ENDCHAR
STARTCHAR aj877
ENCODING 12388
BBX 24 19 3 1
BITMAP
003FE0
07FFF8
7FE01C
FE000E
600006
000003
000003
000003
000003
000003
000007
000006
00000E
00001C
000078
0007F0
01FFC0
01FE00
008000
ENDCHAR
STARTCHAR aj878
ENCODING 12389
BBX 26 25 3 1
BITMAP
00000300
00000380
000019C0
00001CC0
00000E00
00000600
003FE000
07FFF800
7FE01C00
FE000E00
60000600
00000300
00000300
00000300
00000300
00000300
00000700
00000600
00000E00
00001C00
00007800
0007F000
01FFC000
01FE0000
00800000
ENDCHAR
STARTCHAR aj879
ENCODING 12390
BBX 24 23 3 -1
BITMAP
00007F
01FFFF
FFFFF8
FF8380
C00E00
001C00
003800
003000
006000
006000
00C000
00C000
00C000
00C000
00C000
00C000
006000
007000
003800
001F80
000FF8
0003F8
000008
ENDCHAR
STARTCHAR aj880
ENCODING 12391
BBX 25 23 3 -1
BITMAP
00007F00
01FFFF00
FFFFF800
FF838000
C00E0000
001C0600
00380300
00303380
00603980
00601C00
00C00C00
00C00000
00C00000
00C00000
00C00000
00C00000
00600000
00700000
00380000
001F8000
000FF800
0003F800
00000800
ENDCHAR
STARTCHAR aj881
ENCODING 12392
BBX 19 24 6 0
BITMAP
0C0000
0E0000
0E0000
0E0000
060000
070000
070000
0301C0
038FC0
01FF00
01F800
07C000
0F0000
3C0000
300000
600000
E00000
C00000
C00000
C00000
E00000
780060
3FFFE0
07FFE0
ENDCHAR
STARTCHAR aj882
ENCODING 12393
BBX 23 25 6 0
BITMAP
000010
0C0038
0E009C
0E01CE
0E00E4
060070
070020
070000
0301C0
038FC0
01FF00
01F800
07C000
0F0000
3C0000
300000
600000
E00000
C00000
C00000
C00000
E00000
780060
3FFFE0
07FFE0
ENDCHAR
STARTCHAR aj883
ENCODING 12394
BBX 26 26 3 -1
BITMAP
00800000
00C00000
00C00000
01C00000
01C00000
018C1000
7FFC3800
7FF81E00
03000F00
03000780
0700C380
0600C100
0E00C000
0C00C000
1C00C000
1800C000
3800C000
3000C000
701FE000
E07FF000
60E0FC00
00C0FF00
00C0E7C0
00E0C180
007FC000
001F8000
ENDCHAR
STARTCHAR aj884
ENCODING 12395
BBX 23 23 4 0
BITMAP
380000
300000
3001FC
703FFC
603FFC
600000
600000
E00000
C00000
C00000
C00000
C00000
C00000
C00000
CC3000
CC6000
FC6000
F86000
F87000
703802
701FFE
7007FE
700000
ENDCHAR
STARTCHAR aj885
ENCODING 12396
BBX 27 24 2 0
BITMAP
00030000
00030000
10030000
30070000
38078000
183FF800
18FE3C00
1FC60F00
0F0E0300
0E0C0180
1E0C0180
3E1C00C0
331800C0
633800C0
61B000C0
C1F000C0
C0E1F1C0
C0E3FD80
C1F70F80
C3A60380
E70607E0
7E071EE0
3C03FC40
0001F000
ENDCHAR
STARTCHAR aj886
ENCODING 12397
BBX 27 25 2 -1
BITMAP
03800000
03000000
03000000
03000000
0300F800
0F87FC00
FFCF0E00
FB9C0700
03300300
03600380
03C00180
03800180
07000180
07000180
0F000180
1F000180
3B03E380
7307FF00
E30E1F00
630C0780
030C0FC0
030E1EE0
0307FC40
0301F000
03000000
ENDCHAR
STARTCHAR aj887
ENCODING 12398
BBX 25 22 3 0
BITMAP
003F8000
01FFF000
078C7800
0E0C1C00
1C1C0600
381C0300
301C0300
60180180
60180180
E0380180
C0380180
C0300180
C0300180
C0700380
C0600300
C0E00700
60C00E00
61C01E00
33807C00
1F07F000
0E07E000
00070000
ENDCHAR
STARTCHAR aj888
ENCODING 12399
BBX 25 24 4 0
BITMAP
3000C000
3000C000
7000C000
7000C000
6000C000
6000FE00
60FFFE00
60FFE000
E000C000
C000C000
C000C000
C000C000
C000C000
C000C000
C800C000
CC00C000
D81FC000
D87FF000
F0E0FC00
F0C0DE00
F0C0CF80
E0E1C300
607FC000
601F8000
ENDCHAR
STARTCHAR aj889
ENCODING 12400
BBX 26 27 4 0
BITMAP
00000100
00000380
00001980
3000CCC0
3000CE80
3000C600
7000C400
6000C000
6000FE00
60FFFE00
60FFF000
E000C000
C000C000
C000C000
C000C000
C000C000
C000C000
C800C000
CC00C000
D81FC000
D87FF000
F0E0FC00
F0C0DE00
F0C0CF80
60E1C300
607FC000
601F0000
ENDCHAR
STARTCHAR aj890
ENCODING 12401
BBX 26 27 4 0
BITMAP
00000700
00000880
00001040
3000D040
3000D040
3000C880
7000C700
6000C000
6000FE00
60FFFE00
60FFF000
E000C000
C000C000
C000C000
C000C000
C000C000
C000C000
C800C000
CC00C000
D81FC000
D87FF000
F0E0FC00
F0C0DE00
F0C0CF80
60E1C300
607FC000
601F0000
ENDCHAR
STARTCHAR aj891
ENCODING 12402
BBX 27 23 2 -1
BITMAP
00100000
00F07000
03F03000
3FE03800
FCE03C00
61C03C00
03801600
03001F00
06001B80
0E001B80
0C0019C0
0C0018E0
180018C0
18001800
18001800
18003800
18003000
1C007000
0C007000
0E00E000
0783C000
03FF8000
00FE0000
ENDCHAR
STARTCHAR aj892
ENCODING 12403
BBX 28 26 2 -1
BITMAP
00000040
000000C0
00000660
00100760
00F07330
03F03180
3FE03900
FCE03C00
61C03C00
03801600
03001F00
06001B80
0E001B80
0C0019C0
0C0018E0
180018C0
18001800
18001800
18003800
18003000
1C007000
0C007000
0E00E000
0783C000
03FF8000
00FE0000
ENDCHAR
STARTCHAR aj893
ENCODING 12404
BBX 28 25 2 -1
BITMAP
000001C0
00000630
00100410
00F07410
03F03630
3FE039C0
FCE03C00
61C03C00
03801600
03001F00
06001B80
0E001B80
0C0019C0
0C0018E0
180018C0
18001800
18001800
18003800
18003000
1C007000
0C007000
0E00E000
0783C000
03FF8000
00FE0000
ENDCHAR
STARTCHAR aj894
ENCODING 12405
BBX 27 24 2 0
BITMAP
00400000
00700000
007C0000
001F0000
0007C000
00018000
00000000
00000000
00380000
00180000
00180000
001C0800
080C1C00
0C0E0E00
1C070700
1C038780
38018380
3801C1C0
7000C1C0
E000C0E0
E180C040
C1E1C000
00FF8000
003F0000
ENDCHAR
STARTCHAR aj895
ENCODING 12406
BBX 27 24 2 0
BITMAP
00400380
007001C0
007C0CC0
001F0E60
0007C640
00018300
00000000
00000000
00380000
00180000
00180000
001C0800
080C1C00
0C0E0E00
1C070700
1C038780
38018380
3801C1C0
7000C1C0
E000C0E0
E180C040
C1E1C000
00FF8000
003F0000
ENDCHAR
STARTCHAR aj896
ENCODING 12407
BBX 27 24 2 0
BITMAP
00400000
00700700
007C18C0
001F1040
0007D040
000198C0
00000700
00000000
00380000
00180000
00180000
001C0800
080C1C00
0C0E0E00
1C070700
1C038780
38018380
3801C1C0
7000C1C0
E000C0E0
E180C040
C1E1C000
00FF8000
003F0000
ENDCHAR
STARTCHAR aj897
ENCODING 12408
BBX 27 14 2 5
BITMAP
00700000
00F80000
01FC0000
03DE0000
078F0000
0F078000
1E01C000
3C00F000
78007800
F0003C00
60001F00
000007C0
000003E0
000000C0
ENDCHAR
STARTCHAR aj898
ENCODING 12409
BBX 27 17 2 5
BITMAP
00000E00
00000600
00007300
00703380
00F81900
01FC1C00
03DE0800
078F0000
0F078000
1E01C000
3C00F000
78007800
F0003C00
60001F00
000007C0
000003E0
000000C0
ENDCHAR
STARTCHAR aj899
ENCODING 12410
BBX 27 17 2 5
BITMAP
00000E00
00001100
00002080
00702080
00F82080
01FC1100
03DE0E00
078F0000
0F078000
1E01C000
3C00F000
78007800
F0003C00
60001F00
000007C0
000003E0
000000C0
ENDCHAR
STARTCHAR aj900
ENCODING 12411
BBX 24 24 4 0
BITMAP
200000
70001C
70FFFC
60FFF0
6000C0
6000C0
6000C0
E000C0
E101FE
C1FFFE
C0FEC0
C000C0
C000C0
C000C0
C000C0
DC00C0
D83FC0
D8FFE0
F1C1F8
F180FE
E180CF
E1C1C3
E0FFC0
603F80
ENDCHAR
STARTCHAR aj901
ENCODING 12412
BBX 26 26 4 0
BITMAP
00000100
00000580
20000CC0
700016C0
70FFF700
60FFE300
6000C000
6000C000
6000C000
6000C000
E101FE00
C1FFFE00
C0FEC000
C000C000
C000C000
C000C000
C000C000
CC00C000
D83FC000
D8FFE000
F1C1F800
F180FE00
E180CF00
E1C1C300
60FFC000
603F8000
ENDCHAR
STARTCHAR aj902
ENCODING 12413
BBX 27 26 4 0
BITMAP
00000380
00000C60
20000820
70000820
70FFEC60
60FFE380
6000C000
6000C000
6000C000
6000C000
E101FE00
C1FFFE00
C0FEC000
C000C000
C000C000
C000C000
C000C000
CC00C000
D83FC000
D8FFE000
F1C1F800
F180FE00
E180CF00
E1C1C300
60FFC000
603F8000
ENDCHAR
STARTCHAR aj903
ENCODING 12414
BBX 21 25 5 0
BITMAP
003800
003800
001800
001800
001BF8
FFFFF8
FFFE00
001800
001800
001800
001BF0
3FFFF0
3FFE00
001800
001800
001800
001800
1FF800
7FFC00
F03F00
C01FC0
C019F0
F03878
7FF810
1FE000
ENDCHAR
STARTCHAR aj904
ENCODING 12415
BBX 26 23 3 -1
BITMAP
07FE0000
0FFE0000
0F0C0000
000C0000
001C0000
00180800
00180C00
00380C00
00301C00
03FE1C00
0FFFDC00
3C63F800
70E07E00
60C01F00
E1C03FC0
C18031C0
C3807080
C7006000
EE00E000
7C01C000
38078000
000F0000
00060000
ENDCHAR
STARTCHAR aj905
ENCODING 12416
BBX 26 24 3 0
BITMAP
03800000
03800000
03000000
03000000
03FC1800
FFFC3C00
FF000E00
03000700
03000380
030001C0
1F0001C0
33000080
61000000
E1800000
C1801800
C1801800
C1000C00
E3000C00
7E000C00
3E000C00
06001C00
07003800
07FFF800
01FFC000
ENDCHAR
STARTCHAR aj906
ENCODING 12417
BBX 25 25 3 -1
BITMAP
00030000
00030000
00030000
18070000
18070000
1C3FE000
1DFFF800
0FCE1C00
0F0C0600
1E0C0300
1E1C0300
37180180
73380180
63300180
E3F00180
C1E00180
C1E00380
C0E00300
C1E00700
C3F00E00
67201C00
7E00F800
380FF000
0007C000
00040000
ENDCHAR
STARTCHAR aj907
ENCODING 12418
BBX 21 25 5 -1
BITMAP
01C000
01C000
018000
018000
018000
FDFF00
FFFF00
0FF000
038000
030000
030000
030000
FFFE00
FFFE00
07C038
060018
060018
060018
060018
060018
060038
030030
03C0F0
01FFC0
007F00
ENDCHAR
STARTCHAR aj908
ENCODING 12419
BBX 21 21 5 -1
BITMAP
004000
00E000
087800
181C00
1C0800
0C0FE0
0E7FF0
07F038
1F8018
FF0018
E30038
038070
019FE0
018F80
01C000
00C000
00C000
00E000
006000
006000
007000
ENDCHAR
STARTCHAR aj909
ENCODING 12420
BBX 25 26 3 -1
BITMAP
00100000
00380000
001E0000
1C0F0000
0C030000
0E000000
0E01F800
060FFE00
077F0700
03F00180
1F800180
FF800180
F1C00180
C1C00380
00C00F00
00E1FE00
00E3F800
00618000
00700000
00300000
00300000
00380000
00180000
00180000
001C0000
001C0000
ENDCHAR
STARTCHAR aj910
ENCODING 12421
BBX 19 20 6 -1
BITMAP
003000
003000
603000
E03C00
C1FF00
C7DB80
CE18C0
DC1860
D81860
F01860
E01860
E21860
C718C0
C3B1C0
C1FF80
C07E00
E07000
006000
00E000
01C000
ENDCHAR
STARTCHAR aj911
ENCODING 12422
BBX 24 26 4 -2
BITMAP
000600
000600
600600
600600
E00F80
E07FF0
C0FE7C
C1C70E
C38306
C70307
CE0303
DC0303
D80303
F80303
F00307
F18306
E1E70E
E0FE7C
E03FF8
E00FC0
600C00
001C00
003800
007800
00F000
002000
ENDCHAR
STARTCHAR aj912
ENCODING 12423
BBX 17 19 6 0
BITMAP
00C000
00C000
00C000
00C000
00C300
00FF00
00FC00
00C000
00C000
00C000
00C000
00C000
1FC000
7FF000
E0FC00
C0CF00
E0C380
7FC100
1F8000
ENDCHAR
STARTCHAR aj913
ENCODING 12424
BBX 21 25 4 -1
BITMAP
003000
003000
003000
003000
003000
003000
0037E0
003FF0
003E00
003000
003000
003000
003000
003000
003000
003000
0FF000
3FFC00
703F80
C037E0
C031F8
C03078
707010
3FE000
0FC000
ENDCHAR
STARTCHAR aj914
ENCODING 12425
BBX 19 26 7 -1
BITMAP
0C0000
0F0000
07C000
01F000
007000
402000
700000
600000
600000
600000
600000
E00000
E07E00
C3FF80
CF81C0
DE00E0
F80060
F00060
E00060
000060
0000C0
0001C0
000780
00FF00
07FC00
07E000
ENDCHAR
STARTCHAR aj915
ENCODING 12426
BBX 16 25 7 -1
BITMAP
8007
E007
E003
E003
C003
C003
C003
C003
C003
C003
C603
CE03
CE03
FC03
7803
7007
0006
0006
000E
001C
003C
0078
01F0
07E0
0380
ENDCHAR
STARTCHAR aj916
ENCODING 12427
BBX 22 24 4 -1
BITMAP
001F00
1FFF80
1FF700
000F00
001E00
003C00
003800
007000
00E000
01DF80
03FFE0
07E070
1F0018
3C000C
78000C
F0000C
61E00C
03F80C
071C18
060E38
0606F0
0707E0
03FFC0
00FE00
ENDCHAR
STARTCHAR aj917
ENCODING 12428
BBX 27 25 2 -1
BITMAP
03800000
03800000
03800000
03800000
03000000
0781F000
FFC7F000
FF8E1800
43B81800
03701800
03E01800
03C01800
03803800
07003000
0F003000
1F003000
3B003000
7B003040
73003060
E30030E0
030033C0
03003F80
03001F00
03001E00
03000000
ENDCHAR
STARTCHAR aj918
ENCODING 12429
BBX 22 24 5 -1
BITMAP
001E00
3FFF00
3FF700
100E00
001C00
003800
007000
00E000
01C000
039FC0
07FFF0
0FF078
1F8018
3E000C
7C000C
F0000C
60000C
00000C
000018
000038
0000F0
0007E0
03FF00
03F000
ENDCHAR
STARTCHAR aj919
ENCODING 12430
BBX 21 20 5 -1
BITMAP
060000
060000
060000
060000
3F0000
7F1F80
677060
06C030
078018
070018
0E0018
1E0018
3E0018
760038
E60070
4600F0
0603E0
061F80
061E00
060000
ENDCHAR
STARTCHAR aj920
ENCODING 12431
BBX 25 25 3 -1
BITMAP
03800000
03800000
03000000
03000000
03000000
07800000
FFC3F000
FB8FFC00
83BE0E00
03780700
03E00300
03C00180
03800180
07000180
0F000180
1F000180
3B000380
73000300
E3000700
C3000E00
03003C00
0301F800
0307F000
03038000
03000000
ENDCHAR
STARTCHAR aj921
ENCODING 12432
BBX 25 24 3 -1
BITMAP
001F0000
07FF0000
07F70000
00060000
00060000
000E0000
000C0000
003FC000
01FFF800
07D83C00
0E380E00
1C300700
38700300
70600180
60E00180
E0C00180
C1C00180
C183C180
C387E380
C70C7700
EE0C1F00
7C0E1E00
3807FC00
0003F000
ENDCHAR
STARTCHAR aj922
ENCODING 12433
BBX 27 25 2 -2
BITMAP
00FFE000
07FFE000
03C38000
00070000
001C0000
003BE000
00FFF800
01F81C00
07C00E00
0F000600
3E7C0600
38C60600
11860E00
018E3C00
01FCF800
00FFF000
00FF8000
03807800
07E0FE00
0FF18700
3E3B0380
781F01C0
F00E00E0
E00E0060
40000000
ENDCHAR
STARTCHAR aj923
ENCODING 12434
BBX 23 26 4 -1
BITMAP
006000
006000
00E000
00C080
7DFF80
7FFF80
1F8000
030000
070000
06F000
0FF800
0F1C0C
1E0C7E
3C0FF8
380FC0
703E00
E07E00
41E600
038600
030600
060000
060000
060000
03C008
01FFF8
007FF8
ENDCHAR
STARTCHAR aj924
ENCODING 12435
BBX 25 25 3 -1
BITMAP
00080000
001C0000
00180000
00380000
00300000
00700000
00E00000
00E00000
01C00000
01C00000
03800000
03800000
033C0000
07FE0000
07C60000
0F070000
0E070100
1E070180
1C070380
38070380
38030700
70030600
70039E00
E001FC00
2000F000
ENDCHAR
STARTCHAR aj7958
ENCODING 12436
BBX 24 26 6 -1
BITMAP
060008
07C01C
03F04E
00FC67
001C72
000838
000010
00FC00
0FFE00
3F0700
FC0300
E00180
000180
000180
000180
000180
000180
000380
000300
000700
000600
000E00
003C00
00F800
07E000
03C000
ENDCHAR
STARTCHAR aj7959
ENCODING 12437
BBX 21 20 5 0
BITMAP
010000
038000
030000
030100
030380
03E180
FFF1C0
7E38E0
061860
0E1870
0C1838
0C1810
1C1800
181800
381800
301800
703000
623000
E7E000
41E000
ENDCHAR
STARTCHAR aj7960
ENCODING 12438
BBX 19 20 7 -1
BITMAP
600E00
600600
600600
600600
600600
E007E0
C3FFE0
C3FE00
C00600
C00600
C00600
C00600
D80600
D00600
F00C00
E00C00
E01C00
603800
607000
00E000
ENDCHAR
STARTCHAR aj16326
ENCODING 12441
BBX 7 7 21 19
BITMAP
08
1C
0E
C6
E2
70
30
ENDCHAR
STARTCHAR aj16327
ENCODING 12442
BBX 7 7 21 19
BITMAP
38
44
82
82
82
44
38
ENDCHAR
STARTCHAR aj643
ENCODING 12443
BBX 8 7 1 19
BITMAP
08
1C
0E
C7
62
30
30
ENDCHAR
STARTCHAR aj644
ENCODING 12444
BBX 7 7 1 19
BITMAP
38
44
82
82
82
44
38
ENDCHAR
STARTCHAR aj653
ENCODING 12445
BBX 13 16 9 3
BITMAP
E000
F000
7C00
1E00
0780
03C0
01E0
00F0
0078
0038
0038
00F0
01F0
1FC0
3F00
1800
ENDCHAR
STARTCHAR aj654
ENCODING 12446
BBX 16 20 9 3
BITMAP
0008
001C
000E
00C7
E0F2
F038
7C18
1E10
0780
03C0
01E0
00F0
0078
0038
0038
00F0
01F0
1FC0
3F00
1800
ENDCHAR
STARTCHAR aj12181
ENCODING 12447
BBX 17 28 7 -2
BITMAP
010000
018000
038000
030000
030000
07FF80
07FF80
060000
0E0000
0C0000
1C0000
19F000
1FF800
3E1C00
780C00
700600
E00600
400600
000600
000600
000600
200C00
600C00
701C00
303800
387000
1FE000
078000
ENDCHAR
STARTCHAR aj16205
ENCODING 12448
BBX 13 8 9 8
BITMAP
FFF8
FFF8
0000
0000
0000
0000
FFF8
FFF8
ENDCHAR
STARTCHAR aj925
ENCODING 12449
BBX 18 18 6 -1
BITMAP
FFFFC0
FFFFC0
0001C0
000180
018380
018700
018E00
019C00
019800
018000
038000
038000
030000
070000
0E0000
3C0000
780000
200000
ENDCHAR
STARTCHAR aj926
ENCODING 12450
BBX 24 22 4 0
BITMAP
FFFFFE
FFFFFF
00000E
00001C
00701C
007038
007070
0070E0
0071C0
007380
007100
006000
006000
00E000
00E000
00C000
01C000
038000
078000
1F0000
3C0000
180000
ENDCHAR
STARTCHAR aj927
ENCODING 12451
BBX 15 20 7 -1
BITMAP
000C
000E
001C
0038
0070
00E0
03C0
07C0
1FC0
3CC0
F8C0
E0C0
00C0
00C0
00C0
00C0
00C0
00C0
00C0
00C0
ENDCHAR
STARTCHAR aj928
ENCODING 12452
BBX 19 25 5 -1
BITMAP
000040
0000E0
0001C0
000380
000700
000E00
001C00
003800
007800
01F800
03D800
0F9800
1E1800
7C1800
F01800
401800
001800
001800
001800
001800
001800
001800
001800
001800
001800
ENDCHAR
STARTCHAR aj929
ENCODING 12453
BBX 16 21 7 -1
BITMAP
0180
0180
0180
0180
0180
FFFF
FFFF
C003
C003
C007
C007
C006
000E
000E
001C
0038
0078
01F0
07C0
0780
0200
ENDCHAR
STARTCHAR aj930
ENCODING 12454
BBX 20 25 5 -1
BITMAP
006000
006000
006000
006000
006000
FFFFE0
FFFFF0
C00070
C00070
C00070
C00070
C00060
C000E0
C000E0
0000C0
0001C0
000380
000380
000700
000E00
003C00
007800
03F000
07C000
010000
ENDCHAR
STARTCHAR aj931
ENCODING 12455
BBX 21 14 5 2
BITMAP
3FFFE0
3FFFE0
006000
006000
006000
006000
006000
006000
006000
006000
006000
006000
FFFFF8
FFFFF8
ENDCHAR
STARTCHAR aj932
ENCODING 12456
BBX 25 18 3 2
BITMAP
3FFFFE00
3FFFFE00
00180000
00180000
00180000
00180000
00180000
00180000
00180000
00180000
00180000
00180000
00180000
00180000
00180000
00180000
FFFFFF80
FFFFFF80
ENDCHAR
STARTCHAR aj933
ENCODING 12457
BBX 20 19 5 0
BITMAP
000C00
000C00
000C00
000C00
000FF0
7FFFF0
7FFC00
003C00
003C00
006C00
00CC00
01CC00
038C00
0F0C00
1C0C00
780C00
F00C00
40FC00
00F800
ENDCHAR
STARTCHAR aj934
ENCODING 12458
BBX 24 24 3 0
BITMAP
000180
000180
000180
000180
000180
000180
7FFFFF
7FFFFF
000780
000780
000D80
001D80
003980
007180
00E180
01E180
03C180
0F0180
1E0180
7C0180
F00180
400180
003F80
003F00
ENDCHAR
STARTCHAR aj935
ENCODING 12459
BBX 21 24 4 0
BITMAP
006000
006000
006000
006000
006000
006000
FFFFF8
FFFFF8
006038
006038
00E038
00C038
00C038
00C038
01C038
018038
038038
030038
070030
0E0030
1C0070
781870
F01FE0
E00FC0
ENDCHAR
STARTCHAR aj936
ENCODING 12460
BBX 25 25 4 0
BITMAP
00000600
00602700
00607380
00603980
00601C00
00600C00
00600000
FFFFF800
FFFFF800
00603800
00603800
00E03800
00C03800
00C03800
00C03800
01C03800
01803800
03803800
03003800
07003000
0E003000
1C007000
78187000
F01FE000
E00FC000
ENDCHAR
STARTCHAR aj937
ENCODING 12461
BBX 24 25 4 -1
BITMAP
00C000
00E000
00E000
00E000
006070
007FF0
07FFC0
7FF000
7C7000
003000
003000
003806
0039FF
007FFE
1FFF80
FFF800
F81C00
001C00
001C00
000C00
000C00
000E00
000E00
000E00
000600
ENDCHAR
STARTCHAR aj938
ENCODING 12462
BBX 25 27 4 -1
BITMAP
00000600
00000700
00C03380
00E01980
00E00C00
00E00C00
00607000
007FF000
07FFC000
7FF00000
7C700000
00300000
00300000
00380600
0039FF00
007FFE00
1FFF8000
FFF80000
F81C0000
001C0000
001C0000
000C0000
000C0000
000E0000
000E0000
000E0000
00060000
ENDCHAR
STARTCHAR aj939
ENCODING 12463
BBX 20 25 5 -1
BITMAP
00C000
00E000
00C000
01C000
01FFE0
03FFF0
070070
070070
0E0060
1C00E0
3800E0
7801C0
F001C0
E00380
000380
000700
000E00
001E00
003C00
007800
00F000
03E000
078000
1F0000
0C0000
ENDCHAR
STARTCHAR aj940
ENCODING 12464
BBX 25 26 5 -1
BITMAP
00000600
00C01300
00E03B80
00C01D80
01C00C00
01FFE000
03FFF000
07007000
07007000
0E006000
1C00E000
3800E000
7801C000
F001C000
E0038000
00038000
00070000
000E0000
001E0000
003C0000
00780000
00F00000
03E00000
07800000
1F000000
0C000000
ENDCHAR
STARTCHAR aj941
ENCODING 12465
BBX 24 25 4 -1
BITMAP
018000
018000
038000
038000
030000
070000
07FFFF
0FFFFF
0E0380
1C0380
380380
380380
700380
E00300
400700
000700
000600
000E00
001C00
001C00
007800
00F000
01E000
03C000
010000
ENDCHAR
STARTCHAR aj942
ENCODING 12466
BBX 25 26 4 -1
BITMAP
00000600
01801300
01803980
03801D80
03800E00
03000400
07000000
07FFFF00
0FFFFF00
0E038000
1C038000
38038000
38038000
70038000
E0030000
40070000
00070000
00060000
000E0000
001C0000
001C0000
00780000
00F00000
01E00000
03C00000
01000000
ENDCHAR
STARTCHAR aj943
ENCODING 12467
BBX 20 19 5 1
BITMAP
FFFFF0
FFFFF0
000030
000030
000030
000030
000030
000030
000030
000030
000030
000030
000030
000030
000030
FFFFF0
FFFFF0
000030
000030
ENDCHAR
STARTCHAR aj944
ENCODING 12468
BBX 26 25 5 1
BITMAP
00000200
00000700
00001B80
00001DC0
00000C00
00000600
FFFFF000
FFFFF000
00003000
00003000
00003000
00003000
00003000
00003000
00003000
00003000
00003000
00003000
00003000
00003000
00003000
FFFFF000
FFFFF000
00003000
00003000
ENDCHAR
STARTCHAR aj945
ENCODING 12469
BBX 27 25 2 -1
BITMAP
00003000
01803000
01803000
01803000
01803000
01803000
01803000
FFFFFFE0
FFFFFFE0
01803000
01803000
01803000
01803000
01803000
01807000
01806000
00006000
0000E000
0000C000
0001C000
00038000
000F0000
001E0000
007C0000
00300000
ENDCHAR
STARTCHAR aj946
ENCODING 12470
BBX 29 26 2 -1
BITMAP
000000E0
00003260
01803730
01803338
01803190
018031C0
01803000
01803000
FFFFFFE0
FFFFFFE0
01803000
01803000
01803000
01803000
01803000
01807000
01806000
00006000
0000E000
0000C000
0001C000
00038000
000F0000
001E0000
007C0000
00300000
ENDCHAR
ENDFONT
